<svg width="68" height="68" viewBox="0 0 68 68" fill="none" xmlns="http://www.w3.org/2000/svg">
<path d="M36.8334 19.8333H31.1667V31.1667H19.8334V36.8333H31.1667V48.1667H36.8334V36.8333H48.1668V31.1667H36.8334V19.8333ZM34.0001 5.66666C18.3601 5.66666 5.66675 18.36 5.66675 34C5.66675 49.64 18.3601 62.3333 34.0001 62.3333C49.6401 62.3333 62.3334 49.64 62.3334 34C62.3334 18.36 49.6401 5.66666 34.0001 5.66666ZM34.0001 56.6667C21.5051 56.6667 11.3334 46.495 11.3334 34C11.3334 21.505 21.5051 11.3333 34.0001 11.3333C46.4951 11.3333 56.6668 21.505 56.6668 34C56.6668 46.495 46.4951 56.6667 34.0001 56.6667Z" fill="#E83C38"/>
</svg>
