<?xml version="1.0" encoding="UTF-8" standalone="no"?>
<svg
   xmlns:dc="http://purl.org/dc/elements/1.1/"
   xmlns:cc="http://creativecommons.org/ns#"
   xmlns:rdf="http://www.w3.org/1999/02/22-rdf-syntax-ns#"
   xmlns:svg="http://www.w3.org/2000/svg"
   xmlns="http://www.w3.org/2000/svg"
   width="14.993051mm"
   height="14.993049mm"
   viewBox="0 0 14.993051 14.993049"
   version="1.1"
   id="svg8">
  <defs
     id="defs2" />
  <metadata
     id="metadata5">
    <rdf:RDF>
      <cc:Work
         rdf:about="">
        <dc:format>image/svg+xml</dc:format>
        <dc:type
           rdf:resource="http://purl.org/dc/dcmitype/StillImage" />
        <dc:title></dc:title>
      </cc:Work>
    </rdf:RDF>
  </metadata>
  <g
     id="layer1"
     transform="translate(-86.24157,-42.396333)">
    <g
       style="fill:#4d4d4d"
       id="g21"
       transform="matrix(0.26458333,0,0,0.26458333,84.742242,40.897029)">
      <path
         d="M 36.8334,19.8333 H 31.1667 V 31.1667 H 19.8334 v 5.6666 h 11.3333 v 11.3334 h 5.6667 V 36.8333 H 48.1668 V 31.1667 H 36.8334 Z M 34.0001,5.66666 C 18.3601,5.66666 5.66675,18.36 5.66675,34 c 0,15.64 12.69335,28.3333 28.33335,28.3333 15.64,0 28.3333,-12.6933 28.3333,-28.3333 0,-15.64 -12.6933,-28.33334 -28.3333,-28.33334 z m 0,51.00004 C 21.5051,56.6667 11.3334,46.495 11.3334,34 c 0,-12.495 10.1717,-22.6667 22.6667,-22.6667 12.495,0 22.6667,10.1717 22.6667,22.6667 0,12.495 -10.1717,22.6667 -22.6667,22.6667 z"
         fill="#e83c38"
         id="path10"
         style="fill:#4d4d4d" />
    </g>
  </g>
</svg>
