<svg width="700" height="530" viewBox="0 0 700 530" fill="none" xmlns="http://www.w3.org/2000/svg">
<g clip-path="url(#clip0)">
<path opacity="0.1" d="M232.721 529.702C266.81 529.702 294.445 524.958 294.445 519.105C294.445 513.253 266.81 508.509 232.721 508.509C198.632 508.509 170.997 513.253 170.997 519.105C170.997 524.958 198.632 529.702 232.721 529.702Z" fill="#E83C38"/>
<path opacity="0.1" d="M568.246 530C610.785 530 645.269 525.256 645.269 519.403C645.269 513.551 610.785 508.806 568.246 508.806C525.708 508.806 491.224 513.551 491.224 519.403C491.224 525.256 525.708 530 568.246 530Z" fill="#E83C38"/>
<path opacity="0.1" d="M8.76706 228.998H73.057V322.663H13.4737C13.3153 323.624 13.1633 324.592 12.9986 325.561H73.057V401.099C72.9493 401.065 72.8543 401.024 72.753 400.984C71.0553 400.266 69.3703 399.508 67.6853 398.695L66.6084 398.174C64.9192 397.321 63.2299 396.418 61.5407 395.465C60.9516 395.134 60.3625 394.788 59.7797 394.436C50.4018 388.821 41.8825 381.706 34.5173 373.337C34.3019 373.114 34.0992 372.877 33.8838 372.66C32.8576 371.469 31.8504 370.263 30.8749 369.031L29.798 367.677C28.6451 366.167 27.5302 364.616 26.447 363.045C26.2886 362.815 26.1366 362.585 25.9719 362.368C21.5664 355.839 17.9085 348.769 15.0763 341.31C14.9877 341.087 14.9116 340.843 14.8293 340.633C13.9593 338.241 13.1886 335.826 12.5172 333.388C12.2258 332.366 11.947 331.357 11.7063 330.294C11.6176 329.982 11.5416 329.677 11.4719 329.373C7.87388 314.361 7.44946 298.767 7.44946 283.282C7.44946 281.474 7.44946 279.659 7.44946 277.865C7.44946 271.602 7.51914 265.298 7.6205 259.001C7.6205 257.369 7.68384 255.744 7.71552 254.105C7.8042 249.948 7.93089 245.79 8.09559 241.633C8.1336 240.475 8.18428 239.324 8.24129 238.173C8.24129 237.509 8.27296 236.846 8.33631 236.182C8.48834 233.772 8.61503 231.382 8.76706 228.998Z" fill="#E83C38"/>
<path opacity="0.1" d="M73.057 124.71H37.7922C43.5247 115.119 49.7881 105.903 56.549 97.1109C61.7878 90.2315 67.3179 83.5281 73.057 77.0685V124.71Z" fill="#E83C38"/>
<path opacity="0.1" d="M73.0571 127.608V226.1H8.96985C8.96985 225.816 9.01419 225.525 9.03319 225.24C9.09021 224.462 9.14722 223.683 9.21056 222.911C9.28024 222.004 9.35626 221.09 9.43861 220.202C9.52096 219.315 9.60964 218.232 9.70466 217.25C9.79968 216.269 9.88837 215.273 9.99606 214.291C10.1037 213.31 10.1988 212.328 10.3128 211.353C10.4268 210.378 10.5282 209.389 10.6485 208.414C10.7435 207.602 10.8449 206.796 10.9462 205.983C11.0919 204.839 11.244 203.688 11.4087 202.55C11.4087 202.381 11.453 202.205 11.4784 202.042C12.6345 193.715 14.2099 185.46 16.1976 177.314C18.2783 168.769 20.9352 160.396 24.1476 152.261C27.5617 143.751 31.5592 135.522 36.1073 127.642L73.0571 127.608Z" fill="#E83C38"/>
<path opacity="0.1" d="M88.4058 228.991V322.663H225.721V228.991H88.4058ZM88.4058 325.554V405.994C89.1913 406.17 89.9704 406.34 90.7432 406.482C91.7948 406.698 92.84 406.895 93.9105 407.064C94.1133 407.098 94.3223 407.132 94.544 407.152C94.9621 407.227 95.3928 407.288 95.8109 407.348C96.8688 407.504 97.9204 407.633 98.9782 407.734C99.4787 407.789 99.9854 407.836 100.492 407.877L101.715 407.978C102.38 408.032 103.039 408.073 103.691 408.093C104.097 408.093 104.502 408.134 104.92 408.147C105.237 408.147 105.554 408.147 105.883 408.147C106.212 408.147 106.681 408.147 107.08 408.147C107.625 408.147 108.17 408.147 108.708 408.147H109.437C109.981 408.147 110.526 408.148 111.065 408.093H111.103C111.476 408.093 111.857 408.093 112.237 408.039C112.342 408.046 112.448 408.046 112.553 408.039C112.87 408.039 113.187 408.039 113.491 407.992H113.713L115.835 407.816C116.531 407.748 117.235 407.66 117.944 407.579L119.388 407.396C125.264 406.516 131.075 405.195 136.777 403.442C149.585 399.623 162.115 394.28 174.918 390.367C191.47 385.322 209.758 382.844 225.753 389.012V325.554H88.4058ZM225.721 124.71V0.00675509C210.687 -0.167346 195.695 1.71217 181.107 5.59967C146.336 14.937 115.138 35.1893 88.4058 61.0549V124.703H95.2978V127.594H88.4058V226.1H225.721V127.601H123.595V124.71H225.721ZM402.096 82.5869C393.493 82.2619 384.942 79.3503 377.207 74.8543C362.416 66.2551 350.602 52.977 337.4 41.7708C309.972 18.4309 275.955 4.34702 241.057 0.853141V124.71H437.082L437.57 124.161L402.096 82.5869ZM419.953 79.2014L438.887 101.411V73.3782C432.546 74.2179 426.991 76.2153 419.978 79.1743L419.953 79.2014ZM438.887 425.969V325.554H398.542C398.434 325.127 398.327 324.694 398.2 324.261C398.32 324.694 398.422 325.127 398.536 325.554H241.083V398.174C242.578 399.359 244.054 400.605 245.517 401.871C247.094 403.225 248.652 404.654 250.217 406.055L251.794 407.45C252.548 408.127 253.308 408.804 254.075 409.441C255.595 410.759 257.13 412.059 258.68 413.341C259.447 414.018 260.232 414.627 261.011 415.264C273.381 425.373 286.43 434.496 300.052 442.558C303.105 444.364 306.186 446.127 309.294 447.846C311.365 448.977 313.449 450.101 315.54 451.191C318.682 452.83 321.849 454.41 325.042 455.931C354.476 470.054 385.601 479.746 417.527 484.728C424.618 485.848 431.736 486.728 438.881 487.369V425.962H439.514L438.887 425.969ZM241.083 127.601V226.1H438.913V127.601H241.083ZM241.083 228.991V322.663H438.913V228.991H241.083ZM454.268 73.2564V104.525L478.434 76.1815C470.427 74.8002 462.372 73.8139 454.268 73.2225V73.2564ZM454.268 229.025V322.663H646.682V228.991L454.268 229.025ZM645.979 433.404L646.656 325.554H454.268V488.446C466.661 489.002 479.074 488.844 491.452 487.972H491.667C497.58 487.575 503.464 486.997 509.322 486.238H509.455C540.704 482.351 571.26 473.636 600.167 460.366L645.979 433.404ZM683.784 244.416C683.061 242.594 682.308 240.787 681.541 238.999C680.109 235.613 678.595 232.323 677.037 229.032H662.024V322.663H699.981C699.962 296.147 693.684 269.063 683.802 244.382L683.784 244.416ZM662.024 325.588V418.352C672.717 407.396 681.75 394.863 688.256 380.535C696.079 363.282 699.658 344.601 699.949 325.574L662.024 325.588ZM662.024 201.731V226.107H675.631C671.515 217.716 666.979 209.567 662.043 201.697L662.024 201.731ZM531.531 91.6331C530.53 91.2268 529.529 90.8138 528.522 90.4143C517.9 86.2212 507.044 82.7342 496.019 79.9733L459.038 123.356L458.328 124.161L458.803 124.717H590.424C572.093 111.229 552.33 100.112 531.55 91.5992L531.531 91.6331ZM594.282 127.635H456.966L454.268 130.276V226.1H477.921H477.959H646.707V179.684C631.442 159.95 613.823 142.44 594.301 127.601L594.282 127.635Z" fill="#E83C38"/>
<path opacity="0.1" d="M73.0571 177.287V226.1H8.96985C8.96985 225.816 9.01419 225.525 9.03319 225.24C9.09021 224.462 9.14722 223.683 9.21056 222.911C9.28024 222.004 9.35626 221.09 9.43861 220.202C9.52096 219.315 9.60964 218.232 9.70466 217.25C9.79968 216.269 9.88837 215.273 9.99606 214.291C10.1037 213.31 10.1988 212.328 10.3128 211.353C10.4268 210.378 10.5282 209.389 10.6485 208.414C10.7435 207.602 10.8449 206.796 10.9462 205.983C11.0919 204.839 11.244 203.688 11.4087 202.55C11.4087 202.381 11.453 202.205 11.4784 202.042C12.6345 193.715 14.2099 185.46 16.1976 177.314L73.0571 177.287Z" fill="#E83C38"/>
<path opacity="0.1" d="M8.76706 228.998H73.057V322.663H13.4737C13.3153 323.624 13.1633 324.592 12.9986 325.561H73.057V401.099C72.9493 401.065 72.8543 401.024 72.753 400.984C71.0553 400.266 69.3703 399.508 67.6853 398.695L66.6084 398.174C64.9192 397.321 63.2299 396.418 61.5407 395.465C60.9516 395.134 60.3625 394.788 59.7797 394.436C50.4018 388.821 41.8825 381.706 34.5173 373.337C34.3019 373.114 34.0992 372.877 33.8838 372.66C32.8576 371.469 31.8504 370.263 30.8749 369.031L29.798 367.677C28.6451 366.167 27.5302 364.616 26.447 363.045C26.2886 362.815 26.1366 362.585 25.9719 362.368C21.5664 355.839 17.9085 348.769 15.0763 341.31C14.9877 341.087 14.9116 340.843 14.8293 340.633C13.9593 338.241 13.1886 335.826 12.5172 333.388C12.2258 332.366 11.947 331.357 11.7063 330.294C11.6176 329.982 11.5416 329.677 11.4719 329.373C7.87388 314.361 7.44946 298.767 7.44946 283.282C7.44946 281.474 7.44946 279.659 7.44946 277.865C7.44946 271.602 7.51914 265.298 7.6205 259.001C7.6205 257.369 7.68384 255.744 7.71552 254.105C7.8042 249.948 7.93089 245.79 8.09559 241.633C8.1336 240.475 8.18428 239.324 8.24129 238.173C8.24129 237.509 8.27296 236.846 8.33631 236.182C8.48834 233.772 8.61503 231.382 8.76706 228.998Z" fill="#E83C38"/>
<path opacity="0.1" d="M136.745 141.705V226.1H88.4058V141.705H95.2978V113.131H123.588V141.705H136.745Z" fill="#E83C38"/>
<path opacity="0.1" d="M136.745 228.991H88.4122V322.656H136.745V228.991Z" fill="#E83C38"/>
<path opacity="0.1" d="M88.4058 325.561H136.745V403.428C131.043 405.179 125.232 406.499 119.357 407.376L117.912 407.565C117.203 407.653 116.5 407.728 115.803 407.802C115.106 407.877 114.384 407.931 113.681 407.978H113.459C113.155 407.978 112.826 408.019 112.528 408.026H112.205C111.825 408.026 111.445 408.066 111.065 408.08C110.526 408.114 109.988 408.12 109.437 408.127C109.202 408.127 108.981 408.127 108.746 408.127C108.201 408.127 107.663 408.127 107.118 408.127H105.921C105.598 408.127 105.288 408.127 104.952 408.127L103.729 408.08C103.096 408.08 102.412 408.005 101.753 407.958L100.537 407.863L99.0226 407.714C97.9584 407.613 96.9005 407.484 95.8553 407.328L94.5883 407.139L93.9549 407.044C92.897 406.868 91.8518 406.678 90.7876 406.462C90.0084 406.319 89.2356 406.143 88.4501 405.974L88.4058 325.561Z" fill="#E83C38"/>
<path opacity="0.1" d="M438.913 131.738H399.055V226.093H438.913V131.738Z" fill="#E83C38"/>
<path opacity="0.1" d="M438.919 228.991V322.663H241.083V282.259H346.459V306.094H399.055V228.991H438.919Z" fill="#E83C38"/>
<path opacity="0.1" d="M439.546 425.989H438.913V487.437C431.776 486.791 424.66 485.913 417.565 484.803C385.623 479.804 354.485 470.092 325.042 455.945C316.541 451.855 308.213 447.39 300.058 442.551C286.436 434.485 273.386 425.362 261.011 415.257C257.903 412.711 254.835 410.107 251.807 407.443C249.71 405.595 247.626 403.699 245.517 401.857C244.054 400.591 242.578 399.345 241.083 398.153V325.561H398.529C398.422 325.127 398.314 324.694 398.2 324.267C398.32 324.694 398.434 325.127 398.542 325.561H438.913V425.949C439.128 425.956 439.337 425.976 439.546 425.989Z" fill="#E83C38"/>
<path opacity="0.1" d="M542.864 124.71H516.892V116.084H528.535V90.3872C529.544 90.7799 530.549 91.184 531.55 91.5992V116.084H542.864V124.71Z" fill="#E83C38"/>
<path opacity="0.1" d="M605.437 226.1H477.934C477.934 226.1 477.934 226.1 477.978 226.134L477.921 226.1H454.268V131.745H460.97V201.487H491.598V160.184H516.898V127.608H542.87V160.211H568.17V201.514H605.437V226.1Z" fill="#E83C38"/>
<path opacity="0.1" d="M454.268 228.991V322.663H605.437V228.991H454.268ZM646.473 432.923L646.682 358.78H605.437V325.601H454.268V488.446C466.661 489.002 479.074 488.844 491.452 487.972H491.667C497.58 487.575 503.464 486.997 509.322 486.238H509.455C540.704 482.351 571.26 473.636 600.166 460.366" fill="#E83C38"/>
<path opacity="0.1" d="M664.71 325.561H699.975C699.664 344.581 696.092 363.262 688.275 380.515C681.769 394.849 672.729 407.382 662.049 418.331V358.746H664.71V325.561Z" fill="#E83C38"/>
<path opacity="0.1" d="M699.994 322.663H664.71V244.382H683.802C693.684 269.063 699.962 296.147 699.994 322.663Z" fill="#E83C38"/>
<path opacity="0.1" d="M438.919 157.969H417.565V187.552H438.919V157.969Z" fill="#E83C38"/>
<path opacity="0.1" d="M438.919 219.288H417.565V226.1H438.919V219.288Z" fill="#E83C38"/>
<path opacity="0.1" d="M438.919 228.991H417.565V248.864H438.919V228.991Z" fill="#E83C38"/>
<path opacity="0.1" d="M438.919 280.607H417.565V310.19H438.919V280.607Z" fill="#E83C38"/>
<path opacity="0.1" d="M438.919 341.926H417.565V371.509H438.919V341.926Z" fill="#E83C38"/>
<path opacity="0.1" d="M438.913 425.949C439.128 425.949 439.337 425.949 439.546 425.989H438.913V432.862H417.565V403.245H438.913V425.949Z" fill="#E83C38"/>
<path opacity="0.1" d="M438.913 464.551V487.403C431.776 486.758 424.66 485.88 417.565 484.769V464.551H438.913Z" fill="#E83C38"/>
<path opacity="0.1" d="M332.599 320.489H241.083V322.663H332.599V320.489Z" fill="#E83C38"/>
<path opacity="0.1" d="M332.599 325.554H241.083V333.882H332.599V325.554Z" fill="#E83C38"/>
<path opacity="0.1" d="M332.599 361.183H241.083V374.577H332.599V361.183Z" fill="#E83C38"/>
<path opacity="0.1" d="M332.593 401.878V415.271H261.011C257.903 412.734 254.833 410.129 251.801 407.457C249.704 405.608 247.626 403.712 245.511 401.878H332.593Z" fill="#E83C38"/>
<path opacity="0.1" d="M332.592 442.565V455.945H325.035C316.543 451.85 308.217 447.384 300.058 442.545L332.592 442.565Z" fill="#E83C38"/>
<path opacity="0.1" d="M509.474 238.071H491.458V257.328H509.474V238.071Z" fill="#E83C38"/>
<path opacity="0.1" d="M119.401 148.348H101.385V167.605H119.401V148.348Z" fill="#E83C38"/>
<path opacity="0.1" d="M119.401 193.078H101.385V212.335H119.401V193.078Z" fill="#E83C38"/>
<path opacity="0.1" d="M119.401 237.807H101.385V257.064H119.401V237.807Z" fill="#E83C38"/>
<path opacity="0.1" d="M119.401 282.53H101.385V301.787H119.401V282.53Z" fill="#E83C38"/>
<path opacity="0.1" d="M119.401 327.26H101.385V346.517H119.401V327.26Z" fill="#E83C38"/>
<path opacity="0.1" d="M119.401 371.99H101.385V391.247H119.401V371.99Z" fill="#E83C38"/>
<path opacity="0.1" d="M578.249 238.071H560.233V257.328H578.249V238.071Z" fill="#E83C38"/>
<path opacity="0.1" d="M509.474 285.571H491.458V304.828H509.474V285.571Z" fill="#E83C38"/>
<path opacity="0.1" d="M578.249 285.571H560.233V304.828H578.249V285.571Z" fill="#E83C38"/>
<path opacity="0.1" d="M509.474 333.063H491.458V352.32H509.474V333.063Z" fill="#E83C38"/>
<path opacity="0.1" d="M578.249 333.063H560.233V352.32H578.249V333.063Z" fill="#E83C38"/>
<path opacity="0.1" d="M509.474 380.562H491.458V399.819H509.474V380.562Z" fill="#E83C38"/>
<path opacity="0.1" d="M578.249 380.562H560.233V399.819H578.249V380.562Z" fill="#E83C38"/>
<path opacity="0.1" d="M509.474 428.061H491.458V447.318H509.474V428.061Z" fill="#E83C38"/>
<path opacity="0.1" d="M578.249 428.061H560.233V447.318H578.249V428.061Z" fill="#E83C38"/>
<path opacity="0.1" d="M491.458 487.972V475.554H509.468V486.205L491.458 487.972Z" fill="#E83C38"/>
<path opacity="0.1" d="M11.4023 202.029V213.045H73.0571V202.029H11.4023ZM17.5469 212.355H12.5172V202.706H17.5849L17.5469 212.355ZM23.6852 212.355H18.6175V202.706H23.6852V212.355ZM29.8107 212.355H24.743V202.706H29.8107V212.355ZM35.949 212.355H30.8876V202.706H35.9553L35.949 212.355ZM42.0809 212.355H37.0132V202.706H42.0809V212.355ZM48.2191 212.355H43.1514V202.706H48.2191V212.355ZM54.3574 212.355H49.2897V202.706H54.3574V212.355ZM60.4893 212.355H55.4216V202.706H60.4893V212.355ZM66.6212 212.355H61.5535V202.706H66.6212V212.355ZM72.7531 212.355H67.6854V202.706H72.7531V212.355Z" fill="#E83C38"/>
<path opacity="0.1" d="M11.4023 234.083V245.1H73.0571V234.083H11.4023ZM17.5469 244.402H12.5172V234.781H17.5849L17.5469 244.402ZM23.6852 244.402H18.6175V234.781H23.6852V244.402ZM29.8107 244.402H24.743V234.781H29.8107V244.402ZM35.949 244.402H30.8876V234.781H35.9553L35.949 244.402ZM42.0809 244.402H37.0132V234.781H42.0809V244.402ZM48.2191 244.402H43.1514V234.781H48.2191V244.402ZM54.3574 244.402H49.2897V234.781H54.3574V244.402ZM60.4893 244.402H55.4216V234.781H60.4893V244.402ZM66.6212 244.402H61.5535V234.781H66.6212V244.402ZM72.7531 244.402H67.6854V234.781H72.7531V244.402Z" fill="#E83C38"/>
<path opacity="0.1" d="M11.4023 266.151V277.188H73.0571V266.151H11.4023ZM17.5469 276.47H12.5172V266.842H17.5849L17.5469 276.47ZM23.6852 276.47H18.6175V266.842H23.6852V276.47ZM29.8107 276.47H24.743V266.842H29.8107V276.47ZM35.949 276.47H30.8876V266.842H35.9553L35.949 276.47ZM42.0809 276.47H37.0132V266.842H42.0809V276.47ZM48.2191 276.47H43.1514V266.842H48.2191V276.47ZM54.3574 276.47H49.2897V266.842H54.3574V276.47ZM60.4893 276.47H55.4216V266.842H60.4893V276.47ZM66.6212 276.47H61.5535V266.842H66.6212V276.47ZM72.7531 276.47H67.6854V266.842H72.7531V276.47Z" fill="#E83C38"/>
<path opacity="0.1" d="M11.4023 298.219V309.222H73.0571V298.219H11.4023ZM17.5469 308.538H12.5172V298.903H17.5849L17.5469 308.538ZM23.6852 308.538H18.6175V298.903H23.6852V308.538ZM29.8107 308.538H24.743V298.903H29.8107V308.538ZM35.949 308.538H30.8876V298.903H35.9553L35.949 308.538ZM42.0809 308.538H37.0132V298.903H42.0809V308.538ZM48.2191 308.538H43.1514V298.903H48.2191V308.538ZM54.3574 308.538H49.2897V298.903H54.3574V308.538ZM60.4893 308.538H55.4216V298.903H60.4893V308.538ZM66.6212 308.538H61.5535V298.903H66.6212V308.538ZM72.7531 308.538H67.6854V298.903H72.7531V308.538Z" fill="#E83C38"/>
<path opacity="0.1" d="M11.6683 330.28C11.9154 331.316 12.1941 332.352 12.4855 333.374V330.971H17.5532V340.599H14.842C14.9243 340.823 15.0067 341.066 15.089 341.276H73.0571V330.28H11.6683ZM23.7041 340.599H18.6364V330.971H23.7041V340.599ZM29.8297 340.599H24.762V330.971H29.8297V340.599ZM35.9679 340.599H30.8875V330.971H35.9552L35.9679 340.599ZM42.0998 340.599H37.0321V330.971H42.0998V340.599ZM48.238 340.599H43.1704V330.971H48.238V340.599ZM54.3763 340.599H49.3086V330.971H54.3763V340.599ZM60.5082 340.599H55.4405V330.971H60.5082V340.599ZM66.6401 340.599H61.5724V330.971H66.6401V340.599ZM72.772 340.599H67.7043V330.971H72.772V340.599Z" fill="#E83C38"/>
<path opacity="0.1" d="M25.9845 362.348C26.1429 362.565 26.2949 362.808 26.4596 363.025H29.8106V367.65C30.1717 368.11 30.5264 368.571 30.8938 369.004V362.998H35.9615V372.66H33.9091C34.1118 372.884 34.3082 373.121 34.5426 373.337H73.076V362.348H25.9845ZM42.0807 372.66H37.0131V363.039H42.0807V372.66ZM48.219 372.66H43.1513V363.039H48.219V372.66ZM54.3572 372.66H49.2895V363.039H54.3572V372.66ZM60.4891 372.66H55.4214V363.039H60.4891V372.66ZM66.621 372.66H61.5533V363.039H66.621V372.66ZM72.7529 372.66H67.6852V363.039H72.7529V372.66Z" fill="#E83C38"/>
<path opacity="0.1" d="M59.8051 394.409C60.3815 394.761 60.9706 395.086 61.5661 395.438V395.1H66.6338V398.147L67.7107 398.682V395.1H72.7784V400.957C72.8755 401.008 72.9774 401.049 73.0824 401.079V394.409H59.8051Z" fill="#E83C38"/>
<path opacity="0.1" d="M477.934 226.1H477.972H477.934ZM438.913 425.942H439.546H438.913ZM398.2 324.261C398.32 324.694 398.422 325.127 398.536 325.554C398.434 325.127 398.327 324.694 398.2 324.261ZM477.934 226.08H477.972H477.934ZM95.3232 124.69V127.581H123.62V124.69H95.3232ZM438.913 425.942H439.546H438.913ZM398.2 324.261C398.32 324.694 398.422 325.127 398.536 325.554C398.434 325.127 398.327 324.694 398.2 324.261ZM477.934 226.08H477.972H477.934ZM438.913 425.922H439.546H438.913ZM398.2 324.261C398.32 324.694 398.422 325.127 398.536 325.554C398.434 325.127 398.327 324.694 398.2 324.261Z" fill="#E83C38"/>
<path d="M292.406 257.078C292.406 257.078 289.91 256.705 289.91 252.819C289.91 248.932 288.123 241.674 288.123 241.674C288.123 241.64 286.578 229.032 284.443 227.028C282.308 225.024 279.565 213.255 279.565 213.255C279.565 213.255 279.097 206.87 278.14 205.496C277.184 204.121 275.891 200.756 273.985 195.955C272.078 191.155 264.128 187.83 264.128 187.83C264.128 187.83 249.755 178.919 245.682 176.014C245.311 175.776 244.965 175.497 244.649 175.182C243.94 174.186 240.848 174.166 240.848 174.166C240.525 171.986 240.215 169.48 240.113 167.212C240.113 166.968 240.113 166.724 240.082 166.481C244.624 163.611 248.045 159.086 249.717 153.738C249.793 153.48 249.856 153.209 249.926 152.952C250.198 152.856 250.448 152.701 250.661 152.496C250.874 152.29 251.044 152.04 251.161 151.76C251.528 150.887 251.535 149.864 251.991 149.052C252.523 148.09 253.537 147.576 254.335 146.851C256.349 145.023 256.869 141.942 256.773 139.139C256.71 136.871 256.368 134.582 256.501 132.327L256.539 131.759C256.577 131.42 256.621 131.081 256.678 130.756C256.989 129.077 257.667 127.493 258.047 125.827C258.427 124.161 258.465 122.286 257.578 120.85C256.279 118.745 253.575 118.325 251.199 118.108C248.507 117.864 246.1 118.183 244.377 115.792C243.57 114.543 242.663 113.372 241.665 112.292C241.311 111.94 237.865 109.692 237.865 109.543C234.501 107.878 230.689 107.565 227.128 108.662C225.341 109.218 223.656 110.125 221.844 110.579C217.936 111.567 213.438 110.497 210.119 112.888C208.269 114.242 207.161 116.395 206.122 118.494C205.277 120.223 204.42 121.95 203.55 123.674C202.15 126.511 200.725 129.395 200.136 132.537C200.012 133.221 199.936 133.913 199.908 134.609V134.643C199.908 134.894 199.908 135.144 199.908 135.395V135.713C199.908 135.95 199.908 136.18 199.946 136.39C199.984 136.6 199.977 136.668 199.996 136.81C200.015 136.952 200.047 137.27 200.085 137.487C200.123 137.704 200.199 138.083 200.275 138.381C200.307 138.509 200.351 138.631 200.389 138.753C200.452 138.983 200.528 139.207 200.611 139.43C200.655 139.545 200.7 139.667 200.75 139.782C200.845 140.019 200.959 140.25 201.073 140.459C201.124 140.554 201.162 140.642 201.213 140.73C201.389 141.045 201.584 141.348 201.795 141.638C203.151 143.445 205.146 144.597 206.622 146.289C206.622 146.357 206.622 146.425 206.622 146.486C206.622 146.675 206.622 146.858 206.622 147.048C206.701 150.823 207.641 154.521 209.361 157.819C211.081 161.117 213.529 163.916 216.492 165.973C216.492 166.23 216.523 166.494 216.536 166.752C216.66 168.761 216.636 170.779 216.466 172.785C216.208 172.46 215.886 172.201 215.522 172.028C215.157 171.854 214.762 171.77 214.363 171.782C214.091 171.768 213.818 171.793 213.552 171.857L213.495 171.81V171.87C212.102 172.236 210.385 173.787 208.744 178.195C208.744 178.195 203.753 184.207 199.952 183.957C196.151 183.706 186.529 190.213 186.529 190.213C186.529 190.213 177.141 196.727 175.127 203.363C174.001 207.126 172.651 210.808 171.085 214.386L159.48 239.947L157.339 260.226C157.339 260.226 158.524 269.245 158.289 270.62C158.055 271.995 163.161 284.392 163.161 284.392C163.161 284.392 180.03 316.074 186.922 317.699L187.416 317.327C187.711 317.492 188.023 317.617 188.347 317.699L189.766 316.63C189.851 317.822 189.815 319.021 189.658 320.205C188.708 323.333 190.013 343.748 191.673 347.749C193.332 351.751 192.743 404.22 192.743 404.22L192.509 408.852C192.509 408.852 192.509 409.001 192.566 409.258L192.509 410.355L192.68 410.45C192.858 411.919 192.8 413.409 192.509 414.858C191.913 416.889 191.673 422.631 191.673 422.631C191.673 422.631 186.928 455.051 189.177 461.565C191.426 468.078 193.339 475.215 193.339 475.215C193.339 475.215 195.714 483.34 193.453 484.729C191.191 486.117 184.762 488.446 186.086 491.831C187.289 494.96 191.856 503.342 192.534 504.568L192.477 505.211L191.546 515.997C191.697 517.422 192.058 518.811 192.617 520.114C193.636 522.464 195.619 524.901 199.388 524.637C200.022 524.59 200.757 524.509 201.466 524.407C208.364 523.419 216.859 520.128 216.859 520.128C216.418 519.828 216.014 519.471 215.656 519.065C215.316 518.714 215.048 518.292 214.866 517.827C214.684 517.361 214.593 516.861 214.598 516.356C214.699 514.393 211.259 505.035 210.404 502.733C210.271 502.401 210.201 502.212 210.201 502.212C210.201 502.212 218.044 493.45 216.739 485.683C216.739 485.683 208.06 480.266 210.917 477.294C213.774 474.321 218.88 465.783 218.88 465.783C218.88 465.783 219.114 433.857 218.88 429.091C218.635 425.782 218.782 422.454 219.317 419.184C219.412 418.69 219.526 418.209 219.646 417.735C223.597 418.366 227.586 418.689 231.581 418.704C233.038 418.704 234.52 418.704 236.015 418.609C236.015 419.06 236.034 419.548 236.072 420.071C236.401 427.98 237.016 441.847 237.516 447C238.226 454.387 242.147 474.294 242.147 474.294C242.147 474.294 234.666 479.427 243.452 492.075C243.452 492.075 243.452 496.659 242.869 497.323C242.247 499.492 241.746 501.699 241.368 503.931C241 506.315 240.848 508.725 241.444 509.978C242.869 512.971 251.421 512.727 251.421 512.727L251.63 512.686C253.244 512.508 254.876 512.674 256.43 513.175C257.984 513.676 259.429 514.502 260.682 515.605C263.932 518.394 276.265 517.169 282.942 516.282C285.558 515.93 287.306 515.605 287.306 515.605C287.391 515.288 287.421 514.958 287.395 514.63C287.325 512.876 286.039 509.03 277.323 505.597C277.323 505.597 269.126 499.706 269.24 494.574H269.069H268.119C268.809 494.533 269.253 494.574 269.253 494.574C269.253 494.574 266.041 482.047 267.352 481.032C268.664 480.016 264.736 466.135 264.736 466.135C264.736 466.135 262.487 442.843 262.367 441.211C262.372 439.811 262.571 438.419 262.956 437.08L262.367 424.31C262.367 424.31 262.253 420.065 262.367 418.683C262.348 417.484 262.257 416.288 262.095 415.101C262.038 414.627 261.981 414.133 261.917 413.646C264.989 412.813 266.985 412.041 266.985 412.041L266.63 367.589C269.24 362.172 269.721 350.289 269.709 341.859C269.709 336.442 269.481 332.433 269.481 332.433L273.047 326.211C273.047 326.211 273.871 318.762 272.566 317.131C271.989 316.393 272.249 315.627 272.724 314.998C272.971 314.789 273.231 314.599 273.503 314.429C273.503 314.429 273.465 314.368 273.421 314.28C273.67 314.058 273.935 313.856 274.213 313.677C274.213 313.677 272.946 311.578 274.08 310.691C275.144 311.463 276.094 312.046 276.816 312.52C276.766 313.014 276.715 313.298 276.715 313.298L277.019 312.621C277.716 313.041 278.14 313.298 278.14 313.298C278.14 313.298 283.727 301.401 283.607 299.648C283.487 297.894 287.408 290.507 287.408 290.507C287.408 290.507 287.883 286.627 290.024 285.002C292.165 283.377 291.684 271.602 291.684 271.602C291.684 271.602 292.279 265.467 293.704 262.962C295.13 260.457 292.406 257.078 292.406 257.078ZM185.503 251.857L185.61 254.694C184.977 253.604 184.521 252.819 184.521 252.819L185.503 251.857Z" fill="url(#paint0_linear)"/>
<path d="M278.444 308.159L277.076 314.388C277.076 314.388 266.117 308.409 264.141 300.812C262.164 293.215 267.447 290.331 267.447 290.331L277.659 294.955L278.444 308.159Z" fill="white"/>
<path opacity="0.1" d="M278.444 308.159L277.076 314.388C277.076 314.388 266.117 308.409 264.141 300.812C262.164 293.215 267.447 290.331 267.447 290.331L277.659 294.955L278.444 308.159Z" fill="black"/>
<path d="M216.941 520.168C216.941 520.168 206.806 524.15 199.838 524.651C196.139 524.915 194.194 522.491 193.193 520.155C192.646 518.856 192.293 517.474 192.148 516.058L193.054 505.326L193.535 499.611L208.339 495.501L210.436 502.354L210.632 502.875C211.475 505.164 214.851 514.474 214.75 516.417C214.745 516.915 214.835 517.408 215.014 517.868C215.192 518.327 215.456 518.744 215.789 519.092C216.128 519.502 216.516 519.863 216.941 520.168Z" fill="white"/>
<path d="M286.172 514.711C286.198 515.037 286.168 515.365 286.084 515.679C286.084 515.679 264.407 519.545 259.972 515.679C258.722 514.55 257.265 513.712 255.694 513.22C254.123 512.728 252.473 512.592 250.851 512.822C250.851 512.822 242.464 513.065 241.064 510.113C240.481 508.874 240.633 506.47 240.994 504.101C241.362 501.88 241.853 499.685 242.464 497.526L242.799 497.241L244.795 495.528L268.157 494.79H268.334C268.22 499.896 276.265 505.753 276.265 505.753C284.81 509.138 286.071 512.964 286.172 514.711Z" fill="white"/>
<path opacity="0.1" d="M286.173 514.711C286.195 515.037 286.163 515.365 286.078 515.679C286.078 515.679 264.407 519.545 259.973 515.679C258.723 514.551 257.267 513.713 255.697 513.221C254.127 512.729 252.479 512.593 250.857 512.822C250.857 512.822 242.464 513.065 241.07 510.113C240.487 508.867 240.633 506.47 240.994 504.101C244.225 504.446 249.324 505.306 251.326 507.357C254.354 510.479 259.485 513.594 262.633 513.837C265.097 514.007 279.838 514.508 286.173 514.711Z" fill="black"/>
<path opacity="0.1" d="M216.941 520.168C216.941 520.168 206.806 524.15 199.838 524.651C196.139 524.915 194.194 522.491 193.199 520.148C195.778 521.076 199.357 522.051 201.238 521.157C203.468 520.101 211.373 519.417 215.808 519.126C216.145 519.521 216.526 519.871 216.941 520.168Z" fill="black"/>
<path d="M231.98 199.32C223.618 195.847 212.862 184.37 215.548 179.007C216.144 177.654 216.499 176.193 216.593 174.701C216.766 172.675 216.791 170.637 216.669 168.607C216.481 165.282 216.106 161.971 215.548 158.694C215.548 158.694 241.653 159.324 240.132 163.434C239.689 164.639 239.619 166.731 239.74 169.074C239.86 171.417 240.177 174.064 240.506 176.306C240.962 179.38 241.418 181.722 241.418 181.722C241.418 181.722 239.822 184.113 238.884 184.241C237.947 184.37 243.978 204.27 231.98 199.32Z" fill="#CF6F80"/>
<path opacity="0.1" d="M210.613 502.875L210.417 503.105C202.613 493.016 193.174 505.59 193.174 505.59L193.035 505.326L193.516 499.611L208.32 495.501L210.417 502.354L210.613 502.875Z" fill="black"/>
<path opacity="0.1" d="M268.341 495.501C268.341 495.501 262.639 495.373 259.599 498.244C256.558 501.115 241.862 498.867 242.495 498.244C242.683 497.935 242.796 497.581 242.825 497.214L244.82 495.501L268.182 494.763C268.271 495.217 268.341 495.501 268.341 495.501Z" fill="black"/>
<path d="M220.324 416.273C219.9 417.395 219.577 418.558 219.361 419.746C218.833 423 218.686 426.312 218.924 429.605C219.159 434.345 218.924 466.108 218.924 466.108C218.924 466.108 213.914 474.579 211.12 477.565C208.326 480.551 216.821 485.913 216.821 485.913C218.088 493.632 210.411 502.354 210.411 502.354C202.606 492.265 193.168 504.845 193.168 504.845C193.168 504.845 188.037 495.366 186.757 491.98C185.477 488.595 191.768 486.252 193.979 484.877C196.189 483.503 193.871 475.398 193.871 475.398C193.871 475.398 192.002 468.295 189.785 461.815C187.568 455.335 192.23 423.078 192.23 423.078C192.23 423.078 192.471 417.349 193.047 415.352C193.338 413.911 193.396 412.427 193.218 410.964C193.18 410.47 193.136 410.057 193.104 409.779C193.073 409.502 193.047 409.373 193.047 409.373L193.136 409.211L196.303 402.9C196.303 402.9 221.844 412.298 220.324 416.273Z" fill="#E83C38"/>
<path d="M268.34 494.757C268.34 494.757 262.639 494.628 259.599 497.465C256.558 500.302 241.862 498.088 242.495 497.465C243.129 496.842 243.078 492.231 243.078 492.231C234.457 479.65 241.811 474.545 241.811 474.545C241.811 474.545 237.96 454.739 237.263 447.393C236.775 442.26 236.173 428.468 235.85 420.593C235.711 417.207 235.629 414.878 235.629 414.878L242.673 413.361L243.578 413.165L260.568 409.522C260.568 409.522 261.037 412.908 261.353 415.677C261.511 416.859 261.6 418.051 261.619 419.245C261.505 420.6 261.619 424.838 261.619 424.838L262.196 437.548C261.819 438.881 261.625 440.265 261.619 441.658C261.733 443.276 263.944 466.447 263.944 466.447C263.944 466.447 267.789 480.273 266.478 481.269C265.167 482.264 268.34 494.757 268.34 494.757Z" fill="#E83C38"/>
<path opacity="0.1" d="M240.132 163.434C239.689 164.639 239.619 166.731 239.74 169.074C236.243 171.325 232.223 172.475 228.142 172.394C224.061 172.313 220.085 171.002 216.669 168.614C216.481 165.286 216.107 161.974 215.548 158.694C215.548 158.694 241.653 159.31 240.132 163.434Z" fill="black"/>
<path d="M250.224 148.47C250.229 150.91 249.869 153.335 249.159 155.654C247.572 160.85 244.318 165.279 239.971 168.158C235.625 171.037 230.466 172.181 225.407 171.388C220.347 170.594 215.713 167.915 212.323 163.823C208.934 159.73 207.006 154.489 206.882 149.025C206.882 148.835 206.882 148.659 206.882 148.47C206.833 145.394 207.357 142.339 208.424 139.482C209.491 136.625 211.08 134.024 213.098 131.83C215.115 129.636 217.521 127.894 220.175 126.705C222.829 125.515 225.678 124.903 228.556 124.903C231.434 124.903 234.283 125.515 236.937 126.705C239.591 127.894 241.997 129.636 244.014 131.83C246.032 134.024 247.621 136.625 248.688 139.482C249.755 142.339 250.279 145.394 250.23 148.47H250.224Z" fill="#CF6F80"/>
<path opacity="0.1" d="M231.98 199.32C223.618 195.847 212.862 184.37 215.548 179.007C216.144 177.654 216.499 176.193 216.593 174.701L228.04 184.756L235.122 190.965L240.506 176.312C240.962 179.386 241.418 181.729 241.418 181.729C241.418 181.729 239.822 184.119 238.884 184.248C237.947 184.377 243.978 204.27 231.98 199.32Z" fill="black"/>
<path d="M261.581 243.759L252.022 415.406L239.556 416.28L207.275 316.751L212.571 198.589L213.685 173.624L228.04 186.225L235.128 192.434L240.671 177.355L250.977 186.956L261.581 243.759Z" fill="#E83C38"/>
<path opacity="0.1" d="M220.324 416.273C219.9 417.395 219.577 418.558 219.361 419.746C210.29 418.249 201.48 415.307 193.225 411.018L193.054 410.924L193.111 409.834L193.142 409.265L196.31 402.954C196.31 402.954 221.844 412.298 220.324 416.273Z" fill="black"/>
<path opacity="0.1" d="M242.818 419.773C240.499 420.195 238.161 420.48 235.812 420.627C235.673 417.241 235.591 414.912 235.591 414.912L242.635 413.395L242.818 419.773Z" fill="black"/>
<path opacity="0.1" d="M261.315 415.711C256.812 416.964 249.856 418.372 243.629 417.492L243.541 413.199L260.53 409.556C260.53 409.556 260.999 412.908 261.315 415.711Z" fill="black"/>
<path opacity="0.1" d="M243.515 418.277C217.543 423.017 193.757 409.427 193.757 409.427L193.985 404.823C193.985 404.823 194.574 352.625 192.94 348.623C191.305 344.621 190.032 324.328 190.957 321.214C191.882 318.099 187.581 271.392 187.581 271.392L186.884 252.433L161.381 241.389L172.783 215.984C174.323 212.422 175.648 208.758 176.748 205.015C178.731 198.42 187.935 191.94 187.935 191.94C187.935 191.94 197.374 185.467 201.105 185.711C204.836 185.954 209.726 179.982 209.726 179.982C213.337 170.144 216.606 174.599 216.606 174.599C216.606 175.066 216.606 174.599 216.428 176.055C215.161 186.855 236.915 220.981 237.225 221.584L239.296 275.522L241.393 343.782L243.515 418.277Z" fill="black"/>
<path d="M242.818 418.277C216.846 423.017 193.054 409.427 193.054 409.427L193.288 404.823C193.288 404.823 193.877 352.625 192.236 348.623C190.596 344.621 189.329 324.328 190.26 321.214C191.191 318.099 186.884 271.392 186.884 271.392L186.181 252.433L160.665 241.349L172.067 215.943C173.604 212.38 174.928 208.716 176.033 204.974C178.009 198.379 187.219 191.899 187.219 191.899C187.219 191.899 196.658 185.426 200.383 185.67C204.108 185.914 209.004 179.942 209.004 179.942C212.621 170.103 216.606 174.559 216.606 174.559C216.606 175.026 216.226 175.236 216.428 176.014C219.216 186.489 236.218 220.941 236.528 221.543L238.625 275.482L240.722 343.741L242.818 418.277Z" fill="white"/>
<path opacity="0.1" d="M235.819 223.08C233.025 221.834 218.227 203.776 218.227 203.776V199.666C217.689 198.312 214.49 199.138 211.893 200.086L213.008 175.121L214.275 176.245C217.049 186.713 235.496 222.478 235.819 223.08Z" fill="black"/>
<path d="M236.522 221.584C233.722 220.338 218.924 202.279 218.924 202.279V198.169C218.386 196.815 215.187 197.641 212.59 198.589L213.711 173.624L214.978 174.748C217.759 185.216 236.211 220.988 236.522 221.584Z" fill="white"/>
<path opacity="0.1" d="M193.757 311.646C194.105 311.646 211.817 309.655 211.817 309.655C211.817 309.655 222.541 332.196 221.838 337.681C221.135 343.165 219.862 348.02 215.548 347.16C211.234 346.3 192.331 347.837 192.331 347.837L193.757 311.646Z" fill="black"/>
<path d="M193.054 310.15C193.402 310.15 211.114 308.159 211.114 308.159C211.114 308.159 221.832 330.707 221.135 336.184C220.438 341.662 219.152 346.524 214.845 345.664C210.537 344.804 191.628 346.341 191.628 346.341L193.054 310.15Z" fill="white"/>
<path d="M206.401 299.566C206.401 299.566 222.655 308.904 223.004 311.754C223.352 314.605 214.731 310.508 212.868 310.014C211.643 309.698 210.395 309.49 209.137 309.391L196.715 309.75L206.401 299.566Z" fill="#CF6F80"/>
<path opacity="0.1" d="M231.283 224.245C232.228 224.245 232.993 223.426 232.993 222.417C232.993 221.407 232.228 220.588 231.283 220.588C230.338 220.588 229.573 221.407 229.573 222.417C229.573 223.426 230.338 224.245 231.283 224.245Z" fill="black"/>
<path d="M231.283 223.5C232.228 223.5 232.993 222.682 232.993 221.672C232.993 220.662 232.228 219.844 231.283 219.844C230.338 219.844 229.573 220.662 229.573 221.672C229.573 222.682 230.338 223.5 231.283 223.5Z" fill="#3F3D56"/>
<path opacity="0.1" d="M234.431 303.385C235.376 303.385 236.142 302.567 236.142 301.557C236.142 300.547 235.376 299.729 234.431 299.729C233.487 299.729 232.721 300.547 232.721 301.557C232.721 302.567 233.487 303.385 234.431 303.385Z" fill="black"/>
<path d="M234.431 302.634C235.376 302.634 236.142 301.815 236.142 300.806C236.142 299.796 235.376 298.977 234.431 298.977C233.487 298.977 232.721 299.796 232.721 300.806C232.721 301.815 233.487 302.634 234.431 302.634Z" fill="#3F3D56"/>
<path opacity="0.1" d="M232.987 263.815C233.932 263.815 234.697 262.997 234.697 261.987C234.697 260.977 233.932 260.159 232.987 260.159C232.042 260.159 231.277 260.977 231.277 261.987C231.277 262.997 232.042 263.815 232.987 263.815Z" fill="black"/>
<path d="M232.987 263.07C233.932 263.07 234.697 262.252 234.697 261.242C234.697 260.232 233.932 259.414 232.987 259.414C232.042 259.414 231.277 260.232 231.277 261.242C231.277 262.252 232.042 263.07 232.987 263.07Z" fill="#3F3D56"/>
<path d="M272.414 309.012C272.414 309.012 273.579 310.881 272.414 311.754C271.248 312.628 272.528 314.74 272.528 314.74C272.528 314.74 269.62 316.562 270.9 318.2C272.179 319.839 271.368 327.24 271.368 327.24L267.872 333.429C267.872 333.429 268.081 337.417 268.093 342.807C268.093 351.216 267.631 363.039 265.072 368.428L265.427 412.65C265.427 412.65 253.182 417.431 242.932 415.975L241.412 345.014C241.412 345.014 243.629 304.773 244.446 297.054C244.925 293.047 245.119 289.007 245.029 284.968C245.029 284.968 244.681 272.888 243.509 267.282C243.509 267.282 242.242 242.994 242.115 236.27C242.058 233.054 242.217 223.669 242.394 214.745C242.59 204.988 242.812 195.786 242.812 195.786L240.5 176.231C240.5 176.231 242.812 175.981 243.509 176.976C243.821 177.288 244.16 177.566 244.522 177.809C248.513 180.693 262.614 189.563 262.614 189.563C262.614 189.563 270.418 192.881 272.287 197.634C274.156 202.388 275.454 205.76 276.36 207.114C277.266 208.468 277.76 214.833 277.76 214.833C277.76 214.833 280.446 226.547 282.543 228.531C284.639 230.515 286.172 243.136 286.172 243.136L267.644 258.71C267.644 258.71 266.016 284.616 265.667 285.618C265.319 286.62 272.414 309.012 272.414 309.012Z" fill="white"/>
<path d="M273.117 309.012C273.117 309.012 274.276 310.881 273.117 311.754C271.958 312.628 273.225 314.74 273.225 314.74C273.225 314.74 270.336 316.582 271.603 318.221C272.87 319.859 272.072 327.26 272.072 327.26L268.575 333.449C268.575 333.449 268.784 337.437 268.803 342.827C268.803 351.237 268.341 363.059 265.781 368.449L266.13 412.671C266.13 412.671 253.866 417.451 243.629 415.995L242.115 345.034C242.115 345.034 244.332 304.794 245.15 297.075C245.628 293.067 245.821 289.027 245.726 284.988C245.726 284.988 245.378 272.909 244.212 267.302C244.212 267.302 242.945 243.014 242.812 236.291C242.755 233.074 242.92 223.69 243.091 214.765C243.287 205.008 243.509 195.806 243.509 195.806L240.456 175.987C240.456 175.987 243.509 175.987 244.212 176.996C244.521 177.312 244.861 177.591 245.226 177.829C249.216 180.714 263.324 189.584 263.324 189.584C263.324 189.584 271.121 192.901 272.99 197.655C274.859 202.408 276.157 205.78 277.07 207.134C277.982 208.489 278.463 214.853 278.463 214.853C278.463 214.853 281.149 226.567 283.246 228.551C285.343 230.535 286.857 243.129 286.857 243.129L268.328 258.703C268.328 258.703 266.7 284.609 266.345 285.611C265.99 286.613 273.117 309.012 273.117 309.012Z" fill="white"/>
<path opacity="0.1" d="M250.927 201.555L252.599 206.769L243.794 216.248C243.99 206.498 244.212 197.289 244.212 197.289L241.159 177.47C241.159 177.47 244.212 177.47 244.915 178.479C245.223 178.794 245.563 179.071 245.929 179.305L253.416 202.395L250.927 201.555Z" fill="black"/>
<path d="M250.224 200.059L251.902 205.272L243.097 214.752C243.293 204.995 243.515 195.793 243.515 195.793L240.456 175.974C240.456 175.974 243.515 175.974 244.212 176.983C244.523 177.296 244.862 177.575 245.226 177.815L252.719 200.898L250.224 200.059Z" fill="white"/>
<path opacity="0.1" d="M250.224 148.47C250.229 150.91 249.869 153.335 249.159 155.654C249.04 155.674 248.917 155.668 248.8 155.636C248.682 155.605 248.572 155.549 248.475 155.471C248.31 149.377 245.504 143.655 242.052 138.787C241.083 137.317 239.907 136.015 238.568 134.927C237.213 133.84 235.529 133.331 233.842 133.499C231.942 133.776 230.263 135.158 228.344 135.334C225.81 135.557 223.542 133.682 221.027 133.587C220.005 133.597 218.996 133.84 218.069 134.301C217.142 134.761 216.317 135.427 215.649 136.255C214.328 137.925 213.346 139.871 212.767 141.969C211.771 145.151 211.229 148.474 211.158 151.828C211.126 153.724 210.955 156.101 209.308 156.791C209.432 155.397 209.284 153.99 208.873 152.66C208.462 151.331 207.797 150.106 206.92 149.065L206.882 149.025C206.882 148.835 206.882 148.659 206.882 148.47C206.833 145.394 207.357 142.339 208.424 139.482C209.491 136.625 211.08 134.024 213.098 131.83C215.115 129.636 217.521 127.894 220.175 126.705C222.829 125.515 225.678 124.903 228.556 124.903C231.434 124.903 234.283 125.515 236.937 126.705C239.591 127.894 241.997 129.636 244.014 131.83C246.032 134.024 247.621 136.625 248.688 139.482C249.755 142.339 250.279 145.394 250.23 148.47H250.224Z" fill="black"/>
<path d="M237.529 111.682C234.237 110.027 230.493 109.714 227.001 110.802C225.246 111.357 223.593 112.258 221.813 112.711C218.012 113.693 213.578 112.63 210.315 115.007C208.504 116.361 207.414 118.501 206.401 120.58L203.867 125.739C202.486 128.563 201.092 131.434 200.516 134.541C199.939 137.649 200.288 141.13 202.131 143.628C203.474 145.45 205.457 146.594 206.914 148.307C207.787 149.349 208.449 150.573 208.859 151.901C209.268 153.229 209.417 154.634 209.296 156.026C210.949 155.349 211.107 152.966 211.145 151.07C211.216 147.716 211.758 144.392 212.754 141.211C213.332 139.112 214.314 137.166 215.637 135.496C216.304 134.669 217.13 134.003 218.057 133.543C218.984 133.083 219.992 132.84 221.015 132.828C223.548 132.923 225.823 134.792 228.331 134.569C230.231 134.399 231.916 133.011 233.83 132.74C235.516 132.57 237.202 133.079 238.555 134.169C239.894 135.255 241.068 136.557 242.033 138.029C245.492 142.897 248.298 148.605 248.462 154.713C249.178 155.275 250.211 154.543 250.566 153.677C250.92 152.81 250.933 151.794 251.383 150.968C251.902 150.013 252.897 149.506 253.676 148.788C255.652 146.966 256.146 143.899 256.07 141.116C255.994 138.333 255.488 135.51 255.982 132.774C256.279 131.095 256.951 129.524 257.318 127.865C257.686 126.206 257.73 124.344 256.862 122.916C255.595 120.816 252.928 120.403 250.604 120.207C247.962 119.963 245.599 120.275 243.914 117.898C243.123 116.658 242.233 115.493 241.254 114.418C240.918 114.066 237.529 111.831 237.529 111.682Z" fill="#512E4E"/>
<path opacity="0.1" d="M168.678 254.471L162.058 241.389L159.962 261.574C159.962 261.574 161.127 270.539 160.893 271.913C160.658 273.288 165.669 285.611 165.669 285.611C165.669 285.611 182.221 317.124 188.981 318.749L211.817 301.307L205.761 293.087C205.761 293.087 203.664 292.213 203.138 293.087C203.138 293.087 191.894 272.408 190.729 270.911C189.563 269.415 189.791 266.429 189.791 266.429C189.791 266.429 188.043 264.438 188.626 262.569C189.209 260.7 185.249 254.22 185.249 254.22L188.86 250.611L168.678 254.471Z" fill="black"/>
<path d="M162.407 239.9L160.658 241.389L158.562 261.574C158.562 261.574 159.727 270.539 159.493 271.913C159.258 273.288 164.275 285.611 164.275 285.611C164.275 285.611 180.821 317.124 187.581 318.749L210.423 301.307L204.361 293.086C204.361 293.086 202.264 292.213 201.738 293.086C201.738 293.086 190.494 272.408 189.329 270.911C188.163 269.415 188.398 266.429 188.398 266.429C188.398 266.429 186.649 264.438 187.232 262.569C187.815 260.7 183.849 254.22 183.849 254.22L187.46 250.611L162.407 239.9Z" fill="white"/>
<path opacity="0.1" d="M270.9 318.972C272.167 320.618 271.368 328.005 271.368 328.005L267.872 334.194C267.872 334.194 268.081 338.189 268.093 343.572L262.215 345.535C261.684 345.713 261.12 345.752 260.572 345.649C260.024 345.546 259.507 345.305 259.063 344.945C258.62 344.585 258.264 344.118 258.024 343.581C257.785 343.044 257.669 342.453 257.686 341.859L258.699 306.913L272.414 312.519C271.248 313.386 272.528 315.512 272.528 315.512C272.528 315.512 269.62 317.327 270.9 318.972Z" fill="black"/>
<path d="M271.603 318.221C272.87 319.866 272.072 327.26 272.072 327.26L268.575 333.449C268.575 333.449 268.784 337.437 268.803 342.827L262.817 344.824C262.296 344.997 261.745 345.035 261.208 344.934C260.672 344.833 260.166 344.596 259.732 344.244C259.298 343.891 258.949 343.433 258.715 342.908C258.48 342.382 258.366 341.804 258.382 341.222L259.402 306.168L273.123 311.775C271.951 312.641 273.231 314.761 273.231 314.761C273.231 314.761 270.336 316.582 271.603 318.221Z" fill="white"/>
<path d="M276.145 301.564C276.145 301.564 275.214 307.922 272.882 308.294C270.551 308.667 269.506 318.58 267.181 318.228C264.856 317.875 266.396 309.012 266.478 307.292C266.56 305.572 263.944 298.449 265.902 296.831C267.859 295.213 274.054 296.831 274.054 296.831L276.145 301.564Z" fill="#CF6F80"/>
<path opacity="0.1" d="M281.105 252.602L285.501 243.123C285.501 243.123 287.249 250.347 287.249 254.207C287.249 258.066 289.694 258.446 289.694 258.446C289.694 258.446 292.374 261.831 290.961 264.296C289.549 266.76 288.979 272.895 288.979 272.895C288.979 272.895 289.441 284.602 287.344 286.221C285.248 287.839 284.811 291.705 284.811 291.705C284.811 291.705 280.959 299.052 281.079 300.799C281.2 302.546 275.72 314.375 275.72 314.375C275.72 314.375 278.4 299.675 262.785 293.323C262.785 293.323 262.665 288.333 263.83 286.965C264.996 285.598 266.814 284.975 265.674 278.061C264.533 271.148 265.344 262.887 265.344 261.229C265.344 259.57 268.841 249.223 268.841 249.223L281.105 252.602Z" fill="black"/>
<path d="M283.005 241.768L286.844 243.123C286.844 243.123 288.599 250.347 288.599 254.207C288.599 258.066 291.044 258.446 291.044 258.446C291.044 258.446 293.723 261.831 292.311 264.296C290.898 266.76 290.334 272.895 290.334 272.895C290.334 272.895 290.797 284.602 288.7 286.221C286.603 287.839 286.134 291.705 286.134 291.705C286.134 291.705 282.289 299.052 282.41 300.799C282.53 302.546 277.044 314.375 277.044 314.375C277.044 314.375 279.73 299.675 264.109 293.323C264.109 293.323 263.995 288.333 265.161 286.965C266.326 285.598 268.144 284.975 267.004 278.061C265.864 271.148 266.675 262.887 266.675 261.229C266.675 259.57 270.171 249.223 270.171 249.223L283.005 241.768Z" fill="white"/>
<path opacity="0.1" d="M198.216 487.471C198.216 487.471 204.336 483.361 208.352 486.347C212.368 489.333 198.216 487.471 198.216 487.471Z" fill="black"/>
<path opacity="0.1" d="M245.764 474.761C245.764 474.761 251.18 474.017 255.728 479.251C260.277 484.485 245.764 474.761 245.764 474.761Z" fill="black"/>
<g opacity="0.1">
<path opacity="0.1" d="M253.689 147.305C252.909 148.023 251.909 148.537 251.389 149.492C250.946 150.311 250.933 151.32 250.578 152.2C250.223 153.081 249.191 153.798 248.475 153.243C248.31 147.149 245.498 141.428 242.046 136.552C241.08 135.081 239.907 133.779 238.568 132.693C237.212 131.603 235.525 131.094 233.836 131.264C231.935 131.542 230.263 132.923 228.344 133.092C225.81 133.323 223.536 131.447 221.021 131.352C219.999 131.363 218.991 131.607 218.065 132.069C217.138 132.53 216.315 133.198 215.649 134.027C214.327 135.694 213.345 137.638 212.767 139.735C211.772 142.916 211.229 146.24 211.158 149.594C211.12 151.483 210.955 153.839 209.321 154.543C209.359 155.044 209.359 155.546 209.321 156.046C210.968 155.369 211.133 152.986 211.171 151.09C211.241 147.736 211.784 144.413 212.78 141.231C213.358 139.133 214.339 137.186 215.662 135.516C216.329 134.689 217.153 134.024 218.079 133.564C219.005 133.104 220.012 132.86 221.034 132.849C223.567 132.943 225.848 134.812 228.356 134.589C230.257 134.42 231.942 133.032 233.849 132.761C235.537 132.59 237.225 133.1 238.58 134.189C239.92 135.276 241.093 136.578 242.058 138.049C245.511 142.917 248.323 148.625 248.488 154.733C249.204 155.295 250.236 154.564 250.591 153.697C250.946 152.83 250.958 151.815 251.402 150.988C251.921 150.034 252.922 149.526 253.701 148.808C255.678 146.987 256.172 143.919 256.096 141.137C256.096 141.048 256.096 140.96 256.096 140.879C255.975 143.29 255.374 145.748 253.689 147.305Z" fill="black"/>
<path opacity="0.1" d="M206.926 146.824C205.47 145.111 203.48 143.967 202.144 142.152C201.018 140.546 200.376 138.612 200.3 136.607C200.101 139.113 200.756 141.611 202.144 143.642C203.48 145.463 205.47 146.608 206.926 148.321C208.325 149.996 209.165 152.12 209.315 154.36C209.412 152.997 209.25 151.627 208.84 150.332C208.429 149.037 207.779 147.844 206.926 146.824Z" fill="black"/>
<path opacity="0.1" d="M257.331 126.382C256.957 128.041 256.292 129.619 255.988 131.291C255.808 132.409 255.742 133.544 255.792 134.677C255.813 134.032 255.878 133.389 255.988 132.754C256.292 131.075 256.957 129.504 257.331 127.845C257.549 126.93 257.619 125.982 257.54 125.042C257.501 125.493 257.431 125.941 257.331 126.382Z" fill="black"/>
</g>
<path opacity="0.1" d="M84.0793 515.002C118.169 515.002 145.804 510.258 145.804 504.405C145.804 498.553 118.169 493.809 84.0793 493.809C49.9898 493.809 22.3549 498.553 22.3549 504.405C22.3549 510.258 49.9898 515.002 84.0793 515.002Z" fill="#E83C38"/>
<path d="M86.0684 301.408H82.0966V396.996H86.0684V301.408Z" fill="#535461"/>
<path d="M111.027 396.704L110.78 401.011L110.425 407.105L110.279 409.637L109.931 415.731L109.779 418.264L109.424 424.358L105.421 493.47C105.247 496.444 104.019 499.235 101.988 501.275C99.9567 503.315 97.2744 504.452 94.4871 504.453H73.6715C70.8848 504.452 68.2033 503.315 66.1732 501.274C64.143 499.234 62.9168 496.443 62.7443 493.47L58.7599 424.31L58.4051 418.216L58.2594 415.684L57.9047 409.59L57.759 407.057L57.4043 400.963L57.1509 396.657C57.1069 395.828 57.2218 394.998 57.4885 394.219C57.7552 393.439 58.1682 392.726 58.702 392.123C59.2359 391.52 59.8794 391.04 60.593 390.712C61.3066 390.385 62.0754 390.216 62.852 390.218H105.427C106.201 390.225 106.965 390.401 107.672 390.736C108.38 391.071 109.015 391.558 109.54 392.166C110.065 392.774 110.467 393.49 110.723 394.271C110.979 395.051 111.082 395.879 111.027 396.704Z" fill="#3F3D56"/>
<path d="M110.78 401.011L110.425 407.084H57.7336L57.3789 401.011H110.78Z" fill="#9D9CB5"/>
<path d="M110.279 409.617L109.931 415.697H58.2341L57.8794 409.617H110.279Z" fill="#9D9CB5"/>
<path d="M109.779 418.236L109.43 424.31H58.7345L58.3798 418.236H109.779Z" fill="#9D9CB5"/>
<path d="M51.3163 337.234C74.4439 355.123 84.0979 383.101 84.0979 383.101C84.0979 383.101 56.2256 382.079 33.0916 364.19C9.95758 346.3 0.322632 318.329 0.322632 318.329C0.322632 318.329 28.1823 319.345 51.3163 337.234Z" fill="#E83C38"/>
<path d="M0.303711 318.329C0.303711 318.329 29.2402 335.494 38.5204 349.706C47.8006 363.919 84.098 383.101 84.098 383.101" stroke="#535461" stroke-width="2" stroke-miterlimit="10"/>
<path d="M66.2474 301.198C78.8343 310.928 84.0984 326.156 84.0984 326.156C84.0984 326.156 68.927 325.601 56.3337 315.871C43.7405 306.141 38.4891 290.906 38.4891 290.906C38.4891 290.906 53.6542 291.461 66.2474 301.198Z" fill="#E83C38"/>
<path d="M38.4891 290.906C38.4891 290.906 54.237 300.25 59.2857 307.983C64.3344 315.715 84.0984 326.156 84.0984 326.156" stroke="#535461" stroke-width="2" stroke-miterlimit="10"/>
<path d="M102.374 325.385C87.9118 342.373 84.8522 364.576 84.8522 364.576C84.8522 364.576 105.243 359.226 119.693 342.231C134.142 325.236 137.214 303.04 137.214 303.04C137.214 303.04 116.836 308.396 102.374 325.385Z" fill="#E83C38"/>
<path d="M137.227 303.047C137.227 303.047 118.388 320.462 113.599 332.46C108.81 344.459 84.8522 364.576 84.8522 364.576" stroke="#535461" stroke-width="2" stroke-miterlimit="10"/>
<path d="M633.252 319.406C633.252 319.406 622.794 263.788 626.797 256.868C626.797 256.868 626.943 250.435 626.702 242.236C626.702 241.924 626.702 241.613 626.702 241.294C627.406 241.796 628.141 242.249 628.9 242.649C632.589 244.674 636.824 245.259 640.873 244.301L637.705 240.529C636.945 239.629 636.153 238.654 635.989 237.462C635.824 236.27 636.28 235.207 636.673 234.144C639.682 226.019 639.84 215.801 634.044 209.599C629.147 204.385 627.956 197.655 622.642 192.895C618.759 189.408 616.624 184.295 614.609 179.353C612.905 175.175 611.189 170.963 610.213 166.535C609.453 163.075 609.149 159.493 608.104 156.114C607.059 152.735 605.101 149.451 602.042 147.941C600.952 147.407 599.742 147.102 598.747 146.391C597.443 145.45 596.657 143.919 595.713 142.579C590.918 135.808 574.86 139.796 567.258 142.545C565.192 143.237 563.278 144.371 561.633 145.876L561.703 145.754C561.76 145.653 561.829 145.551 561.893 145.45C561.061 146.169 560.342 147.026 559.764 147.989C558.656 149.864 558.193 152.052 557.268 154.083C556.154 156.487 549.952 163.197 552.619 165.898C552.806 166.08 553.02 166.226 553.252 166.332C554.253 166.777 555.356 166.895 556.42 166.67L556.306 166.961C555.395 169.345 554.928 171.896 554.931 174.471C554.931 185.595 563.514 194.615 574.112 194.615C576.105 194.617 578.085 194.29 579.984 193.646C580.029 193.904 580.067 194.161 580.111 194.418C580.111 194.52 580.143 194.621 580.155 194.723L579.82 195.224C579.803 195.193 579.784 195.164 579.763 195.136L569.817 209.992C568.297 211.136 559.543 217.907 559.049 222.985C558.529 228.544 558.01 235.051 558.01 235.051L557.94 236.446C557.505 236.835 556.997 237.117 556.45 237.275C555.903 237.433 555.331 237.462 554.773 237.36C551.669 236.819 551.669 249.548 551.669 249.548C551.669 249.548 549.604 251.58 548.185 249.819C546.766 248.059 543.016 254.024 543.016 254.024L519.514 255.107L518.976 255.141L517.709 250.95C517.572 250.508 517.278 250.141 516.891 249.929C516.503 249.718 516.052 249.678 515.637 249.819C515.539 249.854 515.444 249.897 515.352 249.948L515.264 250.002L515.099 250.124L515.017 250.205C514.971 250.249 514.929 250.297 514.89 250.347L514.814 250.442L514.776 250.483C514.63 250.699 514.533 250.949 514.493 251.212C514.454 251.476 514.472 251.745 514.548 252L515.637 255.595C511.102 256.57 506.465 259.319 510.247 266.889L491.078 263.104L497.28 268.67L529.295 275.732C528.87 276.545 529.149 277.723 530.473 279.382C536.174 286.539 546.563 288.482 550.744 288.983C551.848 291.623 553.227 294.122 554.855 296.431L554.494 303.561C554.494 303.561 543.909 357.906 541.97 360.662C542.949 359.477 543.845 358.216 544.65 356.89C541.578 368.056 537.283 383.338 536.155 385.627C534.344 389.283 532.665 404.078 534.73 405.026C535.363 405.317 537.175 405.175 539.76 404.965V406.191L539.646 452.634C539.646 452.634 540.165 481.12 538.74 483.835C537.314 486.55 536.934 492.244 536.934 492.244C536.934 492.244 531.233 503.478 526.717 507.994C526.686 508.029 526.652 508.061 526.615 508.089L526.476 507.032C526.476 507.032 521.047 514.359 509.037 513.946C509.037 513.946 501.809 518.97 512.527 519.241C523.245 519.512 536.934 518.834 536.934 518.834C536.934 518.834 546.493 503.261 554.5 505.292V517.094H556.952V505.103C558.089 504.303 559.062 503.264 559.812 502.05C560.562 500.836 561.074 499.472 561.316 498.04C561.526 496.565 561.372 495.056 560.87 493.663C560.368 492.27 559.535 491.042 558.453 490.098C557.967 489.628 557.577 489.056 557.308 488.418C557.038 487.779 556.896 487.088 556.888 486.387L556.8 486.469C556.8 486.232 556.743 485.988 556.717 485.737C556.014 479.643 555.134 467.07 558.244 457.766C562.507 445.009 563.799 427.242 560.695 416.666C559.694 413.285 558.871 409.846 558.231 406.367C558.155 405.927 558.086 405.507 558.022 405.114C560.144 405.421 562.245 405.873 564.313 406.468C571.502 408.588 587.231 408.98 600.661 408.865C600.692 409.258 600.73 409.671 600.775 410.084C601.014 412.955 601.515 415.794 602.27 418.561C603.955 423.978 604.727 447.86 604.727 447.86C604.727 447.86 606.9 467.496 605.716 475.486C605.082 479.928 604.449 484.39 604.088 488.872V488.96C604.088 488.96 600.528 499.794 597.924 505.678C597.861 505.827 597.791 505.976 597.728 506.118C597.034 506.186 596.35 506.348 595.694 506.599C595.694 506.599 592.204 514.047 588.726 515.28C585.248 516.512 586.401 520.568 594.275 519.078C602.149 517.589 614.039 516.37 614.039 516.37L614.552 508.773L616.972 505.536L616.339 513.113L618.917 512.571L618.575 503.356L622.534 498.061C622.534 498.061 627.317 493.511 620.209 484.559V484.756C620.133 484.627 620.063 484.492 619.981 484.363V484.322C618.803 482.372 617.865 478.736 619.582 472.283C622.686 460.623 624.491 450.04 624.491 450.04C624.491 450.04 631.421 421.69 623.091 408.276H623.459C622.605 406.389 622.002 404.383 621.666 402.318C621.624 402.074 621.586 401.823 621.552 401.566C627.716 401.187 633.765 399.995 638.7 397.422C638.681 397.395 635.71 330.118 633.252 319.406ZM555.001 272.482V272.617L553.734 272.685L555.001 272.482ZM550.655 273.125C550.447 273.175 550.252 273.274 550.085 273.416C549.54 274.24 549.198 275.197 549.09 276.199L547.114 275.725C547.114 275.725 545.727 275.407 543.731 275.048L542.788 274.033C545.385 273.802 548.083 273.464 550.655 273.125Z" fill="url(#paint1_linear)"/>
<path d="M616.047 503.451L615.294 513.045L617.821 512.504L617.441 502.096L616.047 503.451Z" fill="#E83C38"/>
<path d="M558.383 457.895C555.336 467.171 556.198 479.691 556.882 485.771C557.135 488.019 557.37 489.387 557.37 489.387C557.37 489.387 552.815 500.478 552.435 500.898C552.055 501.318 539.031 509.815 539.031 509.815L529.928 515.496C529.928 515.496 520.692 511.17 525.12 509.68C526.025 509.292 526.84 508.698 527.508 507.94C531.943 503.437 537.511 492.244 537.511 492.244C537.511 492.244 537.891 486.564 539.285 483.862C540.678 481.16 540.171 452.769 540.171 452.769L540.279 406.489V400.456L557.604 400.591C557.713 402.639 557.963 404.676 558.352 406.685C558.974 410.153 559.779 413.58 560.765 416.95C563.818 427.506 562.552 445.185 558.383 457.895Z" fill="#FFB0B1"/>
<path opacity="0.1" d="M557.37 489.387C557.37 489.387 552.815 500.478 552.435 500.898C552.055 501.318 539.031 509.815 539.031 509.815L529.928 515.496C529.928 515.496 520.692 511.17 525.12 509.68C526.025 509.292 526.84 508.698 527.508 507.94L527.901 510.899L530.936 510.763L556.907 485.785C557.136 488.019 557.37 489.387 557.37 489.387Z" fill="black"/>
<path d="M557.053 486.415L530.936 511.562L527.901 511.698L527.268 506.958C527.268 506.958 521.959 514.257 510.164 513.851C510.164 513.851 503.082 518.855 513.579 519.126C524.075 519.396 537.479 518.719 537.479 518.719C537.479 518.719 546.842 503.146 554.678 505.177V516.939H557.085V505.069C558.204 504.263 559.159 503.224 559.893 502.014C560.627 500.804 561.124 499.448 561.354 498.027C561.563 496.563 561.415 495.067 560.926 493.682C560.437 492.297 559.622 491.069 558.561 490.118C558.087 489.643 557.709 489.07 557.449 488.433C557.19 487.796 557.055 487.109 557.053 486.415Z" fill="#E83C38"/>
<path d="M618.455 472.358C616.77 478.79 617.688 482.413 618.841 484.356V484.397C620.32 486.796 621.348 489.48 621.869 492.299L621.97 492.908L610.087 511.427L603.638 514.135C603.638 514.135 593.268 510.35 595.162 509.267C595.637 509.003 596.378 507.594 597.227 505.651C599.761 499.794 603.258 488.988 603.258 488.988V488.9C603.625 484.437 604.208 479.989 604.854 475.56C606.013 467.591 603.885 448.029 603.885 448.029C603.885 448.029 603.125 424.242 601.478 418.832C600.734 416.082 600.24 413.261 600.002 410.409C599.66 407.024 599.584 404.234 599.584 404.234C599.584 404.234 606.413 394.077 618.93 405.046C619.931 405.921 620.811 406.942 621.546 408.08C630.193 421.229 623.231 450.196 623.231 450.196C623.231 450.196 621.489 460.732 618.455 472.358Z" fill="#FFB0B1"/>
<path opacity="0.1" d="M621.989 492.908L610.105 511.427L603.657 514.135C603.657 514.135 593.287 510.35 595.181 509.267C595.656 509.003 596.397 507.594 597.246 505.651C601.636 505.611 603.91 510.079 603.91 510.079L609.472 509.132C609.472 509.132 616.808 493.721 618.455 492.779C620.102 491.838 618.708 485.744 618.708 485.744V484.194C618.752 484.248 618.79 484.309 618.841 484.363V484.404C620.32 486.803 621.348 489.487 621.869 492.305L621.989 492.908Z" fill="black"/>
<path d="M604.29 510.479C604.29 510.479 601.123 504.263 595.054 506.558C595.054 506.558 591.64 514.007 588.226 515.212C584.811 516.417 585.952 520.48 593.667 518.997C601.383 517.514 613.013 516.289 613.013 516.289L613.52 508.712L621.362 498.034C621.362 498.034 626.037 493.504 619.082 484.586V486.137C619.082 486.137 620.475 492.231 618.828 493.172C617.181 494.113 609.871 509.531 609.871 509.531L604.29 510.479Z" fill="#E83C38"/>
<path opacity="0.1" d="M557.623 400.577C557.733 402.626 557.982 404.662 558.371 406.671C551.238 405.554 544.618 406.109 540.279 406.475V400.442L557.623 400.577Z" fill="black"/>
<path opacity="0.1" d="M622.249 409.766C622.249 409.766 612.114 410.294 600.027 410.402C599.685 407.017 599.609 404.227 599.609 404.227C599.609 404.227 606.438 394.07 618.955 405.04C619.956 405.914 620.837 406.936 621.571 408.073C621.768 408.65 621.994 409.215 622.249 409.766Z" fill="black"/>
<path d="M622.249 408.547C622.249 408.547 577.856 410.842 564.325 406.787C550.794 402.731 537.384 406.245 535.363 405.304C533.343 404.363 534.983 389.622 536.757 385.972C538.531 382.323 548.261 345.413 548.261 345.413L557.623 293.235L567.486 290.331L568.183 290.121L585.369 285.056L597.962 281.339C597.962 281.339 623.003 385.837 620.855 393.542C620.075 396.493 619.95 399.597 620.488 402.609C620.816 404.666 621.409 406.664 622.249 408.547Z" fill="#E83C38"/>
<path d="M524.987 257.552C524.987 257.552 516.119 267.708 522.834 273.369C529.548 279.03 533.964 273.911 533.964 273.911L524.987 257.552Z" fill="#C7DAF5"/>
<path opacity="0.1" d="M524.987 257.552C524.987 257.552 516.119 267.708 522.834 273.369C529.548 279.03 533.964 273.911 533.964 273.911L524.987 257.552Z" fill="black"/>
<path d="M596.638 190.775C596.638 190.775 595.599 191.832 594.035 193.389C591.805 195.617 588.505 198.874 585.578 201.602C581.524 205.374 578.179 208.143 579.376 205.78C580.574 203.417 580.346 199.3 579.75 195.447C579.706 195.19 579.668 194.933 579.623 194.682C579.13 191.853 578.477 189.058 577.666 186.313C577.666 186.313 584.216 177.267 587.839 173.699C589.189 172.344 590.132 171.789 590.189 172.73C590.253 173.997 591.14 176.793 592.242 179.759C592.274 179.854 592.305 179.942 592.343 180.036C593.078 182.068 593.908 184.153 594.636 185.954C595.751 188.717 596.638 190.775 596.638 190.775Z" fill="#FFB0B1"/>
<path opacity="0.1" d="M592.343 180.036C591.728 183.575 590.234 186.872 588.019 189.583C585.804 192.294 582.948 194.32 579.75 195.447C579.246 192.356 578.55 189.305 577.666 186.313C577.666 186.313 589.999 169.284 590.189 172.73C590.234 174.037 591.197 176.935 592.343 180.036Z" fill="black"/>
<path opacity="0.1" d="M578.521 199.998L580.117 197.594C580.117 197.594 581.175 204.487 585.065 201.447C588.954 198.406 589.144 224.326 589.144 224.326L584.97 291.042L554.804 289.112L555.659 256.875L559.074 240.624L567.518 217L572.541 209.193L578.521 199.998Z" fill="black"/>
<path d="M589.144 224.739L585.344 285.063L584.944 291.455L568.126 290.378L567.493 290.337L554.823 289.525L555.679 257.281L559.093 241.03L567.537 217.406L572.56 209.599L578.54 200.37L580.136 197.973C580.136 197.973 581.194 204.866 585.084 201.826L585.166 201.765C588.967 199.192 589.144 224.739 589.144 224.739Z" fill="#E83C38"/>
<path d="M559.517 235.383C559.517 235.383 558.003 238.769 554.963 238.22C551.922 237.672 551.928 250.408 551.928 250.408C551.928 250.408 549.908 252.44 548.514 250.679C547.12 248.919 543.446 254.87 543.446 254.87L520.426 255.954C520.426 255.954 530.669 260.958 528.661 276.098C528.661 276.098 563.438 273.796 564.579 270.281C565.719 266.767 559.517 235.383 559.517 235.383Z" fill="white"/>
<path opacity="0.03" d="M559.517 235.383C559.517 235.383 558.003 238.769 554.963 238.22C551.922 237.672 551.928 250.408 551.928 250.408C551.928 250.408 549.908 252.44 548.514 250.679C547.12 248.919 543.446 254.87 543.446 254.87L520.426 255.954C520.426 255.954 530.669 260.958 528.661 276.098C528.661 276.098 563.438 273.796 564.579 270.281C565.719 266.767 559.517 235.383 559.517 235.383Z" fill="black"/>
<path d="M492.617 263.91L498.686 269.449L548.641 280.668L542.446 273.911L492.617 263.91Z" fill="white"/>
<path d="M578.616 202.13C577.786 203.485 575.411 210.418 573.428 216.472C571.775 221.516 570.394 225.951 570.394 225.951C570.394 225.951 567.169 248.391 565.522 252.446C563.875 256.502 564.769 272.32 564.769 272.32L558.63 311.382C558.63 311.382 555.85 331.526 551.555 343.558C547.317 355.401 542.598 360.953 542.452 361.129C544.352 358.38 554.709 304.252 554.709 304.252L558.13 235.986C558.13 235.986 558.63 229.499 559.137 223.954C559.644 218.408 569.906 210.838 569.906 210.838L579.801 195.799C580.795 197.221 580.13 199.7 578.616 202.13Z" fill="white"/>
<path d="M552.815 289.863C552.815 289.863 538.246 289.186 531.189 280.127C524.132 271.067 547.501 276.511 547.501 276.511L553.575 278L552.815 289.863Z" fill="#FFB0B1"/>
<path opacity="0.1" d="M620.855 393.549C620.075 396.5 619.95 399.604 620.488 402.616C604.594 403.821 587.592 399.23 587.592 399.23C584.425 402.345 576.082 406.936 576.082 406.936L571.534 346.673C568.627 338.548 567.486 295.978 567.486 295.978C567.486 295.978 567.746 293.75 568.12 290.412C568.12 290.331 568.12 290.243 568.151 290.161C569.285 280.838 571.534 263.334 572.636 260.971C574.157 257.721 567.961 249.074 567.961 249.074L570.78 223.378L571.122 220.277C577.064 217.44 581.619 208.38 581.619 208.38L585.115 201.833C588.916 199.226 589.113 224.773 589.113 224.773L585.312 285.097L597.905 281.379C597.905 281.379 623.003 385.844 620.855 393.549Z" fill="black"/>
<path d="M637.167 397.713C619.842 406.908 588.352 398.39 588.352 398.39C585.185 401.505 576.842 406.096 576.842 406.096L572.288 345.833C569.387 337.708 568.246 295.138 568.246 295.138C568.246 295.138 571.908 263.375 573.428 260.132C573.871 259.184 573.656 257.775 573.13 256.259C570.545 249.039 569.595 241.269 570.356 233.582L571.572 222.539L571.908 219.444C577.856 216.6 582.411 207.541 582.411 207.541L585.578 201.609L591.406 190.681L594.168 185.507L594.636 185.961L598.215 189.428C598.215 189.428 599.736 190.782 602.016 192.813C606.976 197.282 615.547 205.15 619.968 209.965C623.858 214.203 625.087 230.691 625.442 243.102C625.676 251.275 625.537 257.68 625.537 257.68C621.615 264.58 631.871 319.974 631.871 319.974C634.259 330.68 637.167 397.713 637.167 397.713Z" fill="white"/>
<path opacity="0.03" d="M603.91 207.405C603.91 207.405 592.02 231.598 593.401 240.793C594.782 249.988 598.709 260.396 596.815 262.826C596.165 263.747 595.323 264.495 594.357 265.011C593.392 265.526 592.327 265.796 591.247 265.799C589.347 265.934 584.279 269.719 584.279 270.126C584.279 270.532 579.598 270.532 575.411 272.428C571.224 274.324 565.041 275.4 565.041 275.4C565.041 275.4 553.005 274.994 551.884 276.213C550.763 277.432 549.61 284.724 552.011 290.541C554.412 296.357 557.079 300.697 559.093 301.489C561.107 302.282 573.891 297.704 584.26 296.621C594.63 295.538 605.887 286.756 605.887 286.756C605.887 286.756 618.283 282.016 620.456 274.046C622.629 266.077 617.802 222.274 617.802 222.274C617.802 222.274 614.153 201.86 603.91 207.405Z" fill="black"/>
<path opacity="0.03" d="M602.39 205.374C602.39 205.374 590.5 229.574 591.894 238.762C593.287 247.95 597.202 258.364 595.302 260.802C594.653 261.724 593.813 262.472 592.848 262.988C591.883 263.504 590.819 263.773 589.74 263.774C587.839 263.91 582.772 267.695 582.772 268.101C582.772 268.507 578.09 268.507 573.903 270.397C569.716 272.286 563.533 273.369 563.533 273.369C563.533 273.369 551.498 272.963 550.383 274.182C549.268 275.4 548.102 282.7 550.509 288.509C552.917 294.319 555.577 298.666 557.592 299.458C559.606 300.25 572.389 295.673 582.759 294.596C593.129 293.52 604.385 284.724 604.385 284.724C604.385 284.724 616.776 279.984 618.923 272.022C621.071 264.059 616.269 220.243 616.269 220.243C616.269 220.243 612.633 199.835 602.39 205.374Z" fill="black"/>
<path d="M603.537 206.186C603.537 206.186 591.646 230.386 593.04 239.575C594.434 248.763 598.348 259.177 596.454 261.608C595.806 262.532 594.965 263.282 593.999 263.799C593.033 264.316 591.967 264.586 590.886 264.587C588.986 264.722 583.918 268.507 583.918 268.907C583.918 269.306 579.243 269.313 575.05 271.209C570.856 273.105 564.68 274.182 564.68 274.182C564.68 274.182 552.644 273.775 551.523 274.994C550.402 276.213 549.249 283.512 551.65 289.322C554.051 295.131 556.717 299.478 558.732 300.271C560.746 301.063 573.529 296.486 583.899 295.402C594.269 294.319 605.526 285.537 605.526 285.537C605.526 285.537 617.922 280.797 620.095 272.827C622.268 264.858 617.473 221.056 617.473 221.056C617.473 221.056 613.773 200.675 603.537 206.186Z" fill="white"/>
<path opacity="0.1" d="M603.277 271.094C603.277 271.094 593.775 269.063 597.082 272.448C600.388 275.834 600.369 278.799 604.417 278.664C608.465 278.529 603.277 271.094 603.277 271.094Z" fill="black"/>
<path opacity="0.1" d="M619.335 343.937C619.335 343.937 615.04 347.045 623.256 354.209C631.472 361.373 619.335 343.937 619.335 343.937Z" fill="black"/>
<path opacity="0.1" d="M611.138 369.485C611.138 369.891 609.618 384.381 615.306 388.004C620.995 391.626 611.138 369.485 611.138 369.485Z" fill="black"/>
<path d="M520.819 255.92C516.233 256.089 506.325 257.586 511.463 267.83C516.005 276.897 523.638 270.837 527.933 266.239C526.885 261.953 524.339 258.259 520.819 255.92Z" fill="#FFB0B1"/>
<path d="M527.99 266.159L528.18 265.948L527.99 266.159Z" fill="#FFB0B1"/>
<path opacity="0.1" d="M602.016 193.226C597.151 196.781 593.072 199.781 592.274 200.404C590.094 202.13 585.939 212.267 583.259 217.44C581.125 221.604 574.188 222.674 571.572 222.938L571.908 219.844C577.856 217 582.411 207.94 582.411 207.94L594.168 185.907L598.215 189.841C598.215 189.841 599.736 191.195 602.016 193.226Z" fill="black"/>
<path d="M602.016 192.82C597.151 196.375 593.072 199.375 592.274 200.004C590.094 201.724 585.939 211.861 583.259 217.034C581.125 221.198 574.188 222.268 571.572 222.532L571.908 219.437C577.856 216.593 582.411 207.534 582.411 207.534L594.168 185.501L598.215 189.421C598.215 189.421 599.736 190.762 602.016 192.82Z" fill="#DCE7FF"/>
<path d="M592.654 175.567C592.656 179.632 591.503 183.602 589.347 186.95C586.801 190.908 583.011 193.76 578.666 194.987C574.32 196.215 569.707 195.737 565.664 193.64C561.62 191.543 558.414 187.966 556.626 183.558C554.839 179.15 554.589 174.203 555.922 169.615C557.255 165.027 560.082 161.102 563.891 158.552C567.7 156.001 572.238 154.995 576.681 155.715C581.125 156.435 585.18 158.834 588.111 162.476C591.041 166.119 592.653 170.763 592.654 175.567Z" fill="#FFB0B1"/>
<path opacity="0.1" d="M625.441 243.109C622.869 241.418 620.774 239.012 619.379 236.148C618.321 233.914 617.618 231.334 615.813 229.75C614.185 228.328 612.012 227.982 609.985 227.346C603.321 225.24 597.734 218.74 597.525 211.319C597.424 207.825 598.443 204.338 597.981 200.878C597.718 198.92 596.99 197.066 595.865 195.495C595.307 194.743 594.695 194.039 594.035 193.389C593.148 192.495 592.216 191.628 591.406 190.681C590.895 190.094 590.449 189.446 590.075 188.751C589.774 188.182 589.53 187.58 589.347 186.956C588.08 182.813 589.233 177.897 587.839 173.705L587.763 173.475C587.237 171.986 586.167 170.496 584.678 170.381C583.19 170.266 581.916 171.586 580.497 172.175C577.527 173.408 574.321 171.308 571.844 169.169C569.368 167.029 566.574 164.585 563.426 165.059C561.342 165.377 559.695 166.894 557.775 167.679C557.342 167.858 556.895 167.997 556.439 168.092C558.063 163.762 561.047 160.172 564.879 157.938C568.711 155.705 573.151 154.967 577.436 155.853C581.721 156.738 585.584 159.191 588.361 162.79C591.138 166.389 592.656 170.909 592.654 175.574C592.656 176.983 592.518 178.388 592.242 179.766C592.273 179.86 592.305 179.948 592.343 180.043C593.078 182.074 593.908 184.16 594.636 185.961L598.215 189.428C598.215 189.428 599.736 190.782 602.016 192.813C606.976 197.282 615.547 205.15 619.968 209.965C623.858 214.217 625.074 230.698 625.441 243.109Z" fill="black"/>
<path d="M557.554 155.308C558.459 153.338 558.909 151.131 559.992 149.262C561.582 146.553 564.357 144.82 567.208 143.77C574.651 141.028 590.38 137.047 595.08 143.77C596.005 145.125 596.771 146.628 598.051 147.562C599.026 148.273 600.205 148.578 601.275 149.113C604.271 150.616 606.184 153.893 607.204 157.238C608.224 160.583 608.528 164.172 609.276 167.618C610.232 172.04 611.911 176.231 613.583 180.395C615.553 185.311 617.644 190.41 621.445 193.883C626.633 198.623 627.779 205.333 632.593 210.533C638.295 216.709 638.111 226.899 635.172 234.991C634.785 236.054 634.348 237.164 634.5 238.295C634.652 239.426 635.438 240.455 636.179 241.355L639.295 245.113C631.922 247.016 623.579 242.899 620.146 235.674C619.088 233.44 618.385 230.867 616.573 229.276C614.952 227.854 612.772 227.515 610.752 226.879C604.088 224.766 598.501 218.259 598.291 210.838C598.19 207.351 599.21 203.864 598.748 200.411C598.49 198.439 597.759 196.573 596.626 194.994C594.883 192.563 592.255 190.931 590.836 188.223C588.435 183.693 590.259 177.809 588.53 172.947C587.998 171.457 586.934 169.968 585.445 169.853C583.956 169.738 582.683 171.058 581.258 171.647C578.293 172.879 575.088 170.787 572.611 168.641C570.134 166.494 567.341 164.057 564.186 164.537C562.102 164.849 560.461 166.366 558.542 167.158C557.123 167.74 554.247 168.261 553.005 166.982C550.383 164.402 556.458 157.719 557.554 155.308Z" fill="#591D4B"/>
<path opacity="0.1" d="M621.907 233.44C620.843 231.206 620.146 228.632 618.334 227.048C616.712 225.626 614.533 225.281 612.506 224.644C605.849 222.539 600.262 216.032 600.046 208.61C599.945 205.123 600.965 201.629 600.509 198.176C600.243 196.217 599.513 194.364 598.386 192.793C596.638 190.362 594.009 188.73 592.597 186.022C590.196 181.499 592.02 175.615 590.285 170.746C589.759 169.264 588.688 167.774 587.206 167.652C585.724 167.53 584.438 168.864 583.019 169.453C580.054 170.686 576.843 168.587 574.372 166.447C571.902 164.307 569.095 161.863 565.947 162.337C563.863 162.655 562.216 164.172 560.303 164.957C558.884 165.54 556.002 166.068 554.76 164.788C552.15 162.079 558.225 155.41 559.315 153.013C560.221 151.036 560.67 148.835 561.76 146.966C561.817 146.865 561.88 146.763 561.944 146.662C561.129 147.383 560.425 148.238 559.859 149.194C558.776 151.063 558.326 153.257 557.421 155.241C556.325 157.638 550.25 164.327 552.866 167.016C554.133 168.302 556.984 167.774 558.402 167.192C560.303 166.399 561.963 164.883 564.047 164.571C567.214 164.09 570.001 166.535 572.472 168.675C574.942 170.814 578.173 172.913 581.125 171.681C582.544 171.092 583.785 169.765 585.306 169.887C586.826 170.008 587.839 171.491 588.39 172.981C590.12 177.843 588.295 183.727 590.696 188.257C592.115 190.918 594.744 192.583 596.486 195.028C597.62 196.607 598.351 198.473 598.608 200.444C599.071 203.898 598.051 207.385 598.152 210.872C598.361 218.32 603.948 224.8 610.612 226.913C612.62 227.549 614.812 227.888 616.434 229.31C618.252 230.901 618.968 233.474 620.006 235.708C623.44 242.933 631.782 247.05 639.156 245.147L637.686 243.373C631.295 243.475 624.827 239.588 621.907 233.44Z" fill="black"/>
<path opacity="0.1" d="M578.236 202.537C577.406 203.891 575.031 210.825 573.048 216.878C571.192 216.106 569.507 211.183 569.507 211.183L579.402 196.138C580.415 197.628 579.75 200.099 578.236 202.537Z" fill="black"/>
<path d="M578.616 202.13C577.786 203.485 575.411 210.418 573.428 216.472C571.572 215.706 569.887 210.777 569.887 210.777L579.782 195.739C580.795 197.221 580.13 199.7 578.616 202.13Z" fill="#DCE7FF"/>
<path d="M521.085 271.304L515.599 252.812C515.535 252.596 515.51 252.367 515.528 252.141C515.546 251.914 515.605 251.694 515.703 251.492C515.801 251.29 515.935 251.111 516.097 250.964C516.26 250.818 516.448 250.707 516.651 250.639C517.059 250.502 517.501 250.544 517.881 250.754C518.261 250.965 518.547 251.327 518.678 251.763L524.164 270.234L523.619 274.1L521.085 271.304Z" fill="#BE8B87"/>
<path opacity="0.1" d="M516.119 251.187C516.528 251.049 516.972 251.089 517.353 251.3C517.734 251.511 518.021 251.874 518.152 252.311L523.638 270.783L523.226 273.681L523.625 274.127L524.17 270.261L518.653 251.79C518.522 251.354 518.235 250.992 517.856 250.782C517.476 250.571 517.034 250.529 516.626 250.666C516.282 250.785 515.986 251.023 515.783 251.343C515.891 251.281 516.003 251.229 516.119 251.187Z" fill="white"/>
<path d="M521.085 271.304L524.164 270.261L523.714 273.43L523.619 274.127L522.719 273.125L521.085 271.304Z" fill="#EFC8C4"/>
<path d="M522.72 273.125C522.773 273.053 522.84 272.993 522.916 272.949C522.96 272.919 523.012 272.903 523.065 272.903C523.117 272.903 523.169 272.919 523.214 272.949C523.257 273.005 523.293 273.066 523.321 273.132C523.363 273.207 523.42 273.271 523.488 273.319C523.556 273.367 523.633 273.398 523.714 273.41L523.619 274.087L522.72 273.125Z" fill="#727A9C"/>
<path d="M515.568 259.38C515.568 259.38 526.571 259.312 523.98 264.316C521.389 269.32 517.341 269.923 517.341 269.923L515.568 259.38Z" fill="#FFB0B1"/>
</g>
<defs>
<linearGradient id="paint0_linear" x1="225.721" y1="524.671" x2="225.721" y2="108.019" gradientUnits="userSpaceOnUse">
<stop stop-color="#808080" stop-opacity="0.25"/>
<stop offset="0.54" stop-color="#808080" stop-opacity="0.12"/>
<stop offset="1" stop-color="#808080" stop-opacity="0.1"/>
</linearGradient>
<linearGradient id="paint1_linear" x1="141398" y1="314369" x2="141398" y2="100498" gradientUnits="userSpaceOnUse">
<stop stop-color="#808080" stop-opacity="0.25"/>
<stop offset="0.54" stop-color="#808080" stop-opacity="0.12"/>
<stop offset="1" stop-color="#808080" stop-opacity="0.1"/>
</linearGradient>
<clipPath id="clip0">
<rect width="700" height="530" fill="white"/>
</clipPath>
</defs>
</svg>
