<svg width="701" height="531" viewBox="0 0 701 531" fill="none" xmlns="http://www.w3.org/2000/svg">
<path opacity="0.1" d="M46.5403 207.733H107.405V292.7H50.9906C50.8466 293.578 50.7027 294.45 50.5407 295.329H107.405V363.84C107.309 363.84 107.213 363.766 107.123 363.729C105.523 363.078 103.924 362.388 102.325 361.659C101.983 361.5 101.647 361.334 101.299 361.18C99.6996 360.406 98.1002 359.587 96.5009 358.723C95.9431 358.422 95.3853 358.109 94.8395 357.79C85.9604 352.716 77.8904 346.282 70.9088 338.712C70.6989 338.509 70.507 338.288 70.309 338.098C69.3374 337.017 68.3838 335.923 67.4602 334.805C67.1123 334.394 66.7764 333.976 66.4346 333.577C65.343 332.213 64.2874 330.8 63.2678 329.382C63.1118 329.167 62.9679 328.958 62.818 328.767C58.6412 322.848 55.1774 316.434 52.502 309.665C52.418 309.462 52.34 309.241 52.2621 309.051C51.4344 306.901 50.6847 304.72 50.0369 302.497C49.761 301.569 49.4911 300.654 49.2632 299.69C49.1793 299.413 49.1133 299.131 49.0413 298.854C45.6706 285.249 45.2808 271.109 45.2808 257.037C45.2808 255.399 45.2808 253.762 45.2808 252.124C45.3288 246.378 45.3947 240.639 45.4787 234.907C45.5107 233.433 45.5407 231.952 45.5687 230.466C45.6526 226.703 45.7726 222.931 45.9285 219.152C45.9645 218.107 46.0125 217.057 46.0665 216.019C46.0905 215.417 46.1205 214.815 46.1564 214.213C46.2644 212.039 46.3923 209.879 46.5403 207.733Z" fill="#E83C38"/>
<path opacity="0.1" d="M107.405 113.129H74.0156C79.4456 104.435 85.3758 96.0787 91.7747 88.1054C96.7408 81.8648 101.971 75.7839 107.405 69.9241V113.129Z" fill="#E83C38"/>
<path opacity="0.1" d="M107.405 115.746V205.104H46.7322C46.7322 204.846 46.7682 204.582 46.7922 204.324C46.8462 203.618 46.9002 202.918 46.9601 202.211C47.0201 201.388 47.0981 200.565 47.1761 199.754C47.254 198.943 47.332 197.961 47.428 197.07C47.5239 196.179 47.6019 195.276 47.6979 194.386C47.7938 193.495 47.8898 192.605 47.9977 191.72C48.1057 190.836 48.2017 189.939 48.3216 189.054C48.4116 188.323 48.5015 187.586 48.6035 186.849C48.7415 185.811 48.8854 184.773 49.0353 183.741C49.0353 183.582 49.0833 183.428 49.1073 183.274C50.2035 175.721 51.693 168.233 53.5696 160.843C55.5402 153.091 58.0558 145.496 61.0967 138.116C64.3278 130.384 68.1127 122.907 72.4203 115.746H107.405Z" fill="#E83C38"/>
<path opacity="0.1" d="M121.943 207.733V292.7H251.948V207.733H121.943ZM121.943 295.329V368.299C122.687 368.453 123.418 368.606 124.156 368.735C125.146 368.932 126.141 369.11 127.155 369.264L127.755 369.35C128.151 369.417 128.552 369.472 128.954 369.522C129.956 369.669 130.957 369.78 131.953 369.878C132.421 369.927 132.907 369.964 133.381 370.007L134.538 370.093C135.168 370.142 135.792 370.179 136.415 370.203C136.799 370.203 137.183 370.234 137.573 370.246C137.963 370.259 138.173 370.246 138.485 370.246H139.618C140.134 370.246 140.65 370.246 141.16 370.246H141.819C142.335 370.246 142.851 370.246 143.361 370.197H143.391C143.751 370.197 144.104 370.197 144.464 370.154C144.566 370.16 144.668 370.16 144.77 370.154C145.07 370.154 145.37 370.154 145.658 370.117C145.726 370.112 145.794 370.112 145.862 370.117C146.527 370.074 147.199 370.019 147.877 369.958C148.555 369.896 149.196 369.823 149.874 369.749L151.236 369.577C156.799 368.779 162.301 367.581 167.699 365.99C179.833 362.525 191.69 357.679 203.817 354.135C219.483 349.559 236.804 347.305 251.942 352.876V295.329H121.943ZM251.948 113.129V0.0122612C237.717 -0.148097 223.523 1.55483 209.713 5.07967C176.792 13.5499 147.229 31.9216 121.943 55.3852V113.123H128.486V115.746H121.943V205.104H251.948V115.746H155.254V113.117L251.948 113.129ZM418.972 74.9178C410.827 74.623 402.73 71.9879 395.401 67.9033C381.402 60.1087 370.211 48.0574 357.711 37.8981C331.741 16.7255 299.534 3.94334 266.493 0.773908V113.129H452.067L452.529 112.632L418.972 74.9178ZM435.879 71.8466L453.806 91.9996V66.5458C447.772 67.3259 442.518 69.1379 435.879 71.8221V71.8466ZM453.806 386.419V295.329H415.577C415.481 294.942 415.373 294.549 415.253 294.155C415.367 294.549 415.469 294.942 415.571 295.329H266.493V361.199C267.908 362.274 269.306 363.41 270.691 364.552C272.187 365.806 273.672 367.073 275.147 368.355L276.635 369.614C277.349 370.228 278.074 370.842 278.794 371.426C280.237 372.617 281.691 373.797 283.154 374.964C283.886 375.553 284.622 376.133 285.361 376.702C297.076 385.871 309.433 394.146 322.331 401.462C325.222 403.114 328.143 404.705 331.082 406.259C333.037 407.291 335.006 408.302 336.989 409.293C339.964 410.78 342.963 412.213 345.986 413.593C373.855 426.404 403.324 435.194 433.552 439.71C440.261 440.721 447.001 441.52 453.77 442.105V386.407H454.37L453.806 386.419ZM266.493 115.746V205.104H453.806V115.746H266.493ZM266.493 207.721V292.7H453.806V207.733L266.493 207.721ZM468.344 66.423V94.8619L491.219 69.144C483.638 67.8623 476.013 66.9553 468.344 66.423ZM468.344 207.733V292.7H650.524V207.733H468.344ZM649.882 393.157L650.524 295.329H468.344V443.094C480.079 443.594 491.831 443.448 503.551 442.658H503.755C509.352 442.29 514.924 441.765 520.47 441.086H520.596C550.192 437.558 579.129 429.641 606.501 417.585L649.882 393.157ZM685.67 221.688C684.978 220.05 684.268 218.413 683.541 216.775C682.185 213.703 680.758 210.718 679.282 207.739H665.068V292.7H701C700.97 268.634 695.02 244.065 685.67 221.688ZM665.068 295.329V379.478C675.186 369.546 683.745 358.177 689.898 345.18C697.305 329.523 700.694 312.582 700.976 295.322L665.068 295.329ZM665.068 182.973V205.086H677.951C674.046 197.484 669.745 190.103 665.068 182.973ZM541.516 83.0994C540.568 82.7247 539.615 82.35 538.661 81.9937C528.606 78.188 518.33 75.0248 507.893 72.5223L472.879 111.87L472.195 112.625L472.645 113.123H597.264C579.907 100.891 561.193 90.8129 541.516 83.0994ZM600.923 115.746H470.899L468.344 118.135V205.104H490.746H650.524V162.968C636.076 145.075 619.4 129.199 600.923 115.746Z" fill="#E83C38"/>
<path opacity="0.1" d="M107.405 160.824V205.104H46.7322C46.7322 204.846 46.7682 204.582 46.7922 204.324C46.8462 203.618 46.9002 202.917 46.9601 202.211C47.0201 201.388 47.0981 200.565 47.1761 199.754C47.254 198.943 47.332 197.961 47.428 197.07C47.5239 196.179 47.6019 195.276 47.6979 194.386C47.7938 193.495 47.8898 192.605 47.9977 191.72C48.1057 190.836 48.2017 189.939 48.3216 189.054C48.4116 188.323 48.5015 187.586 48.6035 186.849C48.7415 185.811 48.8854 184.773 49.0353 183.741C49.0353 183.582 49.0833 183.428 49.1073 183.274C50.2035 175.721 51.693 168.233 53.5696 160.843L107.405 160.824Z" fill="#E83C38"/>
<path opacity="0.1" d="M46.5403 207.733H107.405V292.7H50.9906C50.8466 293.578 50.7027 294.45 50.5407 295.329H107.405V363.84C107.309 363.84 107.213 363.766 107.123 363.729C105.523 363.078 103.924 362.388 102.325 361.659C101.983 361.5 101.647 361.334 101.299 361.18C99.6996 360.406 98.1002 359.587 96.5009 358.723C95.9431 358.422 95.3853 358.109 94.8395 357.79C85.9604 352.716 77.8904 346.282 70.9088 338.712C70.6989 338.509 70.507 338.288 70.309 338.098C69.3374 337.017 68.3838 335.923 67.4602 334.805C67.1123 334.394 66.7764 333.976 66.4346 333.577C65.343 332.213 64.2874 330.8 63.2678 329.382C63.1118 329.167 62.9679 328.958 62.818 328.767C58.6412 322.848 55.1774 316.434 52.502 309.665C52.418 309.462 52.34 309.241 52.2621 309.051C51.4344 306.901 50.6847 304.72 50.0369 302.497C49.761 301.569 49.4911 300.654 49.2632 299.69C49.1793 299.413 49.1133 299.131 49.0413 298.854C45.6706 285.249 45.2808 271.109 45.2808 257.037C45.2808 255.399 45.2808 253.762 45.2808 252.124C45.3288 246.378 45.3947 240.639 45.4787 234.907C45.5107 233.433 45.5407 231.952 45.5687 230.466C45.6526 226.703 45.7726 222.931 45.9285 219.152C45.9645 218.107 46.0125 217.057 46.0665 216.019C46.0905 215.417 46.1205 214.815 46.1564 214.213C46.2644 212.039 46.3923 209.879 46.5403 207.733Z" fill="#E83C38"/>
<path opacity="0.1" d="M167.705 128.546V205.104H121.937V128.546H128.462V102.626H155.248V128.546H167.705Z" fill="#E83C38"/>
<path opacity="0.1" d="M167.699 207.727H121.937V292.694H167.699V207.727Z" fill="#E83C38"/>
<path opacity="0.1" d="M121.943 295.329H167.705V365.965C162.307 367.557 156.805 368.754 151.242 369.546C150.786 369.614 150.336 369.669 149.88 369.718C149.208 369.798 148.543 369.872 147.877 369.933L145.868 370.099H145.664L144.776 370.148H144.47C144.11 370.148 143.757 370.191 143.397 370.197H143.367C142.851 370.197 142.341 370.234 141.825 370.246H141.166C140.656 370.246 140.146 370.246 139.624 370.246H138.497H137.579C137.189 370.246 136.805 370.246 136.415 370.197C135.8 370.173 135.176 370.136 134.544 370.087L133.387 370.001C132.907 369.964 132.427 369.915 131.953 369.866C130.945 369.776 129.946 369.659 128.954 369.516L127.755 369.344L127.155 369.258C126.153 369.104 125.158 368.932 124.156 368.735C123.412 368.6 122.681 368.447 121.943 368.287V295.329Z" fill="#E83C38"/>
<path opacity="0.1" d="M453.8 119.505H416.063V205.098H453.8V119.505Z" fill="#E83C38"/>
<path opacity="0.1" d="M453.806 207.727V292.7H266.493V256.049H366.264V277.669H416.063V207.727H453.806Z" fill="#E83C38"/>
<path opacity="0.1" d="M454.4 386.438C454.202 386.438 454.004 386.438 453.8 386.401V442.142C447.039 441.573 440.301 440.777 433.588 439.753C403.35 435.238 373.868 426.453 345.986 413.648C337.937 409.93 330.052 405.878 322.331 401.492C309.437 394.174 297.083 385.898 285.367 376.733C282.417 374.423 279.51 372.063 276.647 369.651C274.662 367.968 272.694 366.248 270.691 364.583C269.312 363.435 267.914 362.298 266.493 361.217V295.329H415.571C415.463 294.936 415.367 294.549 415.259 294.155C415.373 294.549 415.481 294.936 415.577 295.329H453.806V386.395C454.004 386.401 454.202 386.419 454.4 386.438Z" fill="#E83C38"/>
<path opacity="0.1" d="M552.228 113.129H527.637V105.304H538.655V81.9938C539.611 82.3541 540.562 82.7227 541.51 83.0994V105.304H552.222L552.228 113.129Z" fill="#E83C38"/>
<path opacity="0.1" d="M611.479 205.104H490.746C490.757 205.107 490.77 205.107 490.782 205.104H490.728H468.344V119.511H474.69V182.777H503.683V145.309H527.643V115.746H552.234V145.327H576.182V182.795H611.485L611.479 205.104Z" fill="#E83C38"/>
<path opacity="0.1" d="M468.344 207.733V292.7H611.485V207.733H468.344ZM650.32 392.709L650.523 325.451H611.485V295.353H468.344V443.094C480.079 443.594 491.831 443.448 503.551 442.658H503.755C509.352 442.29 514.924 441.766 520.47 441.086H520.596C550.192 437.558 579.129 429.641 606.501 417.585" fill="#E83C38"/>
<path opacity="0.1" d="M667.587 295.329H700.976C700.688 312.582 697.305 329.529 689.898 345.18C683.745 358.183 675.186 369.552 665.068 379.485V325.432H667.587V295.329Z" fill="#E83C38"/>
<path opacity="0.1" d="M701 292.7H667.587V221.688H685.67C695.02 244.065 700.97 268.634 701 292.7Z" fill="#E83C38"/>
<path opacity="0.1" d="M453.806 143.3H433.588V170.136H453.806V143.3Z" fill="#E83C38"/>
<path opacity="0.1" d="M453.806 198.925H433.588V205.104H453.806V198.925Z" fill="#E83C38"/>
<path opacity="0.1" d="M453.806 207.727H433.588V225.755H453.806V207.727Z" fill="#E83C38"/>
<path opacity="0.1" d="M453.806 254.55H433.588V281.386H453.806V254.55Z" fill="#E83C38"/>
<path opacity="0.1" d="M453.806 310.175H433.588V337.01H453.806V310.175Z" fill="#E83C38"/>
<path opacity="0.1" d="M453.806 386.395C454.004 386.395 454.202 386.395 454.406 386.438C454.208 386.438 454.01 386.438 453.806 386.401V392.635H433.588V365.799H453.806V386.395Z" fill="#E83C38"/>
<path opacity="0.1" d="M453.806 421.418V442.142C447.041 441.573 440.301 440.777 433.588 439.753V421.418H453.806Z" fill="#E83C38"/>
<path opacity="0.1" d="M353.141 290.728H266.493V292.7H353.141V290.728Z" fill="#E83C38"/>
<path opacity="0.1" d="M353.141 295.322H266.493V302.878H353.141V295.322Z" fill="#E83C38"/>
<path opacity="0.1" d="M353.141 327.643H266.493V339.793H353.141V327.643Z" fill="#E83C38"/>
<path opacity="0.1" d="M353.141 364.559V376.708H285.367C282.417 374.407 279.51 372.044 276.647 369.62C274.656 367.943 272.688 366.223 270.691 364.559H353.141Z" fill="#E83C38"/>
<path opacity="0.1" d="M353.141 401.468V413.648H345.986C337.937 409.93 330.052 405.878 322.331 401.492L353.141 401.468Z" fill="#E83C38"/>
<path opacity="0.1" d="M520.608 215.964H503.551V233.433H520.608V215.964Z" fill="#E83C38"/>
<path opacity="0.1" d="M151.284 134.572H134.226V152.041H151.284V134.572Z" fill="#E83C38"/>
<path opacity="0.1" d="M151.284 175.148H134.226V192.617H151.284V175.148Z" fill="#E83C38"/>
<path opacity="0.1" d="M151.284 215.724H134.226V233.193H151.284V215.724Z" fill="#E83C38"/>
<path opacity="0.1" d="M151.284 256.294H134.226V273.763H151.284V256.294Z" fill="#E83C38"/>
<path opacity="0.1" d="M151.284 296.87H134.226V314.339H151.284V296.87Z" fill="#E83C38"/>
<path opacity="0.1" d="M151.284 337.446H134.226V354.915H151.284V337.446Z" fill="#E83C38"/>
<path opacity="0.1" d="M585.725 215.964H568.667V233.433H585.725V215.964Z" fill="#E83C38"/>
<path opacity="0.1" d="M520.608 259.052H503.551V276.521H520.608V259.052Z" fill="#E83C38"/>
<path opacity="0.1" d="M585.725 259.052H568.667V276.521H585.725V259.052Z" fill="#E83C38"/>
<path opacity="0.1" d="M520.608 302.134H503.551V319.603H520.608V302.134Z" fill="#E83C38"/>
<path opacity="0.1" d="M585.725 302.134H568.667V319.603H585.725V302.134Z" fill="#E83C38"/>
<path opacity="0.1" d="M520.608 345.223H503.551V362.691H520.608V345.223Z" fill="#E83C38"/>
<path opacity="0.1" d="M585.725 345.223H568.667V362.691H585.725V345.223Z" fill="#E83C38"/>
<path opacity="0.1" d="M520.608 388.311H503.551V405.78H520.608V388.311Z" fill="#E83C38"/>
<path opacity="0.1" d="M585.725 388.311H568.667V405.78H585.725V388.311Z" fill="#E83C38"/>
<path opacity="0.1" d="M503.551 442.658V431.393H520.602V441.055L503.551 442.658Z" fill="#E83C38"/>
<path opacity="0.1" d="M49.0353 183.256V193.25H107.405V183.256H49.0353ZM54.8471 192.623H50.0489V183.889H54.8471V192.623ZM60.6588 192.623H55.8607V183.889H60.6588V192.623ZM66.4586 192.623H61.6604V183.889H66.4586V192.623ZM72.2703 192.623H67.4722V183.889H72.2703V192.623ZM78.076 192.623H73.2779V183.889H78.076V192.623ZM83.8878 192.623H79.0897V183.889H83.8878V192.623ZM89.6995 192.623H84.9014V183.889H89.6995V192.623ZM95.5053 192.623H90.7071V183.889H95.5053V192.623ZM101.311 192.623H96.5129V183.889H101.311V192.623ZM107.123 192.623H102.325V183.889H107.123V192.623Z" fill="#E83C38"/>
<path opacity="0.1" d="M49.0353 212.346V222.339H107.405V212.346H49.0353ZM54.8471 221.713H50.0489V212.979H54.8471V221.713ZM60.6588 221.713H55.8607V212.979H60.6588V221.713ZM66.4586 221.713H61.6604V212.979H66.4586V221.713ZM72.2703 221.713H67.4722V212.979H72.2703V221.713ZM78.076 221.713H73.2779V212.979H78.076V221.713ZM83.8878 221.713H79.0897V212.979H83.8878V221.713ZM89.6995 221.713H84.9014V212.979H89.6995V221.713ZM95.5053 221.713H90.7071V212.979H95.5053V221.713ZM101.311 221.713H96.5129V212.979H101.311V221.713ZM107.123 221.713H102.325V212.979H107.123V221.713Z" fill="#E83C38"/>
<path opacity="0.1" d="M49.0353 241.442V251.43H107.405V241.442H49.0353ZM54.8471 250.797H50.0489V242.063H54.8471V250.797ZM60.6588 250.797H55.8607V242.063H60.6588V250.797ZM66.4586 250.797H61.6604V242.063H66.4586V250.797ZM72.2703 250.797H67.4722V242.063H72.2703V250.797ZM78.076 250.797H73.2779V242.063H78.076V250.797ZM83.8878 250.797H79.0897V242.063H83.8878V250.797ZM89.6995 250.797H84.9014V242.063H89.6995V250.797ZM95.5053 250.797H90.7071V242.063H95.5053V250.797ZM101.311 250.797H96.5129V242.063H101.311V250.797ZM107.123 250.797H102.325V242.063H107.123V250.797Z" fill="#E83C38"/>
<path opacity="0.1" d="M49.0353 270.532V280.52H107.405V270.532H49.0353ZM54.8471 279.893H50.0489V271.146H54.8471V279.893ZM60.6588 279.893H55.8607V271.146H60.6588V279.893ZM66.4586 279.893H61.6604V271.146H66.4586V279.893ZM72.2703 279.893H67.4722V271.146H72.2703V279.893ZM78.076 279.893H73.2779V271.146H78.076V279.893ZM83.8878 279.893H79.0897V271.146H83.8878V279.893ZM89.6995 279.893H84.9014V271.146H89.6995V279.893ZM95.5053 279.893H90.7071V271.146H95.5053V279.893ZM101.311 279.893H96.5129V271.146H101.311V279.893ZM107.123 279.893H102.325V271.146H107.123V279.893Z" fill="#E83C38"/>
<path opacity="0.1" d="M49.3172 299.61C49.5451 300.556 49.815 301.489 50.0909 302.417V300.243H54.8891V308.971H52.316C52.388 309.18 52.466 309.395 52.55 309.585H107.429V299.61H49.3172ZM60.7128 308.971H55.9147V300.243H60.7128V308.971ZM66.5125 308.971H61.7144V300.243H66.5125V308.971ZM72.3243 308.971H67.5261V300.243H72.3243V308.971ZM78.13 308.971H73.3319V300.243H78.13V308.971ZM83.9418 308.971H79.1436V300.243H83.9418V308.971ZM89.7535 308.971H84.9554V300.243H89.7535V308.971ZM95.5592 308.971H90.7611V300.243H95.5592V308.971ZM101.365 308.971H96.5669V300.243H101.365V308.971ZM107.177 308.971H102.379V300.243H107.177V308.971Z" fill="#E83C38"/>
<path opacity="0.1" d="M62.836 328.7C62.9919 328.896 63.1359 329.117 63.2858 329.314H66.4586V333.509L67.4842 334.738V329.289H72.2823V338.098H70.3091C70.501 338.3 70.6869 338.515 70.9088 338.712H107.393V328.7H62.836ZM78.106 338.098H73.3079V329.326H78.106V338.098ZM83.9178 338.098H79.1196V329.326H83.9178V338.098ZM89.7295 338.098H84.9314V329.326H89.7295V338.098ZM95.5353 338.098H90.7371V329.326H95.5353V338.098ZM101.341 338.098H96.5429V329.326H101.341V338.098ZM107.153 338.098H102.355V329.326H107.153V338.098Z" fill="#E83C38"/>
<path opacity="0.1" d="M94.8575 357.79C95.4093 358.109 95.9671 358.404 96.5249 358.717V358.41H101.323V361.18C101.671 361.334 102.001 361.5 102.343 361.659V358.41H107.141V363.729C107.232 363.772 107.326 363.807 107.423 363.834V357.79H94.8575Z" fill="#E83C38"/>
<path opacity="0.1" d="M453.8 386.395H454.4H453.8ZM415.253 294.155C415.367 294.549 415.469 294.942 415.571 295.329C415.481 294.942 415.373 294.549 415.253 294.155ZM128.486 113.129V115.746H155.278V113.117L128.486 113.129ZM453.806 386.395H454.406H453.806ZM415.253 294.155C415.367 294.549 415.469 294.942 415.571 295.329C415.481 294.942 415.373 294.549 415.253 294.155ZM453.8 386.395H454.4H453.8ZM415.253 294.155C415.367 294.549 415.469 294.942 415.571 295.329C415.481 294.942 415.373 294.549 415.253 294.155Z" fill="#E83C38"/>
<path opacity="0.1" d="M528.159 530.002C560.435 530.002 586.6 525.698 586.6 520.389C586.6 515.08 560.435 510.776 528.159 510.776C495.883 510.776 469.718 515.08 469.718 520.389C469.718 525.698 495.883 530.002 528.159 530.002Z" fill="#E83C38"/>
<path opacity="0.1" d="M264.586 520.389C296.862 520.389 323.027 516.085 323.027 510.776C323.027 505.467 296.862 501.164 264.586 501.164C232.309 501.164 206.144 505.467 206.144 510.776C206.144 516.085 232.309 520.389 264.586 520.389Z" fill="#E83C38"/>
<path d="M331.867 256.595C331.853 256.534 331.822 256.479 331.777 256.436C330.884 255.533 319.488 239.028 319.488 239.028C319.488 239.028 318.888 237.185 317.917 234.79C318.228 234.377 318.462 233.908 318.606 233.408C318.659 233.196 318.697 232.98 318.72 232.763C318.72 232.695 318.768 232.64 318.786 232.573C318.995 231.74 318.974 230.864 318.726 230.042C318.66 230.253 318.578 230.458 318.481 230.656C318.255 229.941 317.953 229.253 317.581 228.605C316.069 225.939 313.91 223.691 312.321 221.093C309.914 217.056 308.958 212.286 309.616 207.604C309.616 207.844 309.616 208.089 309.616 208.329C309.676 207.4 309.796 206.477 309.976 205.565C310.227 204.527 310.562 203.512 310.977 202.531C312.405 199.183 314.714 196.265 316.117 192.906C316.588 191.772 316.946 190.593 317.185 189.386C317.68 187.37 317.86 185.287 317.719 183.213C317.719 183.704 317.641 184.196 317.569 184.681C317.417 179.695 315.451 174.948 312.057 171.371C307.157 166.328 300.122 164.368 293.392 163.336C290.565 162.999 287.864 161.943 285.535 160.265C282.95 158.552 279.61 158.14 276.587 158.515C273.113 158.899 269.884 160.534 267.476 163.128C264.28 166.727 262.894 171.825 259.164 174.859C256.903 176.702 254.036 177.562 251.403 178.815C248.77 180.068 246.281 181.886 245.435 184.577C245.435 184.577 245.435 184.54 245.435 184.521V184.675L245.399 184.773C244.523 187.955 246.215 191.192 247.096 194.367C248.014 197.654 248.074 201.124 248.122 204.521C248.188 208.673 248.248 212.831 248.182 216.99C248.152 218.623 248.098 220.276 247.978 221.903C246.558 222.343 245.18 222.91 243.858 223.599C242.514 224.495 237.488 230.054 237.488 230.054L227.658 268.517L227.79 268.671L227.658 269.193L228.156 269.076C229.547 270.612 233.704 274.985 238.19 277.712L238.61 285.255C238.61 285.255 239.113 292.823 245.909 295.949C246.065 298.572 246.551 309.223 244.301 313.442C242.744 316.525 242.011 319.975 242.178 323.442C242.178 323.442 242.964 329.842 242.07 333.208C241.548 335.458 241.509 337.797 241.956 340.063C241.956 340.063 241.956 340.806 241.956 342.084C241.956 348.896 242.034 370.726 241.956 373.195C241.842 376.112 241.956 419.262 241.956 419.262C241.956 419.262 241.399 440.828 239.611 446.669C237.824 452.51 238.274 471.853 238.274 471.853C238.274 471.853 237.152 494.892 241.117 499.438C241.117 499.64 241.081 499.849 241.075 500.052C241.075 500.144 241.075 500.249 241.075 500.341C241.027 502.091 241.357 503.952 242.826 504.524C245.825 505.703 249.789 509.241 250.539 510.254C251.289 511.268 255.649 513.792 261.335 513.117C264.897 512.707 268.481 512.538 272.065 512.613C272.065 512.613 274.308 512.195 273.582 509.339C273.114 507.558 271.363 504.818 270.115 503.019C270.343 503.08 270.565 503.129 270.775 503.172L270.991 503.215H271.159C271.251 503.221 271.343 503.221 271.435 503.215H271.555C271.667 503.225 271.779 503.225 271.891 503.215C273.396 503.068 279.01 505.746 280.012 507.515C281.013 509.284 284.546 510.629 287.209 510.967C288.792 511.163 292.787 510.832 296.139 510.389C297.828 510.211 299.5 509.899 301.141 509.456C301.933 509.149 302.101 508.166 301.873 507.06C301.604 505.656 300.871 504.39 299.798 503.473C298.826 502.767 297.543 500.906 296.595 499.382L296.343 498.971C298.017 497.337 301.039 491.993 301.957 490.888C303.073 489.542 300.158 440.349 300.158 440.349V415.687L304.626 392.346L307.751 379.994L310.432 361.346C310.432 361.346 315.122 339.566 313.676 337.428C313.676 337.385 312.477 314.959 311.217 309.573C310.672 307.171 310.81 301.766 311.133 296.508C311.472 296.164 311.708 295.728 311.814 295.252C311.92 294.776 311.892 294.278 311.733 293.818C311.644 293.503 311.527 293.196 311.385 292.902C311.385 292.81 311.385 292.712 311.385 292.62C313.976 291.399 316.684 290.456 319.464 289.807C323.932 288.91 322.817 286.551 322.817 286.551C322.817 286.551 323.824 284.53 324.49 283.296C325.156 282.061 324.604 271.165 324.49 270.268C324.448 269.906 324.172 267.903 323.854 265.631C325.288 264.586 327.153 263.29 329.186 262.062C333.055 259.715 332.185 257.24 331.867 256.595ZM273.57 412.321C273.57 412.321 270.217 421.08 271.561 423.322C272.904 425.564 271.339 433.887 271.339 433.887L270.217 446.239C270.217 446.239 267.093 469.15 268.208 474.537C269.084 478.763 269.408 491.385 269.51 496.649C269.433 496.68 269.359 496.717 269.288 496.76L269.138 496.84C269.654 494.77 269.438 490.581 266.877 482.153L266.661 447.345C266.661 447.345 266.265 407.137 269.366 402.641C272.466 398.145 273.564 390.51 273.564 390.51C273.564 390.51 272.892 401.523 272.454 404.441C272.017 407.358 273.57 412.321 273.57 412.321ZM267.326 498.842C267.296 498.916 267.26 498.989 267.236 499.057L267.069 498.836C267.154 498.844 267.24 498.846 267.326 498.842Z" fill="url(#paint0_linear)"/>
<path d="M301.519 512.638C299.786 513.319 290.387 514.48 287.761 514.155C285.134 513.829 281.655 512.466 280.665 510.684C279.676 508.903 274.128 506.213 272.64 506.385C272.031 506.403 271.422 506.316 270.841 506.127C269.815 505.808 268.813 505.414 267.842 504.947C267.707 504.173 267.729 503.378 267.908 502.613C267.943 502.459 267.987 502.307 268.04 502.159C268.39 501.151 269.114 500.326 270.055 499.862L270.271 499.757C270.687 499.573 271.122 499.437 271.567 499.352C276.281 498.424 295.731 500.285 295.731 500.285C295.731 500.285 296.277 501.287 297.027 502.527C297.963 504.063 299.234 505.936 300.194 506.643C301.257 507.573 301.978 508.847 302.239 510.254C302.467 511.342 302.299 512.337 301.519 512.638Z" fill="white"/>
<path opacity="0.1" d="M301.519 512.638C299.786 513.319 290.394 514.48 287.767 514.155C285.14 513.829 281.661 512.459 280.665 510.684C279.67 508.909 274.134 506.213 272.646 506.385C271.159 506.557 267.848 504.947 267.848 504.947C267.848 504.947 267.332 502.49 268.832 500.814L271.831 502.994C271.831 502.994 279.856 505.543 281.343 507.908C282.83 510.273 285.541 511.593 289.458 511.833C292.385 512.029 299.108 510.862 302.257 510.279C302.467 511.342 302.305 512.337 301.519 512.638Z" fill="black"/>
<path d="M272.808 515.77C269.271 515.7 265.732 515.87 262.216 516.28C256.585 516.956 252.284 514.437 251.535 513.399C250.785 512.361 246.904 508.854 243.924 507.625C242.466 507.048 242.124 505.169 242.19 503.412C242.19 503.32 242.19 503.215 242.19 503.123C242.245 502.01 242.406 500.906 242.67 499.825L266.007 499.315L268.028 502.122L268.34 502.552L269.57 504.266C269.57 504.266 270.127 505.015 270.859 506.108C272.095 507.951 273.822 510.672 274.284 512.472C275.021 515.353 272.808 515.77 272.808 515.77Z" fill="white"/>
<path opacity="0.1" d="M272.808 515.77C269.271 515.7 265.732 515.87 262.216 516.28C256.591 516.956 252.284 514.437 251.541 513.399C250.797 512.361 246.904 508.823 243.924 507.638C242.466 507.06 242.124 505.181 242.19 503.424C243.858 503.823 247.36 504.843 248.734 506.618C250.533 508.989 253.754 512.975 258.33 513.227C262.025 513.43 271.021 512.754 274.32 512.484C275.028 515.352 272.808 515.77 272.808 515.77Z" fill="black"/>
<path opacity="0.1" d="M270.031 499.837C269.762 501.889 268.928 502.441 268.328 502.564C268.182 502.593 268.031 502.593 267.884 502.564C267.805 502.558 267.727 502.546 267.65 502.527C267.65 502.527 246.694 507.269 242.46 503.43C242.353 503.331 242.252 503.225 242.16 503.111C242.215 501.998 242.376 500.893 242.64 499.812L265.977 499.303L267.998 502.11C268.348 501.102 269.072 500.276 270.013 499.812L270.031 499.837Z" fill="black"/>
<path opacity="0.1" d="M297.021 502.503C296.553 503.031 296.163 503.332 295.917 503.228C294.814 502.773 285.769 501.194 282.896 502.552C280.024 503.909 270.301 502.773 270.301 502.773C270.301 502.773 270.301 501.594 270.247 499.702C270.663 499.518 271.098 499.382 271.543 499.296C276.257 498.369 295.707 500.23 295.707 500.23C295.707 500.23 296.277 501.262 297.021 502.503Z" fill="black"/>
<path d="M310.708 363.564L308.057 382.322L304.974 394.754L300.56 418.255V443.131C300.56 443.131 303.427 492.626 302.323 493.977C301.219 495.329 297.027 503.025 295.923 502.576C294.82 502.128 285.775 500.543 282.902 501.895C280.03 503.246 270.307 502.122 270.307 502.122C270.307 502.122 270.085 482.915 268.982 477.491C267.878 472.068 270.967 449.015 270.967 449.015L272.071 436.59C272.071 436.59 273.618 428.224 272.293 425.963C270.967 423.703 274.278 414.907 274.278 414.907C274.278 414.907 272.736 409.926 273.18 406.99C273.624 404.054 274.278 392.979 274.278 392.979C274.278 392.979 273.18 400.669 270.115 405.184C267.051 409.698 267.44 450.158 267.44 450.158L267.656 485.169C273.18 503.707 267.656 501.895 267.656 501.895C267.656 501.895 246.701 506.643 242.466 502.798C238.232 498.952 239.443 474.752 239.443 474.752C239.443 474.752 239.005 455.317 240.769 449.445C242.532 443.573 243.09 421.873 243.09 421.873C243.09 421.873 242.976 378.477 243.09 375.547C243.174 373.09 243.09 351.095 243.09 344.221C243.09 342.944 243.09 342.188 243.09 342.188L245.621 335.751L275.609 331.906H289.956C289.956 331.906 311.547 337.103 313.778 339.344C313.826 339.382 313.867 339.427 313.898 339.48C315.344 341.648 310.708 363.564 310.708 363.564Z" fill="#E83C38"/>
<path opacity="0.1" d="M274.296 462.099C274.296 462.099 280.893 478.37 284.006 479.5C287.119 480.63 274.296 462.099 274.296 462.099Z" fill="black"/>
<path opacity="0.1" d="M276.737 486.054C276.737 486.054 299.012 487.184 298.79 489.671C298.568 492.159 276.737 486.054 276.737 486.054Z" fill="black"/>
<path opacity="0.1" d="M246.934 479.549C247.816 480.403 263.926 482.006 262.6 483.566C261.275 485.126 248.26 488.16 248.26 488.16L246.934 479.549Z" fill="black"/>
<path opacity="0.1" d="M244.289 451.479C244.289 452.154 247.6 473.173 248.488 474.076C249.375 474.979 256.651 475.882 256.651 475.882L244.289 451.479Z" fill="black"/>
<path d="M268.31 164.178C265.149 167.796 263.782 172.925 260.099 175.983C257.862 177.826 255.031 178.705 252.428 179.958C249.825 181.211 247.246 183.121 246.473 185.959C245.609 189.153 247.276 192.414 248.152 195.608C249.058 198.913 249.112 202.365 249.166 205.823C249.226 210.006 249.291 214.189 249.22 218.372C249.112 224.889 248.584 231.707 245.207 237.229C257.4 241.203 270.367 241.743 283.154 242.253C285.612 242.432 288.08 242.369 290.525 242.062C292.644 241.63 294.74 241.087 296.805 240.435C300.887 239.329 305.094 238.777 309.316 238.795C311.157 238.795 313.035 238.911 314.81 238.42C316.585 237.929 318.295 236.67 318.775 234.851C319.2 233.218 318.577 231.479 317.761 230.011C316.273 227.333 314.162 225.097 312.567 222.456C310.938 219.666 309.972 216.524 309.746 213.282C309.52 210.04 310.04 206.788 311.265 203.79C312.681 200.418 314.96 197.482 316.351 194.103C317.777 190.476 318.156 186.506 317.443 182.665C316.731 178.824 314.957 175.273 312.333 172.433C307.493 167.36 300.548 165.394 293.902 164.35C291.104 164.011 288.435 162.955 286.141 161.279C283.592 159.559 280.287 159.141 277.301 159.522C273.855 159.917 270.663 161.57 268.31 164.178Z" fill="#3F3D56"/>
<g opacity="0.1">
<path opacity="0.1" d="M311.451 200.246C310.228 203.205 309.704 206.419 309.922 209.625C310.056 207.332 310.574 205.08 311.451 202.967C312.861 199.595 315.14 196.658 316.531 193.28C317.669 190.459 318.147 187.405 317.929 184.362C317.805 186.495 317.333 188.592 316.531 190.565C315.14 193.944 312.861 196.873 311.451 200.246Z" fill="black"/>
<path opacity="0.1" d="M249.345 204.987C249.381 207.395 249.417 209.809 249.423 212.217C249.423 208.9 249.393 205.589 249.345 202.279C249.297 198.845 249.238 195.369 248.332 192.058C247.732 189.957 246.844 187.826 246.533 185.707C245.999 188.716 247.516 191.769 248.332 194.773C249.238 198.053 249.297 201.554 249.345 204.987Z" fill="black"/>
<path opacity="0.1" d="M315.014 234.907C313.215 235.404 311.367 235.294 309.526 235.281C305.307 235.254 301.102 235.795 297.021 236.891C294.956 237.54 292.86 238.081 290.741 238.512C288.294 238.823 285.824 238.889 283.364 238.709C271.009 238.211 258.48 237.677 246.647 234.059C246.295 234.862 245.895 235.642 245.447 236.393C257.64 240.361 270.607 240.908 283.388 241.418C285.848 241.598 288.318 241.532 290.765 241.221C292.877 240.794 294.965 240.255 297.021 239.606C301.094 238.506 305.29 237.959 309.502 237.978C311.343 237.978 313.215 238.095 314.99 237.597C316.765 237.099 318.475 235.853 318.954 234.034C319.157 233.192 319.136 232.31 318.894 231.479C318.361 233.199 316.711 234.397 315.014 234.907Z" fill="black"/>
</g>
<path d="M297.249 227.628C296.805 228.648 294.934 237.456 294.49 238.359C294.046 239.262 291.623 253.714 291.401 254.525C291.179 255.336 275.429 251.135 275.429 251.135L265.947 242.996L256.201 233.064C256.201 233.064 255.913 224.102 263.092 221.228C263.58 221.032 264.081 220.871 264.592 220.749C273.3 218.605 272.424 191.487 272.424 191.487L290.298 199.392C290.298 199.392 286.987 215.214 287.101 218.267C287.131 219.293 287.916 219.932 288.942 220.319C290.528 220.781 292.179 220.963 293.824 220.859C293.824 220.859 297.693 226.615 297.249 227.628Z" fill="#FBBEBE"/>
<path d="M329.246 257.345L331.783 258.026C331.783 258.026 333.661 260.95 329.246 263.671C326.443 265.415 323.753 267.341 321.192 269.439L308.147 273.505L305.634 265.428L317.773 255.993L329.246 257.345Z" fill="#E83C38"/>
<path opacity="0.1" d="M329.246 257.345L331.783 258.026C331.783 258.026 333.661 260.95 329.246 263.671C326.443 265.415 323.753 267.341 321.192 269.439L308.147 273.505L305.634 265.428L317.773 255.993L329.246 257.345Z" fill="black"/>
<path d="M234.045 265.145L228.971 270.231C228.971 270.231 238.124 281.078 245.165 281.754C252.206 282.43 256.747 273.505 256.747 273.505L250.653 263.677L234.045 265.145Z" fill="#E83C38"/>
<path opacity="0.1" d="M234.045 265.145L228.971 270.231C228.971 270.231 238.124 281.078 245.165 281.754C252.206 282.43 256.747 273.505 256.747 273.505L250.653 263.677L234.045 265.145Z" fill="black"/>
<path opacity="0.1" d="M282.243 209.207C291.991 209.207 299.894 201.114 299.894 191.13C299.894 181.147 291.991 173.054 282.243 173.054C272.494 173.054 264.592 181.147 264.592 191.13C264.592 201.114 272.494 209.207 282.243 209.207Z" fill="black"/>
<path d="M282.243 207.85C291.991 207.85 299.894 199.757 299.894 189.773C299.894 179.789 291.991 171.696 282.243 171.696C272.494 171.696 264.592 179.789 264.592 189.773C264.592 199.757 272.494 207.85 282.243 207.85Z" fill="#FBBEBE"/>
<path opacity="0.1" d="M313.91 341.531C309.891 342.002 305.932 342.91 302.101 344.24C295.504 346.488 243.804 344.277 243.084 344.24C243.084 342.962 243.084 342.207 243.084 342.207L245.615 335.77L275.603 331.925H289.95C289.95 331.925 311.541 337.121 313.772 339.363C313.862 340.714 313.91 341.531 313.91 341.531Z" fill="black"/>
<path opacity="0.1" d="M297.249 227.628C296.805 228.648 294.934 237.456 294.49 238.359C294.046 239.262 291.623 253.714 291.401 254.525C291.179 255.336 275.429 251.135 275.429 251.135L265.947 242.996L256.201 233.064C256.201 233.064 255.913 224.102 263.092 221.228L280.917 242.216L288.942 220.319C290.528 220.781 292.179 220.964 293.824 220.859C293.824 220.859 297.693 226.615 297.249 227.628Z" fill="black"/>
<path d="M280.917 242.892L262.672 221.394C261.604 220.695 260.384 220.28 259.12 220.185C257.856 220.089 256.59 220.317 255.433 220.847C251.349 222.659 246.275 224.127 244.949 225.03C243.624 225.933 238.658 231.522 238.658 231.522L253.448 271.146L246.934 297.245C246.934 297.245 247.93 310.58 245.393 315.439C243.848 318.545 243.125 322.012 243.294 325.493C243.294 325.493 244.068 331.937 243.186 335.321C242.671 337.584 242.632 339.933 243.072 342.213C243.072 342.213 295.486 344.473 302.101 342.213C305.931 340.879 309.891 339.971 313.91 339.504C313.91 339.504 312.711 316.9 311.511 311.477C310.312 306.053 312.507 285.378 312.507 285.378L311.073 263.229L319.674 240.502C319.674 240.502 315.014 225.933 310.156 224.465C310.156 224.465 301.333 222.315 299.456 221.301C297.579 220.288 292.061 219.379 292.061 219.379L289.164 220.374L280.917 242.892Z" fill="#E83C38"/>
<path opacity="0.1" d="M306.373 262.481L267.98 259.807C267.009 259.74 266.168 260.492 266.101 261.487L261.98 323.565C261.914 324.56 262.648 325.421 263.619 325.489L302.012 328.163C302.983 328.23 303.825 327.479 303.891 326.484L308.012 264.405C308.078 263.41 307.344 262.549 306.373 262.481Z" fill="black"/>
<path d="M307.695 261.133L269.302 258.459C268.331 258.392 267.49 259.143 267.423 260.138L263.302 322.217C263.236 323.212 263.97 324.073 264.941 324.141L303.334 326.814C304.305 326.882 305.147 326.13 305.213 325.135L309.334 263.057C309.4 262.062 308.666 261.2 307.695 261.133Z" fill="#3F3D56"/>
<path d="M306.428 265.999L269.914 263.456L266.162 319.97L302.675 322.513L306.428 265.999Z" fill="white"/>
<path opacity="0.1" d="M303.154 280.424L273.327 278.286L272.745 286.799L302.572 288.937L303.154 280.424Z" fill="black"/>
<path opacity="0.1" d="M302.074 314.255L297.341 313.925L297.047 318.362L301.78 318.692L302.074 314.255Z" fill="black"/>
<path opacity="0.1" d="M297.406 303.547L273.177 301.86L272.882 306.297L297.111 307.984L297.406 303.547Z" fill="black"/>
<path d="M301.908 263.886L276.681 262.129L276.228 268.95L301.456 270.707L301.908 263.886Z" fill="#3F3D56"/>
<path opacity="0.1" d="M301.908 263.886L276.681 262.129L276.228 268.95L301.456 270.707L301.908 263.886Z" fill="black"/>
<path opacity="0.1" d="M283.124 340.284C283.124 340.284 282.902 373.735 274.296 392.942C274.296 392.942 284.672 367.63 284.672 366.616C284.672 365.603 290.405 354.977 288.87 351.813C287.335 348.65 283.124 340.284 283.124 340.284Z" fill="black"/>
<path opacity="0.1" d="M283.592 185.252C283.262 182.291 283.97 179.307 285.589 176.831C285.397 179.313 286.082 181.783 287.52 183.79C288.958 185.797 291.053 187.208 293.422 187.764C293.22 187.585 293.076 187.347 293.008 187.081C292.941 186.816 292.953 186.536 293.044 186.278C294.274 187.703 295.216 189.392 296.607 190.645C297.999 191.898 300.086 192.648 301.723 191.757C303.948 190.528 303.972 187.291 303.396 184.773C302.161 179.41 299.626 174.452 296.025 170.357C295.127 169.119 293.961 168.111 292.619 167.412C291.276 166.713 289.794 166.342 288.288 166.328C284.882 166.057 281.343 166.365 278.29 167.931C276.572 168.891 274.963 170.042 273.492 171.364L265.095 178.379C264.287 178.975 263.596 179.721 263.056 180.578C262.696 181.294 262.48 182.078 262.42 182.881C262.206 185.179 262.621 187.492 263.619 189.561C264.617 191.63 266.158 193.373 268.07 194.595C268.03 192.779 268.517 190.992 269.471 189.461C270.425 187.93 271.801 186.723 273.426 185.995C273.681 186.213 273.887 186.485 274.03 186.791C274.174 187.097 274.252 187.431 274.26 187.771L276.029 184.54C276.292 183.952 276.707 183.448 277.229 183.084C278.32 182.47 279.682 183.195 280.611 184.061C281.541 184.927 282.447 186.008 283.694 186.143L283.742 181.333" fill="black"/>
<path d="M283.592 184.577C283.262 181.614 283.969 178.627 285.589 176.149C285.05 181.063 288.666 186.137 293.428 187.083C293.226 186.904 293.081 186.667 293.014 186.403C292.946 186.138 292.959 185.859 293.05 185.602C294.28 187.027 295.222 188.71 296.613 189.97C298.005 191.229 300.092 191.972 301.729 191.075C303.954 189.847 303.978 186.61 303.402 184.097C302.167 178.734 299.632 173.776 296.031 169.681C294.914 168.287 293.506 167.166 291.911 166.401C290.756 165.964 289.542 165.711 288.312 165.652C284.906 165.382 281.367 165.683 278.314 167.249C276.597 168.213 274.988 169.367 273.516 170.689L265.119 177.703C264.31 178.298 263.618 179.044 263.08 179.902C262.719 180.618 262.503 181.402 262.444 182.206C262.23 184.502 262.646 186.814 263.644 188.882C264.642 190.95 266.183 192.692 268.094 193.913C268.055 192.098 268.544 190.311 269.497 188.78C270.451 187.249 271.826 186.043 273.45 185.314C273.704 185.532 273.909 185.804 274.053 186.11C274.197 186.416 274.275 186.749 274.284 187.089L276.047 183.87C276.309 183.281 276.724 182.778 277.247 182.414C278.338 181.8 279.7 182.525 280.629 183.391C281.559 184.257 282.465 185.332 283.712 185.473L283.76 180.658" fill="#3F3D56"/>
<path d="M291.953 298.596C290.411 297.798 264.921 301.87 264.921 301.87C264.921 301.87 260.723 300.642 250.575 298.934C240.427 297.227 239.779 287.067 239.779 287.067L238.67 266.73L242.094 263.659L256.765 273.487C256.765 273.487 256.992 278.456 256.765 279.352C256.621 279.967 256.237 280.698 256.273 281.195C256.284 281.33 256.338 281.457 256.427 281.557C256.516 281.657 256.635 281.724 256.765 281.748C257.76 282.006 271.327 284.254 271.327 284.254C271.327 284.254 302.773 282.049 310.612 292.896C311.233 293.692 311.703 294.601 311.997 295.574C313.94 302.988 293.35 299.303 291.953 298.596Z" fill="#FBBEBE"/>
<path opacity="0.1" d="M312.015 295.617C310.816 296.164 310.072 296.557 310.072 296.557C310.072 296.557 298.82 296.219 292.499 293.873C286.177 291.527 278.494 291.944 278.494 291.944C278.494 291.944 252.152 287.301 256.237 281.238C256.248 281.373 256.302 281.5 256.391 281.6C256.48 281.7 256.599 281.767 256.729 281.791C257.724 282.049 271.291 284.297 271.291 284.297C271.291 284.297 302.737 282.092 310.576 292.939C311.216 293.731 311.704 294.64 312.015 295.617Z" fill="black"/>
<path d="M322.955 259.832C322.955 259.832 324.502 271.017 324.61 271.926C324.718 272.835 325.276 283.787 324.61 285.034C323.944 286.281 322.955 288.308 322.955 288.308C322.955 288.308 324.058 290.679 319.644 291.588C315.23 292.497 310.048 295.2 310.048 295.2C310.048 295.2 298.79 294.862 292.505 292.491C286.219 290.12 278.494 290.568 278.494 290.568C278.494 290.568 245.057 284.69 259.404 277.516C273.75 270.342 283.898 280.059 283.898 280.059L299.894 279.045C299.894 279.045 305.856 275.311 307.511 275.655C308.68 275.807 309.867 275.611 310.93 275.09L311.044 263.223L322.955 259.832Z" fill="#FBBEBE"/>
<path opacity="0.1" d="M241.842 232.376L238.64 232.204L228.935 270.901C228.935 270.901 239.413 268.186 243.93 270.901C248.446 273.616 256.729 274.175 256.729 274.175L253.64 243.328L241.842 232.376Z" fill="black"/>
<path d="M241.842 231.694L238.64 231.522L228.935 270.219C228.935 270.219 239.413 267.504 243.93 270.219C248.446 272.934 256.729 273.493 256.729 273.493L253.64 242.646L241.842 231.694Z" fill="#E83C38"/>
<path opacity="0.1" d="M315.236 240.171L319.644 241.19C319.644 241.19 330.902 257.774 331.783 258.702C332.665 259.629 327.585 263.002 325.492 263.002C323.399 263.002 313.137 264.23 310.156 267.068C307.175 269.906 308.416 255.625 308.416 255.299C308.416 254.974 312.117 245.963 312.117 245.963L315.236 240.171Z" fill="black"/>
<path d="M315.236 239.495L319.644 240.508C319.644 240.508 330.902 257.123 331.783 258.026C332.665 258.929 327.585 262.326 325.492 262.326C323.399 262.326 313.137 263.554 310.156 266.392C307.175 269.23 308.416 254.949 308.416 254.624C308.416 254.298 312.141 245.256 312.141 245.256L315.236 239.495Z" fill="#E83C38"/>
<g opacity="0.1">
<path opacity="0.1" d="M285.559 176.205C285.533 175.734 285.543 175.261 285.589 174.792C284.676 176.195 284.048 177.772 283.742 179.429V180.854C283.742 180.854 283.742 180.824 283.742 180.805V181.143C283.742 182.138 283.742 183.139 283.712 184.134H283.628V184.595C283.628 184.435 283.628 184.282 283.598 184.122C282.399 183.925 281.541 182.894 280.647 182.071C279.754 181.247 278.356 180.461 277.265 181.094C276.742 181.457 276.327 181.961 276.065 182.55L274.284 185.768C274.276 185.429 274.197 185.096 274.054 184.791C273.91 184.486 273.704 184.216 273.45 183.999C271.825 184.727 270.449 185.933 269.495 187.465C268.541 188.996 268.054 190.783 268.094 192.598C266.456 191.547 265.085 190.111 264.095 188.41C263.105 186.708 262.525 184.79 262.402 182.814C262.298 185.021 262.771 187.216 263.771 189.174C264.772 191.131 266.264 192.78 268.094 193.95C268.055 192.134 268.544 190.348 269.497 188.817C270.451 187.286 271.826 186.08 273.45 185.35C273.704 185.569 273.909 185.841 274.053 186.146C274.197 186.452 274.275 186.786 274.284 187.126L276.047 183.907C276.309 183.318 276.724 182.814 277.247 182.451C278.338 181.837 279.7 182.562 280.629 183.428C281.559 184.294 282.465 185.369 283.712 185.51C283.712 183.938 283.728 182.369 283.76 180.805C284.054 179.164 284.666 177.6 285.559 176.205Z" fill="black"/>
<path opacity="0.1" d="M283.532 182.39C283.562 181.972 283.611 181.555 283.671 181.161L283.737 179.466C283.556 180.429 283.487 181.411 283.532 182.39Z" fill="black"/>
<path opacity="0.1" d="M301.729 189.718C300.092 190.614 298.005 189.865 296.613 188.612C295.222 187.359 294.28 185.67 293.05 184.245C292.96 184.503 292.947 184.783 293.014 185.048C293.082 185.313 293.226 185.552 293.428 185.731C293.308 185.731 293.194 185.67 293.08 185.639C294.28 187.052 295.234 188.71 296.613 189.939C297.993 191.167 300.092 191.941 301.729 191.044C303.366 190.148 303.834 188.047 303.69 186.002C303.582 187.611 303.019 189.005 301.729 189.718Z" fill="black"/>
<path opacity="0.1" d="M293.045 185.627C291.039 185.067 289.248 183.893 287.912 182.261C286.577 180.63 285.76 178.62 285.571 176.499C285.23 181.321 288.78 186.155 293.428 187.083C293.23 186.907 293.088 186.674 293.02 186.415C292.951 186.155 292.96 185.881 293.045 185.627Z" fill="black"/>
</g>
<path d="M581.076 286.017C581.076 286.017 578.713 285.679 578.713 282.16C578.713 278.64 577.022 272.049 577.022 272.049C577.022 272.049 575.559 260.582 573.537 258.763C571.516 256.945 568.919 246.27 568.919 246.27C568.919 246.27 568.475 240.478 567.57 239.231C566.664 237.984 565.441 234.931 563.635 230.576C561.83 226.221 554.321 223.236 554.321 223.236C554.321 223.236 540.712 215.153 536.856 212.518C536.503 212.3 536.173 212.044 535.872 211.756C535.2 210.86 532.273 210.841 532.273 210.841C531.968 208.857 531.674 206.584 531.578 204.527C531.578 204.306 531.578 204.085 531.578 203.863C535.878 201.26 539.117 197.156 540.7 192.304C540.772 192.07 540.832 191.831 540.898 191.591C541.161 191.508 541.404 191.369 541.611 191.182C541.818 190.996 541.984 190.767 542.098 190.51C542.439 189.718 542.451 188.796 542.883 188.053C543.387 187.181 544.347 186.714 545.102 186.063C547.01 184.398 547.502 181.604 547.412 179.067C547.352 177.003 547.028 174.927 547.154 172.882C547.154 172.71 547.154 172.538 547.19 172.366C547.226 172.065 547.268 171.751 547.322 171.457C547.615 169.933 548.257 168.496 548.617 166.985C548.977 165.474 549.013 163.773 548.173 162.47C546.944 160.56 544.383 160.179 542.134 160.013C539.585 159.792 537.335 160.075 535.674 157.907C534.912 156.774 534.053 155.714 533.107 154.737C532.771 154.418 529.509 152.372 529.509 152.243C526.316 150.723 522.695 150.438 519.312 151.439C517.615 151.942 516.026 152.766 514.304 153.177C510.61 154.074 506.352 153.103 503.209 155.272C501.457 156.5 500.408 158.459 499.424 160.357C498.625 161.922 497.813 163.488 496.989 165.056C495.658 167.63 494.314 170.247 493.756 173.097C493.64 173.719 493.566 174.349 493.535 174.982C493.535 175.21 493.535 175.437 493.535 175.664C493.535 175.762 493.535 175.861 493.535 175.959C493.535 176.168 493.535 176.377 493.571 176.573C493.607 176.77 493.571 176.825 493.613 176.954C493.654 177.083 493.666 177.372 493.702 177.568C493.738 177.765 493.81 178.115 493.882 178.379C493.882 178.496 493.954 178.606 493.99 178.723C494.026 178.84 494.122 179.134 494.2 179.337C494.278 179.54 494.284 179.552 494.332 179.657C494.422 179.872 494.53 180.08 494.638 180.271C494.686 180.351 494.722 180.43 494.77 180.51C494.935 180.798 495.119 181.073 495.322 181.333C496.599 182.973 498.495 184.018 499.892 185.553C499.892 185.615 499.892 185.676 499.892 185.737C499.892 185.903 499.892 186.069 499.892 186.241C499.978 189.666 500.879 193.018 502.518 196.005C504.157 198.991 506.484 201.523 509.296 203.378C509.296 203.612 509.326 203.851 509.338 204.091C509.455 205.912 509.433 207.74 509.272 209.557C509.028 209.263 508.722 209.029 508.377 208.872C508.033 208.715 507.658 208.638 507.281 208.648C507.023 208.635 506.765 208.658 506.513 208.716L506.459 208.673V208.728C505.14 209.06 503.515 210.466 501.961 214.465C501.961 214.465 497.235 219.919 493.636 219.692C490.038 219.465 480.927 225.374 480.927 225.374C480.927 225.374 472.039 231.277 470.132 237.296C469.065 240.71 467.785 244.05 466.299 247.296L455.281 270.465L453.26 288.891C453.26 288.891 454.382 297.067 454.16 298.32C453.938 299.573 458.772 310.813 458.772 310.813C458.772 310.813 474.744 339.547 481.269 341.021L481.737 340.69C482.018 340.835 482.313 340.946 482.619 341.021L483.962 340.057C484.045 341.137 484.009 342.223 483.854 343.294C482.961 346.138 484.196 364.651 485.768 368.281C487.339 371.911 486.781 419.514 486.781 419.514L486.559 423.709C486.559 423.709 486.559 423.844 486.613 424.078L486.559 425.073L486.721 425.159C486.889 426.493 486.834 427.848 486.559 429.164C485.995 431.006 485.768 436.209 485.768 436.209C485.768 436.209 481.269 465.618 483.404 471.527C485.54 477.436 487.345 483.91 487.345 483.91C487.345 483.91 489.594 491.281 487.453 492.509C485.312 493.738 479.248 495.918 480.484 498.983C481.623 501.821 485.947 509.425 486.589 510.537L486.535 511.151L485.654 520.936C485.796 522.228 486.138 523.488 486.667 524.67C487.633 526.808 489.504 529.013 493.079 528.773C493.678 528.73 494.368 528.663 495.046 528.571C501.577 527.668 509.614 524.683 509.614 524.683C509.198 524.412 508.817 524.088 508.481 523.718C508.16 523.4 507.905 523.018 507.733 522.595C507.561 522.173 507.474 521.719 507.479 521.261C507.575 519.474 504.318 510.991 503.503 508.897L503.317 508.43C503.317 508.43 510.742 500.476 509.506 493.437C509.506 493.437 501.29 488.523 503.994 485.82C506.699 483.118 511.534 475.378 511.534 475.378C511.534 475.378 511.755 446.417 511.534 442.099C511.302 439.096 511.441 436.075 511.947 433.107C512.037 432.665 512.145 432.229 512.259 431.792C516.003 432.371 519.784 432.665 523.571 432.671C524.954 432.671 526.354 432.642 527.769 432.585C527.769 432.994 527.787 433.437 527.823 433.912C528.135 441.086 528.717 453.671 529.191 458.346C529.862 465.041 533.575 483.105 533.575 483.105C533.575 483.105 526.492 487.755 534.81 499.235C534.81 499.235 534.81 503.387 534.259 503.995C533.669 505.965 533.194 507.969 532.837 509.996C532.489 512.152 532.345 514.345 532.909 515.475C534.259 518.19 542.356 517.969 542.356 517.969C542.421 517.954 542.487 517.943 542.553 517.938C544.082 517.773 545.627 517.921 547.099 518.375C548.57 518.828 549.939 519.578 551.124 520.58C554.201 523.11 565.872 522.005 572.2 521.194C574.677 520.868 576.332 520.58 576.332 520.58C576.412 520.292 576.44 519.993 576.416 519.695C576.35 518.104 575.133 514.615 566.88 511.501C566.88 511.501 559.119 506.157 559.227 501.502H559.053H558.159C558.723 501.483 559.119 501.483 559.119 501.483C559.119 501.483 556.078 490.126 557.32 489.199C558.561 488.271 554.843 475.685 554.843 475.685C554.843 475.685 552.713 454.556 552.594 453.082C552.601 451.811 552.791 450.549 553.157 449.335L552.594 437.744C552.594 437.744 552.486 433.893 552.594 432.64C552.582 431.552 552.497 430.467 552.342 429.391C552.288 428.961 552.234 428.512 552.174 428.07C555.083 427.315 556.972 426.621 556.972 426.621L556.636 386.296C559.107 381.382 559.563 370.597 559.551 362.955C559.551 358.042 559.335 354.405 559.335 354.405L562.712 348.761C562.712 348.761 563.491 342.004 562.256 340.524C561.71 339.854 561.956 339.16 562.406 338.589C562.642 338.39 562.893 338.21 563.155 338.048C563.126 338.006 563.1 337.96 563.077 337.913C563.313 337.712 563.564 337.529 563.827 337.367C563.827 337.367 562.628 335.463 563.701 334.658C564.709 335.358 565.608 335.917 566.292 336.316C566.244 336.765 566.196 337.023 566.196 337.023L566.484 336.408C567.144 336.789 567.546 337.023 567.546 337.023C567.546 337.023 572.836 326.231 572.722 324.646C572.608 323.061 576.32 316.354 576.32 316.354C576.32 316.354 576.77 312.828 578.797 311.354C580.825 309.88 580.369 299.198 580.369 299.198C580.369 299.198 580.933 293.633 582.282 291.367C583.631 289.1 581.076 286.017 581.076 286.017ZM479.86 281.281L479.962 283.855C479.362 282.866 478.93 282.16 478.93 282.16L479.86 281.281Z" fill="url(#paint1_linear)"/>
<path d="M567.858 332.355L566.562 338.005C566.562 338.005 556.186 332.569 554.321 325.69C552.456 318.811 557.446 316.188 557.446 316.188L567.12 320.377L567.858 332.355Z" fill="white"/>
<path opacity="0.1" d="M567.858 332.355L566.562 338.005C566.562 338.005 556.186 332.569 554.321 325.69C552.456 318.811 557.446 316.188 557.446 316.188L567.12 320.377L567.858 332.355Z" fill="black"/>
<path d="M509.626 524.677C509.626 524.677 500.03 528.288 493.433 528.743C489.93 528.982 488.089 526.783 487.141 524.664C486.626 523.496 486.29 522.253 486.146 520.979L487.015 511.243L487.471 506.065L501.488 502.331L503.473 508.553L503.659 509.02C504.45 511.102 507.653 519.542 507.557 521.304C507.549 521.76 507.632 522.213 507.8 522.636C507.968 523.058 508.218 523.441 508.535 523.761C508.859 524.113 509.226 524.42 509.626 524.677Z" fill="white"/>
<path d="M575.145 519.726C575.17 520.023 575.141 520.323 575.061 520.61C575.061 520.61 554.537 524.111 550.338 520.61C549.158 519.588 547.783 518.828 546.3 518.381C544.817 517.933 543.259 517.808 541.726 518.012C541.726 518.012 533.785 518.233 532.459 515.555C531.908 514.431 532.052 512.251 532.394 510.107C532.743 508.091 533.207 506.097 533.785 504.137L534.103 503.879L535.992 502.325L558.111 501.655H558.279C558.171 506.286 565.782 511.599 565.782 511.599C573.885 514.671 575.079 518.141 575.145 519.726Z" fill="white"/>
<path opacity="0.1" d="M575.151 519.726C575.172 520.024 575.142 520.323 575.061 520.61C575.061 520.61 554.537 524.111 550.344 520.61C549.164 519.587 547.787 518.827 546.303 518.38C544.819 517.932 543.26 517.807 541.726 518.012C541.726 518.012 533.779 518.233 532.453 515.555C531.908 514.431 532.046 512.251 532.387 510.101C535.446 510.414 540.274 511.194 542.17 513.061C545.037 515.887 549.895 518.712 552.87 518.94C555.221 519.087 569.201 519.542 575.151 519.726Z" fill="black"/>
<path opacity="0.1" d="M509.626 524.676C509.626 524.676 500.03 528.288 493.433 528.743C489.93 528.982 488.089 526.783 487.141 524.664C489.588 525.506 492.977 526.384 494.758 525.579C496.869 524.615 504.354 524.001 508.553 523.737C508.869 524.096 509.23 524.412 509.626 524.676Z" fill="black"/>
<path d="M523.865 233.598C515.948 230.447 505.764 220.036 508.307 215.171C508.869 213.943 509.204 212.618 509.296 211.265C509.46 209.427 509.484 207.579 509.368 205.737C509.19 202.718 508.835 199.714 508.307 196.738C508.307 196.738 533.023 197.31 531.584 201.038C531.164 202.137 531.092 204.035 531.212 206.155C531.332 208.274 531.626 210.688 531.938 212.721C532.364 215.503 532.801 217.635 532.801 217.635C532.801 217.635 531.284 219.803 530.402 219.919C529.521 220.036 535.224 238.113 523.865 233.598Z" fill="#CF6F80"/>
<path opacity="0.1" d="M503.635 508.989L503.449 509.198C496.06 500.046 487.123 511.458 487.123 511.458L486.991 511.213L487.447 506.035L501.463 502.3L503.449 508.522L503.635 508.989Z" fill="black"/>
<path opacity="0.1" d="M558.291 502.3C558.291 502.3 552.894 502.19 550.015 504.794C547.136 507.398 533.221 505.353 533.821 504.794C533.996 504.51 534.103 504.188 534.133 503.854L536.022 502.3L558.141 501.631C558.225 502.061 558.291 502.3 558.291 502.3Z" fill="black"/>
<path d="M512.829 430.429C512.428 431.447 512.123 432.502 511.917 433.58C511.417 436.532 511.278 439.536 511.504 442.523C511.726 446.823 511.504 475.636 511.504 475.636C511.504 475.636 506.76 483.32 504.109 486.029C501.458 488.738 509.506 493.603 509.506 493.603C510.706 500.611 503.437 508.522 503.437 508.522C496.048 499.37 487.111 510.777 487.111 510.777C487.111 510.777 482.253 502.177 481.041 499.106C479.83 496.035 485.786 493.916 487.879 492.663C489.972 491.41 487.771 484.064 487.771 484.064C487.771 484.064 486.008 477.62 483.908 471.742C481.809 465.864 486.223 436.608 486.223 436.608C486.223 436.608 486.451 431.406 486.997 429.594C487.27 428.286 487.324 426.94 487.159 425.613C487.123 425.165 487.081 424.796 487.051 424.538C487.021 424.28 486.997 424.17 486.997 424.17L487.081 424.022L490.08 418.298C490.08 418.298 514.269 426.823 512.829 430.429Z" fill="#E83C38"/>
<path d="M558.291 501.624C558.291 501.624 552.894 501.508 550.015 504.081C547.136 506.655 533.221 504.646 533.821 504.081C534.421 503.516 534.367 499.339 534.367 499.339C526.204 487.921 533.167 483.29 533.167 483.29C533.167 483.29 529.527 465.323 528.867 458.659C528.405 454.009 527.835 441.46 527.529 434.354C527.397 431.283 527.319 429.164 527.319 429.164L533.929 427.818L534.787 427.646L550.872 424.336C550.872 424.336 551.316 427.407 551.616 429.919C551.768 430.991 551.85 432.073 551.862 433.156C551.76 434.384 551.862 438.236 551.862 438.236L552.414 449.759C552.058 450.968 551.872 452.224 551.862 453.487C551.976 454.961 554.069 475.974 554.069 475.974C554.069 475.974 557.71 488.517 556.468 489.42C555.227 490.323 558.291 501.624 558.291 501.624Z" fill="#E83C38"/>
<path opacity="0.1" d="M531.584 201.056C531.164 202.156 531.092 204.054 531.212 206.173C527.901 208.215 524.095 209.259 520.231 209.185C516.368 209.111 512.602 207.922 509.368 205.755C509.19 202.737 508.835 199.732 508.307 196.757C508.307 196.757 533.023 197.328 531.584 201.056Z" fill="black"/>
<path d="M541.126 187.494C541.191 193.067 539.092 198.438 535.29 202.426C531.488 206.414 526.296 208.692 520.854 208.759C515.412 208.826 510.167 206.676 506.273 202.782C502.379 198.889 500.155 193.571 500.09 187.998C500.09 187.826 500.09 187.666 500.09 187.494C500.09 181.92 502.252 176.573 506.101 172.632C509.95 168.69 515.171 166.475 520.614 166.475C526.057 166.475 531.278 168.69 535.127 172.632C538.976 176.573 541.138 181.92 541.138 187.494H541.126Z" fill="#CF6F80"/>
<path opacity="0.1" d="M523.865 233.598C515.948 230.447 505.764 220.036 508.307 215.171C508.869 213.943 509.204 212.618 509.296 211.265L520.134 220.392L526.84 226.025L531.938 212.739C532.364 215.522 532.801 217.653 532.801 217.653C532.801 217.653 531.284 219.821 530.402 219.938C529.521 220.055 535.224 238.113 523.865 233.598Z" fill="black"/>
<path d="M551.892 273.935L542.841 429.643L531.038 430.435L500.468 340.149L505.482 232.96L506.543 210.313L520.134 221.744L526.84 227.376L532.088 213.697L541.846 222.407L551.892 273.935Z" fill="#E83C38"/>
<path opacity="0.1" d="M512.829 430.429C512.428 431.447 512.122 432.502 511.917 433.58C503.32 432.224 494.971 429.555 487.147 425.662L486.985 425.576L487.039 424.588V424.072L490.038 418.347C490.038 418.347 514.268 426.823 512.829 430.429Z" fill="black"/>
<path opacity="0.1" d="M534.127 433.604C531.931 433.989 529.717 434.249 527.493 434.385C527.361 431.313 527.283 429.194 527.283 429.194L533.929 427.818L534.127 433.604Z" fill="black"/>
<path opacity="0.1" d="M551.64 429.919C547.376 431.055 540.784 432.333 534.895 431.534L534.811 427.646L550.896 424.336C550.896 424.336 551.322 427.382 551.64 429.919Z" fill="black"/>
<path opacity="0.1" d="M534.787 432.247C510.196 436.547 487.675 424.219 487.675 424.219L487.891 420.042C487.891 420.042 488.449 372.691 486.901 369.061C485.354 365.431 484.148 347.047 485.024 344.24C485.9 341.433 481.827 299.051 481.827 299.051L481.167 281.852L457.003 271.797L467.799 248.745C469.256 245.514 470.511 242.19 471.553 238.795C473.43 232.806 482.145 226.928 482.145 226.928C482.145 226.928 491.082 221.056 494.614 221.277C498.147 221.498 502.777 216.081 502.777 216.081C506.196 207.156 509.291 211.167 509.291 211.167C509.291 211.597 509.291 211.167 509.123 212.487C507.923 222.284 528.519 253.242 528.813 253.794L530.798 302.724L532.783 364.645L534.787 432.247Z" fill="black"/>
<path d="M534.127 432.247C509.536 436.547 487.009 424.219 487.009 424.219L487.231 420.042C487.231 420.042 487.783 372.691 486.235 369.061C484.688 365.431 483.482 347.028 484.364 344.197C485.246 341.365 481.149 299.026 481.149 299.026L480.484 281.828L456.325 271.773L467.121 248.721C468.575 245.49 469.829 242.169 470.875 238.776C472.753 232.806 481.497 226.922 481.497 226.922C481.497 226.922 490.434 221.05 493.96 221.271C497.487 221.492 502.141 216.081 502.141 216.081C505.566 207.156 509.338 211.167 509.338 211.167C509.338 211.597 508.978 211.781 509.17 212.487C511.809 221.989 527.907 253.242 528.201 253.794L530.186 302.724L532.129 364.675L534.127 432.247Z" fill="white"/>
<path opacity="0.1" d="M527.499 255.176C524.854 254.046 510.844 237.665 510.844 237.665V233.936C510.334 232.708 507.299 233.457 504.846 234.317L505.902 211.67L507.101 212.69C509.722 222.186 527.212 254.63 527.499 255.176Z" fill="black"/>
<path d="M528.165 253.825C525.514 252.689 511.504 236.313 511.504 236.313V232.579C510.994 231.35 507.965 232.1 505.506 232.96L506.543 210.337L507.743 211.351C510.388 220.835 527.871 253.272 528.165 253.825Z" fill="white"/>
<path opacity="0.1" d="M487.675 335.518C488.005 335.518 504.774 333.712 504.774 333.712C504.774 333.712 514.928 354.166 514.263 359.135C513.597 364.104 512.391 368.514 508.307 367.734C504.223 366.954 486.325 368.348 486.325 368.348L487.675 335.518Z" fill="black"/>
<path d="M487.009 334.16C487.345 334.16 504.114 332.355 504.114 332.355C504.114 332.355 514.263 352.839 513.603 357.753C512.943 362.667 511.726 367.132 507.647 366.352C503.569 365.572 485.66 366.966 485.66 366.966L487.009 334.16Z" fill="white"/>
<path d="M499.646 324.584C499.646 324.584 515.036 333.061 515.366 335.641C515.696 338.22 507.533 334.51 505.77 334.056C504.608 333.773 503.427 333.584 502.237 333.491L490.476 333.816L499.646 324.584Z" fill="#CF6F80"/>
<path opacity="0.1" d="M523.199 256.233C524.093 256.233 524.818 255.49 524.818 254.574C524.818 253.658 524.093 252.916 523.199 252.916C522.305 252.916 521.58 253.658 521.58 254.574C521.58 255.49 522.305 256.233 523.199 256.233Z" fill="black"/>
<path d="M523.199 255.557C524.093 255.557 524.818 254.815 524.818 253.899C524.818 252.983 524.093 252.24 523.199 252.24C522.305 252.24 521.58 252.983 521.58 253.899C521.58 254.815 522.305 255.557 523.199 255.557Z" fill="#3F3D56"/>
<path opacity="0.1" d="M526.18 328.024C527.074 328.024 527.799 327.282 527.799 326.366C527.799 325.45 527.074 324.707 526.18 324.707C525.286 324.707 524.561 325.45 524.561 326.366C524.561 327.282 525.286 328.024 526.18 328.024Z" fill="black"/>
<path d="M526.18 327.342C527.074 327.342 527.799 326.6 527.799 325.684C527.799 324.768 527.074 324.026 526.18 324.026C525.286 324.026 524.561 324.768 524.561 325.684C524.561 326.6 525.286 327.342 526.18 327.342Z" fill="#3F3D56"/>
<path opacity="0.1" d="M524.818 292.128C525.713 292.128 526.438 291.386 526.438 290.47C526.438 289.554 525.713 288.812 524.818 288.812C523.924 288.812 523.199 289.554 523.199 290.47C523.199 291.386 523.924 292.128 524.818 292.128Z" fill="black"/>
<path d="M524.818 291.453C525.713 291.453 526.438 290.71 526.438 289.794C526.438 288.878 525.713 288.136 524.818 288.136C523.924 288.136 523.199 288.878 523.199 289.794C523.199 290.71 523.924 291.453 524.818 291.453Z" fill="#3F3D56"/>
<path d="M562.148 333.147C562.148 333.147 563.251 334.842 562.148 335.604C561.044 336.365 562.256 338.319 562.256 338.319C562.256 338.319 559.503 339.965 560.714 341.457C561.926 342.95 561.158 349.651 561.158 349.651L557.848 355.296C557.848 355.296 558.045 358.914 558.057 363.803C558.057 371.432 557.62 382.156 555.197 387.046L555.52 427.161C555.52 427.161 543.927 431.504 534.223 430.177L532.783 365.806C532.783 365.806 534.882 329.302 535.656 322.3C536.109 318.664 536.293 314.999 536.208 311.336C536.208 311.336 535.878 300.378 534.769 295.298C534.769 295.298 533.569 273.259 533.449 267.16C533.395 264.242 533.545 255.729 533.713 247.634C533.899 238.783 534.109 230.435 534.109 230.435L531.92 212.69C531.92 212.69 534.109 212.469 534.769 213.366C535.064 213.648 535.385 213.901 535.728 214.121C539.513 216.738 552.863 224.784 552.863 224.784C552.863 224.784 560.253 227.794 562.022 232.106C563.791 236.418 565.021 239.477 565.878 240.705C566.736 241.934 567.204 247.707 567.204 247.707C567.204 247.707 569.747 258.333 571.732 260.133C573.717 261.933 575.145 273.358 575.145 273.358L557.602 287.485C557.602 287.485 556.06 310.985 555.73 311.894C555.4 312.804 562.148 333.147 562.148 333.147Z" fill="white"/>
<path d="M562.814 333.147C562.814 333.147 563.911 334.842 562.814 335.604C561.716 336.365 562.916 338.319 562.916 338.319C562.916 338.319 560.163 339.965 561.374 341.457C562.586 342.95 561.818 349.651 561.818 349.651L558.519 355.296C558.519 355.296 558.717 358.914 558.735 363.803C558.735 371.432 558.297 382.156 555.874 387.046L556.204 427.161C556.204 427.161 544.611 431.504 534.907 430.177L533.473 365.806C533.473 365.806 535.566 329.302 536.346 322.3C536.799 318.664 536.982 314.999 536.892 311.336C536.892 311.336 536.562 300.378 535.458 295.298C535.458 295.298 534.259 273.259 534.133 267.16C534.079 264.242 534.229 255.729 534.397 247.634C534.583 238.782 534.793 230.435 534.793 230.435L531.902 212.45C531.902 212.45 534.793 212.45 535.458 213.366C535.751 213.652 536.073 213.905 536.418 214.121C540.197 216.738 553.547 224.784 553.547 224.784C553.547 224.784 560.918 227.794 562.718 232.106C564.517 236.418 565.717 239.477 566.574 240.705C567.432 241.934 567.9 247.707 567.9 247.707C567.9 247.707 570.443 258.333 572.428 260.133C574.413 261.933 575.847 273.358 575.847 273.358L558.303 287.485C558.303 287.485 556.762 310.985 556.426 311.894C556.09 312.804 562.814 333.147 562.814 333.147Z" fill="white"/>
<path opacity="0.1" d="M541.804 235.65L543.393 240.379L535.05 248.979C535.236 240.128 535.446 231.78 535.446 231.78L532.555 213.802C532.555 213.802 535.446 213.802 536.112 214.717C536.405 215.003 536.726 215.256 537.072 215.472L544.161 236.412L541.804 235.65Z" fill="black"/>
<path d="M541.126 234.292L542.715 239.016L534.379 247.615C534.559 238.764 534.774 230.417 534.774 230.417L531.878 212.432C531.878 212.432 534.775 212.432 535.434 213.347C535.728 213.631 536.05 213.885 536.394 214.103L543.525 235.06L541.126 234.292Z" fill="white"/>
<path opacity="0.1" d="M541.126 187.494C541.128 189.707 540.788 191.907 540.118 194.011C540.005 194.031 539.89 194.026 539.779 193.999C539.667 193.971 539.563 193.921 539.471 193.851C539.309 188.323 536.658 183.127 533.389 178.711C532.47 177.379 531.357 176.198 530.09 175.21C528.808 174.224 527.213 173.762 525.616 173.914C523.817 174.165 522.227 175.418 520.41 175.578C518.011 175.781 515.864 174.079 513.483 174C512.515 174.008 511.559 174.228 510.681 174.645C509.803 175.063 509.022 175.668 508.391 176.42C507.139 177.932 506.209 179.696 505.662 181.598C504.719 184.483 504.205 187.498 504.138 190.541C504.108 192.261 503.946 194.417 502.387 195.043C502.505 193.779 502.365 192.504 501.976 191.298C501.586 190.093 500.957 188.984 500.126 188.041L500.09 187.998C500.09 187.826 500.09 187.666 500.09 187.494C500.09 181.92 502.252 176.573 506.101 172.632C509.95 168.69 515.171 166.475 520.614 166.475C526.057 166.475 531.278 168.69 535.127 172.632C538.976 176.573 541.138 181.92 541.138 187.494H541.126Z" fill="black"/>
<path d="M529.131 154.123C526.014 152.622 522.469 152.338 519.163 153.324C517.501 153.828 515.936 154.645 514.251 155.057C510.652 155.947 506.454 154.983 503.365 157.139C501.649 158.367 500.618 160.308 499.658 162.2L497.259 166.874C495.952 169.436 494.632 172.04 494.086 174.859C493.541 177.679 493.87 180.836 495.616 183.109C496.881 184.755 498.765 185.793 500.144 187.347C500.973 188.294 501.601 189.407 501.989 190.615C502.377 191.824 502.517 193.101 502.399 194.367C503.959 193.753 504.114 191.585 504.15 189.865C504.218 186.823 504.731 183.808 505.674 180.922C506.221 179.02 507.151 177.256 508.403 175.744C509.034 174.991 509.814 174.385 510.693 173.967C511.571 173.548 512.526 173.327 513.495 173.318C515.894 173.404 518.047 175.105 520.422 174.896C522.221 174.743 523.817 173.49 525.628 173.238C527.225 173.083 528.821 173.545 530.102 174.534C531.37 175.519 532.481 176.7 533.395 178.035C536.67 182.457 539.327 187.629 539.483 193.176C540.16 193.679 541.138 193.016 541.474 192.23C541.81 191.444 541.822 190.522 542.248 189.773C542.739 188.907 543.681 188.44 544.419 187.789C546.29 186.137 546.758 183.354 546.686 180.83C546.614 178.305 546.134 175.744 546.602 173.262C546.884 171.745 547.52 170.314 547.867 168.809C548.215 167.304 548.257 165.615 547.436 164.319C546.236 162.421 543.711 162.04 541.51 161.862C539.009 161.641 536.772 161.924 535.176 159.768C534.426 158.644 533.583 157.588 532.657 156.611C532.328 156.285 529.131 154.258 529.131 154.123Z" fill="#512E4E"/>
<path opacity="0.1" d="M463.924 283.652L457.662 271.791L455.677 290.095C455.677 290.095 456.781 298.228 456.559 299.475C456.337 300.722 461.081 311.901 461.081 311.901C461.081 311.901 476.753 340.493 483.153 341.961L504.744 326.139L499.01 318.682C499.01 318.682 497.025 317.889 496.527 318.682C496.527 318.682 485.875 299.923 484.778 298.572C483.68 297.22 483.89 294.499 483.89 294.499C483.89 294.499 482.235 292.694 482.787 290.998C483.338 289.303 479.62 283.431 479.62 283.431L483.039 280.157L463.924 283.652Z" fill="black"/>
<path d="M457.992 270.434L456.337 271.791L454.352 290.095C454.352 290.095 455.455 298.228 455.233 299.475C455.011 300.722 459.762 311.901 459.762 311.901C459.762 311.901 475.428 340.493 481.827 341.961L503.455 326.138L497.715 318.682C497.715 318.682 495.73 317.889 495.232 318.682C495.232 318.682 484.586 299.923 483.482 298.572C482.379 297.22 482.601 294.499 482.601 294.499C482.601 294.499 480.945 292.694 481.497 290.998C482.049 289.303 478.294 283.431 478.294 283.431L481.713 280.157L457.992 270.434Z" fill="white"/>
<path opacity="0.1" d="M560.714 342.164C561.914 343.656 561.158 350.364 561.158 350.364L557.848 355.972C557.848 355.972 558.045 359.596 558.057 364.485L552.492 366.266C551.988 366.427 551.454 366.462 550.934 366.369C550.414 366.275 549.924 366.056 549.504 365.729C549.083 365.402 548.746 364.977 548.518 364.489C548.291 364.001 548.181 363.465 548.197 362.925L549.163 331.23L562.148 336.31C561.044 337.096 562.256 339.025 562.256 339.025C562.256 339.025 559.503 340.671 560.714 342.164Z" fill="black"/>
<path d="M561.374 341.488C562.574 342.975 561.818 349.682 561.818 349.682L558.519 355.296C558.519 355.296 558.717 358.914 558.735 363.803L553.067 365.615C552.575 365.773 552.053 365.808 551.545 365.718C551.037 365.627 550.557 365.413 550.147 365.094C549.736 364.775 549.405 364.359 549.183 363.882C548.961 363.406 548.853 362.882 548.869 362.354L549.835 330.549L562.814 335.641C561.704 336.427 562.915 338.356 562.915 338.356C562.915 338.356 560.163 339.996 561.374 341.488Z" fill="white"/>
<path d="M565.681 326.366C565.681 326.366 564.799 332.133 562.592 332.471C560.385 332.809 559.395 341.801 557.194 341.488C554.993 341.175 556.45 333.122 556.528 331.562C556.606 330.002 554.129 323.54 555.976 322.072C557.824 320.604 563.701 322.072 563.701 322.072L565.681 326.366Z" fill="#CF6F80"/>
<path opacity="0.1" d="M570.347 281.957L574.503 273.358C574.503 273.358 576.165 279.911 576.165 283.413C576.165 286.914 578.48 287.258 578.48 287.258C578.48 287.258 581.017 290.329 579.679 292.571C578.342 294.813 577.808 300.365 577.808 300.365C577.808 300.365 578.246 310.985 576.261 312.453C574.275 313.921 573.831 317.429 573.831 317.429C573.831 317.429 570.191 324.093 570.305 325.678C570.419 327.263 565.231 337.993 565.231 337.993C565.231 337.993 567.768 324.658 552.984 318.897C552.984 318.897 552.87 314.376 553.973 313.135C555.077 311.894 556.798 311.292 555.718 305.052C554.639 298.811 555.407 291.287 555.407 289.782C555.407 288.277 558.717 278.898 558.717 278.898L570.347 281.957Z" fill="black"/>
<path d="M572.194 272.129L575.829 273.358C575.829 273.358 577.49 279.911 577.49 283.413C577.49 286.914 579.805 287.258 579.805 287.258C579.805 287.258 582.342 290.329 581.005 292.571C579.667 294.813 579.127 300.365 579.127 300.365C579.127 300.365 579.571 310.985 577.586 312.453C575.601 313.921 575.187 317.429 575.187 317.429C575.187 317.429 571.546 324.093 571.66 325.678C571.774 327.263 566.58 337.993 566.58 337.993C566.58 337.993 569.117 324.658 554.333 318.897C554.333 318.897 554.225 314.376 555.329 313.135C556.432 311.894 558.153 311.293 557.074 305.052C555.994 298.811 556.762 291.287 556.762 289.782C556.762 288.277 560.073 278.898 560.073 278.898L572.194 272.129Z" fill="white"/>
<path opacity="0.1" d="M491.897 495.015C491.897 495.015 497.691 491.287 501.493 493.996C505.296 496.704 491.897 495.015 491.897 495.015Z" fill="black"/>
<path opacity="0.1" d="M536.928 483.486C536.928 483.486 542.056 482.811 546.362 487.559C550.668 492.307 536.928 483.486 536.928 483.486Z" fill="black"/>
<g opacity="0.1">
<path opacity="0.1" d="M544.419 186.438C543.681 187.095 542.733 187.556 542.242 188.422C541.822 189.165 541.81 190.086 541.474 190.879C541.138 191.671 540.16 192.328 539.477 191.824C539.321 186.296 536.664 181.106 533.395 176.684C532.481 175.351 531.37 174.172 530.102 173.189C528.819 172.198 527.222 171.734 525.622 171.887C523.823 172.138 522.239 173.391 520.422 173.551C518.023 173.754 515.87 172.052 513.489 171.973C512.521 171.98 511.567 172.2 510.689 172.617C509.812 173.035 509.032 173.64 508.403 174.393C507.151 175.905 506.221 177.669 505.674 179.571C504.731 182.457 504.218 185.471 504.15 188.514C504.114 190.227 503.959 192.365 502.411 193.004C502.447 193.46 502.447 193.918 502.411 194.374C503.977 193.759 504.132 191.591 504.168 189.871C504.236 186.829 504.749 183.814 505.692 180.928C506.239 179.026 507.169 177.262 508.421 175.75C509.051 174.998 509.83 174.392 510.708 173.974C511.585 173.555 512.539 173.334 513.507 173.324C515.906 173.41 518.065 175.111 520.44 174.902C522.239 174.749 523.835 173.496 525.64 173.244C527.239 173.089 528.837 173.552 530.12 174.54C531.388 175.525 532.499 176.707 533.413 178.041C536.682 182.464 539.339 187.635 539.495 193.182C540.178 193.686 541.156 193.022 541.492 192.236C541.828 191.45 541.84 190.528 542.26 189.779C542.751 188.913 543.699 188.446 544.437 187.795C546.308 186.143 546.776 183.36 546.704 180.836C546.704 180.756 546.704 180.682 546.704 180.602C546.584 182.801 546.014 185.031 544.419 186.438Z" fill="black"/>
<path opacity="0.1" d="M500.138 186.008C498.765 184.454 496.881 183.41 495.616 181.763C494.547 180.31 493.938 178.557 493.87 176.739C493.682 179.012 494.302 181.278 495.616 183.121C496.881 184.767 498.765 185.805 500.138 187.359C501.465 188.878 502.262 190.805 502.405 192.838C502.495 191.602 502.341 190.36 501.951 189.186C501.562 188.013 500.945 186.931 500.138 186.008Z" fill="black"/>
<path opacity="0.1" d="M547.867 167.458C547.514 168.963 546.884 170.394 546.596 171.911C546.423 172.937 546.361 173.979 546.41 175.019C546.43 174.432 546.492 173.847 546.596 173.269C546.884 171.751 547.514 170.32 547.867 168.815C548.071 167.985 548.138 167.125 548.065 166.272C548.027 166.672 547.961 167.068 547.867 167.458Z" fill="black"/>
</g>
<path opacity="0.1" d="M80.3132 515.266C112.589 515.266 138.754 510.963 138.754 505.654C138.754 500.345 112.589 496.041 80.3132 496.041C48.0369 496.041 21.8719 500.345 21.8719 505.654C21.8719 510.963 48.0369 515.266 80.3132 515.266Z" fill="#E83C38"/>
<path d="M82.1964 321.501H78.4359V408.212H82.1964V321.501Z" fill="#535461"/>
<path d="M105.833 407.954L105.593 411.861L105.263 417.389L105.126 419.686L104.79 425.214L104.646 427.511L104.316 433.039L100.519 495.734C100.357 498.431 99.1969 500.964 97.2744 502.815C95.3519 504.667 92.8122 505.697 90.1733 505.697H70.459C67.8128 505.698 65.2666 504.662 63.3427 502.801C61.4188 500.941 60.2632 498.397 60.113 495.691L56.3165 432.996L55.9866 427.468L55.8487 425.171L55.5068 419.643L55.3689 417.346L55.039 411.818L54.7991 407.911C54.7576 407.162 54.8653 406.413 55.1157 405.708C55.366 405.003 55.7538 404.358 56.2554 403.811C56.757 403.265 57.3619 402.829 58.0333 402.529C58.7048 402.23 59.4287 402.074 60.161 402.07H100.477C101.213 402.074 101.94 402.232 102.614 402.535C103.287 402.837 103.894 403.277 104.395 403.829C104.897 404.38 105.283 405.03 105.53 405.739C105.778 406.449 105.881 407.202 105.833 407.954Z" fill="#3F3D56"/>
<path d="M105.593 411.855L105.257 417.37H55.3689L55.033 411.855H105.593Z" fill="#9D9CB5"/>
<path d="M105.12 419.668L104.79 425.183H55.8427L55.5068 419.668H105.12Z" fill="#9D9CB5"/>
<path d="M104.646 427.487L104.316 432.996H56.3165L55.9806 427.487H104.646Z" fill="#9D9CB5"/>
<path d="M49.3172 354.006C71.2207 370.234 80.3431 395.614 80.3431 395.614C80.3431 395.614 53.9534 394.687 32.0439 378.459C10.1344 362.231 1 336.869 1 336.869C1 336.869 27.3897 337.778 49.3172 354.006Z" fill="#E83C38"/>
<path d="M1 336.869C1 336.869 28.3914 352.44 37.1779 365.333C45.9645 378.225 80.3192 395.626 80.3192 395.626" stroke="#535461" stroke-width="2" stroke-miterlimit="10"/>
<path d="M63.4297 321.317C75.3531 330.143 80.3192 343.957 80.3192 343.957C80.3192 343.957 65.9248 343.454 54.0314 334.627C42.138 325.801 37.142 311.98 37.142 311.98C37.142 311.98 51.5124 312.484 63.4297 321.317Z" fill="#E83C38"/>
<path d="M37.142 311.98C37.142 311.98 52.0522 320.457 56.8383 327.471C61.6244 334.486 80.3192 343.957 80.3192 343.957" stroke="#535461" stroke-width="2" stroke-miterlimit="10"/>
<path d="M97.6404 343.257C83.9477 358.668 81.0509 378.809 81.0509 378.809C81.0509 378.809 100.357 373.956 114.038 358.539C127.719 343.122 130.628 322.988 130.628 322.988C130.628 322.988 111.333 327.846 97.6404 343.257Z" fill="#E83C38"/>
<path d="M130.64 322.994C130.64 322.994 112.803 338.792 108.268 349.676C103.734 360.56 81.0509 378.809 81.0509 378.809" stroke="#535461" stroke-width="2" stroke-miterlimit="10"/>
<defs>
<linearGradient id="paint0_linear" x1="279.916" y1="513.227" x2="279.916" y2="158.416" gradientUnits="userSpaceOnUse">
<stop stop-color="#808080" stop-opacity="0.25"/>
<stop offset="0.54" stop-color="#808080" stop-opacity="0.12"/>
<stop offset="1" stop-color="#808080" stop-opacity="0.1"/>
</linearGradient>
<linearGradient id="paint1_linear" x1="114124" y1="332515" x2="114124" y2="99953.4" gradientUnits="userSpaceOnUse">
<stop stop-color="#808080" stop-opacity="0.25"/>
<stop offset="0.54" stop-color="#808080" stop-opacity="0.12"/>
<stop offset="1" stop-color="#808080" stop-opacity="0.1"/>
</linearGradient>
</defs>
</svg>
