<svg width="296" height="124" viewBox="0 0 296 124" fill="none" xmlns="http://www.w3.org/2000/svg">
<g clip-path="url(#clip0)">
<g filter="url(#filter0_i)">
<path d="M30.7993 65.9528C31.8535 65.9528 32.6784 66.2504 33.2743 66.8456C33.9159 67.4408 34.2367 68.2649 34.2367 69.3179V97.2694C34.2367 98.2309 33.9159 99.0093 33.2743 99.6045C32.6326 100.2 31.7847 100.497 30.7306 100.497C29.7681 100.497 28.9889 100.223 28.3931 99.6731C27.7973 99.0779 27.4994 98.2996 27.4994 97.3381V94.7284C26.4452 96.6513 24.9786 98.1165 23.0995 99.1237C21.2662 100.131 19.2038 100.635 16.9121 100.635C8.754 100.635 4.67493 96.1477 4.67493 87.1739V69.3179C4.67493 68.2649 4.97284 67.4408 5.56866 66.8456C6.21031 66.2504 7.08112 65.9528 8.18109 65.9528C9.23524 65.9528 10.0602 66.2504 10.656 66.8456C11.2977 67.4408 11.6185 68.2649 11.6185 69.3179V87.1053C11.6185 89.8065 12.1685 91.7982 13.2685 93.0801C14.3684 94.3621 16.0642 95.0031 18.3559 95.0031C21.06 95.0031 23.2141 94.1332 24.8182 92.3934C26.4682 90.6536 27.2931 88.3414 27.2931 85.457V69.3179C27.2931 68.3107 27.614 67.5094 28.2556 66.9142C28.8973 66.2733 29.7452 65.9528 30.7993 65.9528ZM82.3837 51.3932C83.4378 51.3932 84.2857 51.7366 84.9274 52.4234C85.569 53.0644 85.8899 53.9114 85.8899 54.9644V96.9261C85.8899 97.9791 85.569 98.849 84.9274 99.5358C84.2857 100.177 83.4378 100.497 82.3837 100.497C81.3296 100.497 80.4817 100.177 79.84 99.5358C79.1984 98.8948 78.8775 98.0249 78.8775 96.9261V78.452H51.7907V96.9261C51.7907 97.9791 51.4698 98.849 50.8282 99.5358C50.1865 100.177 49.3386 100.497 48.2845 100.497C47.2304 100.497 46.3825 100.177 45.7408 99.5358C45.0992 98.8948 44.7783 98.0249 44.7783 96.9261V54.9644C44.7783 53.9114 45.0992 53.0644 45.7408 52.4234C46.3825 51.7366 47.2304 51.3932 48.2845 51.3932C49.3386 51.3932 50.1865 51.7366 50.8282 52.4234C51.4698 53.0644 51.7907 53.9114 51.7907 54.9644V72.6831H78.8775V54.9644C78.8775 53.9114 79.1984 53.0644 79.84 52.4234C80.4817 51.7366 81.3296 51.3932 82.3837 51.3932ZM122.582 91.7066C123.224 91.7066 123.751 91.9584 124.163 92.4621C124.576 92.9657 124.782 93.6067 124.782 94.385C124.782 95.7128 123.957 96.8345 122.307 97.7502C120.703 98.6659 118.939 99.3755 117.014 99.8792C115.134 100.383 113.324 100.635 111.582 100.635C106.266 100.635 102.072 99.1008 99.0015 96.0333C95.9308 92.9199 94.3953 88.6848 94.3953 83.328C94.3953 79.8942 95.0599 76.8495 96.3891 74.194C97.7641 71.5385 99.6661 69.4782 102.095 68.0131C104.57 66.548 107.366 65.8154 110.482 65.8154C114.974 65.8154 118.526 67.2576 121.138 70.1421C123.751 73.0265 125.057 76.9182 125.057 81.8171C125.057 83.6485 124.232 84.5642 122.582 84.5642H101.339C101.797 91.6608 105.212 95.2091 111.582 95.2091C113.278 95.2091 114.745 94.9802 115.982 94.5224C117.22 94.0645 118.526 93.4693 119.901 92.7368C120.039 92.6452 120.405 92.4621 121.001 92.1874C121.643 91.8669 122.17 91.7066 122.582 91.7066ZM110.62 70.8975C107.962 70.8975 105.831 71.7445 104.226 73.4385C102.622 75.1326 101.66 77.5134 101.339 80.5809H119.076C118.939 77.4676 118.136 75.0868 116.67 73.4385C115.249 71.7445 113.232 70.8975 110.62 70.8975ZM146.802 65.8154C151.247 65.8154 154.547 66.9371 156.701 69.1806C158.901 71.424 160.001 74.835 160.001 79.4134V97.2008C160.001 98.2538 159.703 99.0779 159.108 99.6731C158.512 100.223 157.687 100.497 156.633 100.497C155.624 100.497 154.822 100.2 154.227 99.6045C153.631 99.0093 153.333 98.208 153.333 97.2008V94.6597C152.462 96.5827 151.156 98.0707 149.414 99.1237C147.718 100.131 145.725 100.635 143.433 100.635C141.233 100.635 139.216 100.2 137.383 99.3298C135.596 98.4141 134.175 97.1779 133.121 95.6212C132.067 94.0645 131.54 92.3018 131.54 90.3331C131.494 87.8607 132.112 85.9377 133.396 84.5642C134.679 83.1449 136.764 82.1376 139.652 81.5424C142.539 80.9014 146.55 80.5809 151.683 80.5809H153.264V78.5893C153.264 76.0254 152.737 74.1711 151.683 73.0265C150.629 71.8819 148.933 71.3096 146.595 71.3096C144.991 71.3096 143.479 71.5156 142.058 71.9276C140.637 72.3397 139.079 72.9349 137.383 73.7133C136.146 74.4 135.275 74.7434 134.771 74.7434C134.083 74.7434 133.51 74.4916 133.052 73.988C132.64 73.4843 132.433 72.8433 132.433 72.065C132.433 71.3782 132.617 70.783 132.983 70.2794C133.396 69.73 134.037 69.2035 134.908 68.6998C136.512 67.8299 138.391 67.1432 140.546 66.6395C142.7 66.0901 144.785 65.8154 146.802 65.8154ZM144.67 95.4838C147.191 95.4838 149.254 94.6368 150.858 92.9428C152.462 91.203 153.264 88.9824 153.264 86.2811V84.4955H152.027C148.452 84.4955 145.702 84.6558 143.777 84.9763C141.852 85.2968 140.477 85.8462 139.652 86.6245C138.827 87.3571 138.414 88.433 138.414 89.8523C138.414 91.5006 139.01 92.8512 140.202 93.9043C141.393 94.9573 142.883 95.4838 144.67 95.4838ZM173.006 100.497C171.998 100.497 171.15 100.223 170.463 99.6731C169.821 99.1237 169.5 98.2996 169.5 97.2008V54.7584C169.5 53.6596 169.821 52.8355 170.463 52.2861C171.15 51.6909 171.998 51.3932 173.006 51.3932C174.015 51.3932 174.84 51.6909 175.481 52.2861C176.123 52.8355 176.444 53.6596 176.444 54.7584V97.2008C176.444 98.2996 176.123 99.1237 175.481 99.6731C174.84 100.223 174.015 100.497 173.006 100.497ZM240.553 65.8154C248.528 65.8154 252.516 70.3252 252.516 79.3448V97.2008C252.516 98.208 252.195 99.0093 251.553 99.6045C250.912 100.2 250.064 100.497 249.01 100.497C247.955 100.497 247.107 100.2 246.466 99.6045C245.87 99.0093 245.572 98.208 245.572 97.2008V79.4134C245.572 76.6664 244.999 74.6518 243.853 73.3699C242.753 72.0879 241.012 71.4469 238.629 71.4469C235.833 71.4469 233.587 72.3168 231.891 74.0566C230.195 75.7965 229.347 78.1315 229.347 81.0617V97.2008C229.347 98.208 229.027 99.0093 228.385 99.6045C227.789 100.2 226.964 100.497 225.91 100.497C224.856 100.497 224.008 100.2 223.366 99.6045C222.725 99.0093 222.404 98.208 222.404 97.2008V54.6897C222.404 53.6825 222.725 52.8813 223.366 52.2861C224.054 51.6909 224.925 51.3932 225.979 51.3932C226.987 51.3932 227.789 51.6909 228.385 52.2861C229.027 52.8355 229.347 53.5909 229.347 54.5524V71.7216C230.493 69.7987 232.029 68.3336 233.954 67.3263C235.879 66.319 238.079 65.8154 240.553 65.8154ZM285.87 68.0131C286.145 67.3263 286.535 66.8227 287.039 66.5022C287.589 66.1817 288.162 66.0214 288.758 66.0214C289.628 66.0214 290.385 66.319 291.026 66.9142C291.714 67.5094 292.057 68.2191 292.057 69.0432C292.057 69.5011 291.966 69.936 291.782 70.3481L272.67 110.867C272.395 111.508 271.983 111.989 271.433 112.31C270.929 112.676 270.379 112.859 269.783 112.859C268.958 112.859 268.202 112.584 267.514 112.035C266.873 111.486 266.552 110.799 266.552 109.975C266.552 109.608 266.666 109.151 266.896 108.601L271.639 98.5056L258.371 70.3481C258.187 69.9818 258.096 69.5697 258.096 69.1119C258.096 68.242 258.462 67.5094 259.196 66.9142C259.929 66.319 260.754 66.0214 261.671 66.0214C263.046 66.0214 264.031 66.6624 264.627 67.9444L275.283 91.5693L285.87 68.0131Z" fill="#F34B47"/>
</g>
<path d="M222.477 39.1077H176.645C175.063 39.1077 173.781 40.3889 173.781 41.9692C173.781 43.5496 175.063 44.8308 176.645 44.8308H222.477C224.059 44.8308 225.342 43.5496 225.342 41.9692C225.342 40.3889 224.059 39.1077 222.477 39.1077Z" fill="#434343"/>
<path d="M199.561 19.0769C204.307 19.0769 208.155 15.2335 208.155 10.4923C208.155 5.75115 204.307 1.90768 199.561 1.90768C194.815 1.90768 190.968 5.75115 190.968 10.4923C190.968 15.2335 194.815 19.0769 199.561 19.0769Z" stroke="#434343" stroke-width="4"/>
<path fill-rule="evenodd" clip-rule="evenodd" d="M199.561 116.369C200.616 116.369 201.471 115.516 201.471 114.462V107.785H197.652V114.462C197.652 115.516 198.506 116.369 199.561 116.369ZM197.652 105.877H201.471V103.015H197.652V105.877Z" fill="#434343"/>
<path fill-rule="evenodd" clip-rule="evenodd" d="M202.426 99.2C202.426 100.781 201.143 102.062 199.561 102.062C197.979 102.062 196.697 100.781 196.697 99.2H192.877C192.877 102.888 195.87 105.877 199.561 105.877C203.253 105.877 206.245 102.888 206.245 99.2H202.426ZM205.602 96.3385H199.561H193.521C194.593 94.0827 196.895 92.5231 199.561 92.5231C202.227 92.5231 204.529 94.0827 205.602 96.3385Z" fill="#434343"/>
<path fill-rule="evenodd" clip-rule="evenodd" d="M190.968 41.9692H208.155V52.4615H190.968V41.9692ZM190.968 55.3231V59.1385H199.561V62H190.968V65.8154H199.561V68.6769H190.968V72.4923H199.561V75.3539H190.968V79.1692H199.561V82.0308H190.968V96.3385H208.155V55.3231H190.968ZM207.758 99.2C207.021 100.885 205.338 102.062 203.381 102.062H195.742C193.785 102.062 192.102 100.885 191.365 99.2H207.758Z" fill="#434343"/>
<path fill-rule="evenodd" clip-rule="evenodd" d="M202.426 20.0785V19.0769H196.697V20.0785H202.426ZM202.426 24.0846H196.697V39.1077H202.426V24.0846Z" fill="#434343"/>
</g>
<defs>
<filter id="filter0_i" x="4.67493" y="51.3932" width="287.383" height="65.4659" filterUnits="userSpaceOnUse" color-interpolation-filters="sRGB">
<feFlood flood-opacity="0" result="BackgroundImageFix"/>
<feBlend mode="normal" in="SourceGraphic" in2="BackgroundImageFix" result="shape"/>
<feColorMatrix in="SourceAlpha" type="matrix" values="0 0 0 0 0 0 0 0 0 0 0 0 0 0 0 0 0 0 127 0" result="hardAlpha"/>
<feOffset dy="4"/>
<feGaussianBlur stdDeviation="2"/>
<feComposite in2="hardAlpha" operator="arithmetic" k2="-1" k3="1"/>
<feColorMatrix type="matrix" values="0 0 0 0 0 0 0 0 0 0 0 0 0 0 0 0 0 0 0.25 0"/>
<feBlend mode="normal" in2="shape" result="effect1_innerShadow"/>
</filter>
<clipPath id="clip0">
<rect width="296" height="124" fill="white"/>
</clipPath>
</defs>
</svg>
